<svg width="406" height="306" viewBox="0 0 406 306" fill="none" xmlns="http://www.w3.org/2000/svg">
<path d="M25.2532 158.217L166.237 76.2253C167.25 75.64 168.4 75.3319 169.571 75.3319C170.742 75.3319 171.892 75.64 172.905 76.2253L383.741 196.889C384.757 197.473 385.602 198.315 386.189 199.33C386.775 200.345 387.085 201.497 387.085 202.669C387.085 203.841 386.775 204.993 386.189 206.008C385.602 207.023 384.757 207.865 383.741 208.449L248.939 286.29C245.631 288.2 241.878 289.205 238.058 289.205C234.238 289.205 230.486 288.2 227.177 286.29L25.2735 169.758C24.261 169.173 23.4199 168.333 22.8344 167.322C22.2489 166.31 21.9396 165.162 21.9375 163.993C21.9355 162.824 22.2407 161.675 22.8226 160.661C23.4046 159.648 24.2428 158.805 25.2532 158.217Z" fill="#F9E48A"/>
<path style="mix-blend-mode:multiply" opacity="0.63" d="M335.255 198.157C333.296 199.954 332.21 199.67 329.033 202.552C326.871 204.491 319.898 207.627 319.898 207.627C319.898 207.627 305.109 200.35 298.41 196.381C286.525 189.357 288.778 190.291 280.627 186.322L258.825 199.903L317.035 233.591L356.133 209.14C351.748 206.501 343.902 202.542 335.255 198.157Z" fill="url(#paint0_linear_147_1578)"/>
<path style="mix-blend-mode:multiply" opacity="0.63" d="M104.545 169.017C102.586 170.813 101.5 170.529 98.3231 173.412C96.1612 175.35 89.1881 178.487 89.1881 178.487C89.1881 178.487 74.4605 171.199 67.7615 167.21C55.8758 160.186 58.1291 161.12 49.9787 157.151L28.1968 170.762L86.407 204.45L125.505 179.999C121.09 177.36 113.244 173.401 104.545 169.017Z" fill="url(#paint1_linear_147_1578)"/>
<path d="M190.343 222.121C217.48 222.121 239.479 211.392 239.479 198.157C239.479 184.922 217.48 174.193 190.343 174.193C163.206 174.193 141.207 184.922 141.207 198.157C141.207 211.392 163.206 222.121 190.343 222.121Z" fill="url(#paint2_linear_147_1578)"/>
<path d="M249.69 115.79C243.918 103.265 236.441 94.3532 227.258 89.0549C220.065 84.9002 213.515 83.9461 207.608 86.1926C205.74 86.6088 193.124 93.4397 193.124 93.4397H198.108C193.912 99.0087 191.409 107.2 190.597 118.013C189.417 131.864 191.832 145.786 197.61 158.43C203.369 170.976 210.839 179.897 220.021 185.196C223.289 187.181 226.918 188.496 230.699 189.063L228.253 193.884C228.253 193.884 239.662 189.449 244.422 185.46C251.507 180.344 255.594 170.58 256.683 156.167C257.871 142.33 255.462 128.421 249.69 115.79ZM221.382 167.382C216.895 164.791 213.218 159.919 210.349 152.767C207.479 145.614 206.407 137.21 207.131 127.554C207.855 117.911 210.047 111.392 213.708 107.995C217.369 104.598 221.429 104.202 225.888 106.807C230.374 109.399 234.052 114.271 236.921 121.423C239.79 128.576 240.863 136.98 240.139 146.636C239.435 156.292 237.249 162.812 233.582 166.195C229.914 169.578 225.841 169.974 221.361 167.382H221.382Z" fill="#A43CE3"/>
<path opacity="0.61" d="M249.69 115.79C243.918 103.265 236.441 94.3532 227.258 89.0549C220.065 84.9002 213.515 83.9461 207.608 86.1926C205.74 86.6088 193.124 93.4397 193.124 93.4397H198.108C193.912 99.0087 191.409 107.2 190.597 118.013C189.417 131.864 191.832 145.786 197.61 158.43C203.369 170.976 210.839 179.897 220.021 185.196C223.289 187.181 226.918 188.496 230.699 189.063L228.253 193.884C228.253 193.884 239.662 189.449 244.422 185.46C251.507 180.344 255.594 170.58 256.683 156.167C257.871 142.33 255.462 128.421 249.69 115.79ZM221.382 167.382C216.895 164.791 213.218 159.919 210.349 152.767C207.479 145.614 206.407 137.21 207.131 127.554C207.855 117.911 210.047 111.392 213.708 107.995C217.369 104.598 221.429 104.202 225.888 106.807C230.374 109.399 234.052 114.271 236.921 121.423C239.79 128.576 240.863 136.98 240.139 146.636C239.435 156.292 237.249 162.812 233.582 166.195C229.914 169.578 225.841 169.974 221.361 167.382H221.382Z" fill="#606060"/>
<path d="M238.779 121.403C244.563 134.035 246.982 147.947 245.803 161.79C244.72 176.196 240.633 185.96 233.541 191.083C226.45 196.205 218.33 196.117 209.181 190.819C199.999 185.521 192.529 176.599 186.77 164.053C180.958 151.418 178.507 137.496 179.655 123.636C180.738 109.23 184.821 99.479 191.906 94.3837C198.991 89.2884 207.111 89.3865 216.266 94.678C225.509 99.9696 233.014 108.878 238.779 121.403ZM222.691 171.808C226.345 168.425 228.538 161.905 229.268 152.249C229.999 142.593 228.927 134.189 226.051 127.036C223.182 119.884 219.504 115.012 215.018 112.42C210.531 109.829 206.471 110.224 202.838 113.608C199.17 116.991 196.978 123.511 196.261 133.167C195.543 142.823 196.616 151.227 199.478 158.379C202.347 165.532 206.025 170.404 210.511 172.995C214.997 175.587 219.057 175.191 222.691 171.808Z" fill="#A43CE3"/>
<path d="M142.1 148.838L133.28 143.763L137.685 85.1168L118.4 73.9518L107.509 79.5647L110.686 81.4019L80.5503 110.532L79.0684 130.274L115.456 151.285L114.218 167.738L119.851 170.986V182.892L130.752 177.36L131.239 170.935L140.811 165.992L142.1 148.838ZM116.725 134.202L95.8159 122.124L119.425 98.6467L116.725 134.202Z" fill="#A43CE3"/>
<path opacity="0.61" d="M142.1 148.838L133.28 143.763L137.685 85.1168L118.4 73.9518L107.509 79.5647L110.686 81.4019L80.5503 110.532L79.0684 130.274L115.456 151.285L114.218 167.738L119.851 170.986V182.892L130.752 177.36L131.239 170.935L140.811 165.992L142.1 148.838ZM116.725 134.202L95.8159 122.124L119.425 98.6467L116.725 134.202Z" fill="#606060"/>
<path d="M122.379 149.366L131.199 154.441L129.92 171.564L121.1 166.489L119.861 182.942L103.337 173.401L104.545 156.928L68.1572 135.917L69.6391 116.176L107.488 79.6357L126.773 90.8007L122.379 149.366ZM105.864 139.805L108.534 104.28L84.925 127.737L105.864 139.805Z" fill="#A43CE3"/>
<path d="M366.253 181.481L357.432 176.406L361.837 117.759L342.552 106.594L331.662 112.207L334.838 114.044L304.703 143.175L303.221 162.916L339.609 183.927L338.371 200.38L344.004 203.628V215.534L354.895 209.921L355.382 203.496L364.953 198.553L366.253 181.481ZM340.878 166.845L319.938 154.756L343.547 131.279L340.878 166.845Z" fill="#A43CE3"/>
<path opacity="0.61" d="M366.253 181.481L357.432 176.406L361.837 117.759L342.552 106.594L331.662 112.207L334.838 114.044L304.703 143.175L303.221 162.916L339.609 183.927L338.371 200.38L344.004 203.628V215.534L354.895 209.921L355.382 203.496L364.953 198.553L366.253 181.481ZM340.878 166.845L319.938 154.756L343.547 131.279L340.878 166.845Z" fill="#606060"/>
<path d="M346.541 182.009L355.361 187.084L354.072 204.186L345.252 199.111L344.014 215.565L327.49 206.024L328.728 189.54L292.32 168.57L293.802 148.828L331.651 112.288L350.936 123.453L346.541 182.009ZM330.017 172.468L332.686 136.943L309.077 160.42L330.017 172.508" fill="#A43CE3"/>
<path d="M311.95 164.906L318.406 188.17C318.406 188.17 317.858 194.473 309.636 191.854L304.043 167.311C304.043 167.311 305.302 161.851 311.95 164.906Z" fill="#FF7B39"/>
<path d="M302.236 153.954L306.296 167.738C306.296 167.738 309.788 169.524 310.874 166.124L307.545 152.675L302.236 153.954Z" fill="#3B125E"/>
<path d="M295.903 150.747C291.784 147.198 288.685 142.617 286.922 137.475C285.16 132.332 284.798 126.813 285.875 121.484C287.174 116.308 290.128 112.684 294.198 111.334C302.318 108.543 311.93 115.668 316.01 127.574C320.09 139.48 316.883 150.919 308.733 153.761C306.637 154.468 304.381 154.556 302.237 154.015C299.915 153.395 297.754 152.28 295.903 150.747ZM295.72 115.719C293.203 116.582 291.325 119.028 290.422 122.621C289.565 127.071 289.887 131.669 291.356 135.956C292.825 140.244 295.39 144.072 298.796 147.062C301.709 149.346 304.693 150.107 307.21 149.265C312.691 147.387 314.691 138.1 311.575 129.026C309.159 121.921 304.236 116.714 299.598 115.597C298.32 115.265 296.974 115.307 295.72 115.719Z" fill="#3B125E"/>
<path d="M300.775 117.739C299.557 116.846 296.806 118.307 295.933 119.129C288.706 125.899 292.178 138.556 298.44 145.012C300.785 147.428 306.317 150.736 308.357 149.356C308.357 149.356 299.313 155.446 292.858 148.717C286.402 141.987 284.829 128.904 284.829 128.904L285.225 122.012L287.59 117.394L289.995 114.826L295.933 114.176L300.775 117.739Z" fill="#3B125E"/>
<path d="M293.7 151.386C289.582 147.838 286.482 143.257 284.72 138.114C282.957 132.972 282.596 127.452 283.672 122.124C284.971 116.947 287.925 113.324 291.995 111.974C300.115 109.182 309.727 116.308 313.807 128.214C317.888 140.12 314.68 151.559 306.53 154.401C304.434 155.108 302.179 155.196 300.034 154.654C297.712 154.034 295.551 152.919 293.7 151.386ZM293.518 116.358C291 117.221 289.123 119.667 288.219 123.26C287.362 127.711 287.684 132.308 289.153 136.596C290.622 140.883 293.187 144.712 296.593 147.702C299.506 149.985 302.49 150.747 305.007 149.904C310.488 148.026 312.488 138.739 309.372 129.665C306.956 122.56 302.033 117.353 297.395 116.237C296.118 115.904 294.772 115.946 293.518 116.358Z" fill="#662D91"/>
<path d="M289.924 153C290.063 152.67 290.225 152.351 290.412 152.046C290.407 152.062 290.407 152.08 290.412 152.097C290.419 152.122 290.434 152.144 290.456 152.159C290.477 152.175 290.502 152.184 290.528 152.184C290.555 152.184 290.58 152.175 290.601 152.159C290.622 152.144 290.638 152.122 290.645 152.097L291 151.559C290.988 151.629 290.988 151.701 291 151.772C291.03 151.902 291.106 152.016 291.215 152.093C291.323 152.17 291.457 152.204 291.589 152.188C291.668 152.183 291.745 152.161 291.814 152.123C291.883 152.085 291.942 152.031 291.988 151.967C292.034 151.903 292.064 151.829 292.078 151.751C292.092 151.674 292.087 151.594 292.066 151.518L292.228 151.335C292.22 151.389 292.22 151.444 292.228 151.498C292.253 151.574 292.296 151.642 292.354 151.697C292.412 151.751 292.483 151.79 292.56 151.81C292.638 151.829 292.719 151.828 292.796 151.807C292.873 151.786 292.943 151.746 293 151.691L293.172 151.518C293.222 151.54 293.276 151.552 293.33 151.552C293.384 151.552 293.438 151.54 293.487 151.518C293.944 151.362 294.392 151.179 294.827 150.97C294.795 150.958 294.766 150.938 294.744 150.912C294.722 150.886 294.707 150.855 294.699 150.822C294.692 150.789 294.694 150.754 294.704 150.721C294.714 150.689 294.731 150.659 294.756 150.635C295.269 150.22 295.811 149.843 296.38 149.508H296.451V149.458C296.584 149.025 296.551 148.558 296.36 148.148C296.496 147.982 296.594 147.787 296.645 147.578C296.696 147.369 296.699 147.151 296.654 146.94C296.609 146.936 296.567 146.918 296.532 146.89C296.452 146.82 296.384 146.737 296.329 146.646C296.231 146.521 296.156 146.38 296.106 146.23C296.094 146.191 296.094 146.15 296.107 146.112C296.12 146.074 296.144 146.04 296.177 146.017C295.964 145.732 295.72 145.469 295.497 145.225C296.038 144.305 296.293 143.245 296.228 142.18C296.227 142.08 296.193 141.983 296.131 141.904C296.069 141.825 295.983 141.768 295.887 141.743C295.79 141.717 295.687 141.724 295.595 141.763C295.502 141.802 295.425 141.87 295.375 141.957C295.165 142.283 294.976 142.622 294.807 142.972C294.751 143.007 294.706 143.056 294.675 143.114C293.758 144.964 292.742 146.764 291.63 148.503C291.447 148.798 289.163 151.934 289.427 152.015C289.498 152.178 287.631 156.492 289.924 153ZM291.274 151.67C291.286 151.683 291.3 151.694 291.316 151.701C291.331 151.708 291.348 151.711 291.366 151.711C291.383 151.711 291.4 151.708 291.416 151.701C291.432 151.694 291.446 151.683 291.457 151.67C291.513 151.712 291.578 151.741 291.646 151.755C291.714 151.769 291.785 151.768 291.853 151.751C291.853 151.831 291.821 151.907 291.765 151.963C291.709 152.019 291.633 152.051 291.553 152.051C291.474 152.051 291.398 152.019 291.342 151.963C291.286 151.907 291.254 151.831 291.254 151.751L291.274 151.67Z" fill="#FCBF81"/>
<path d="M290.168 151.985C290.662 151.599 291.078 151.124 291.396 150.584C291.529 150.365 291.741 150.205 291.987 150.135C292.234 150.066 292.498 150.092 292.726 150.209C292.76 149.956 292.777 149.702 292.777 149.447C292.777 149.178 292.883 148.92 293.074 148.73C293.264 148.539 293.522 148.432 293.792 148.432C294.061 148.432 294.319 148.539 294.509 148.73C294.7 148.92 294.807 149.178 294.807 149.447C294.852 150.466 294.579 151.474 294.025 152.33C293.416 153.102 292.673 153.758 291.833 154.269C291.685 154.357 291.517 154.407 291.346 154.412C291.174 154.418 291.003 154.38 290.85 154.302C290.697 154.224 290.566 154.108 290.47 153.966C290.373 153.823 290.315 153.659 290.3 153.487L290.209 153.416C290.014 153.231 289.901 152.977 289.893 152.709C289.885 152.441 289.984 152.18 290.168 151.985Z" fill="#FCBF81"/>
<path d="M293.406 152.746C294.252 152.191 294.86 151.341 295.111 150.361C295.122 150.372 295.134 150.381 295.148 150.387C295.162 150.393 295.177 150.396 295.193 150.396C295.208 150.396 295.223 150.393 295.237 150.387C295.251 150.381 295.263 150.372 295.274 150.361L296.076 149.823C296.246 149.726 296.4 149.603 296.532 149.458C296.827 149.082 296.532 148.656 296.411 148.27C296.416 148.25 296.416 148.229 296.411 148.209L296.522 148.016C296.728 147.718 296.834 147.363 296.827 147.001C296.776 146.656 296.441 146.423 296.289 146.118C296.319 145.944 296.289 145.765 296.204 145.611C296.119 145.456 295.985 145.334 295.822 145.266C295.396 145.073 295.152 145.398 294.929 145.712C294.435 146.389 293.968 147.066 293.528 147.742C293.447 147.884 293.66 148.006 293.751 147.864C293.995 147.478 294.239 147.103 294.492 146.727C294.705 146.31 294.979 145.927 295.304 145.59C296.197 145.073 296.025 146.311 295.883 146.605C295.741 146.9 295.69 146.971 295.588 147.143L294.908 148.341C294.9 148.357 294.896 148.374 294.896 148.392C294.896 148.41 294.9 148.427 294.908 148.443C295.106 149.177 295.061 149.956 294.781 150.663C294.502 151.371 294.002 151.969 293.355 152.371C293.132 152.624 293.264 152.838 293.406 152.746ZM295.233 148.686C295.214 148.672 295.191 148.665 295.167 148.665C295.144 148.665 295.12 148.672 295.101 148.686V148.605C295.547 147.975 295.915 147.293 296.197 146.575L296.39 146.819C296.473 146.943 296.517 147.09 296.517 147.24C296.517 147.39 296.473 147.536 296.39 147.661C296.238 148.006 295.781 148.94 295.223 148.646L295.233 148.686ZM295.152 150.219C295.231 149.793 295.231 149.356 295.152 148.93C295.588 149.143 295.954 148.859 296.167 148.514C296.24 148.674 296.298 148.84 296.34 149.011C296.359 149.121 296.343 149.234 296.294 149.335C296.244 149.435 296.164 149.517 296.066 149.569C295.802 149.752 295.467 149.955 295.142 150.178L295.152 150.219Z" fill="#34323D"/>
<path d="M279.013 156.806C279.013 156.806 284.89 157.09 286.423 155.68C287.955 154.269 290.158 149.843 290.158 149.843C290.158 149.843 294.218 152.442 294.411 153.903C294.604 155.365 290.178 162.642 288.209 163.13" fill="#E55600"/>
<path d="M270.102 229.257C270.102 229.257 275.065 227.044 276.263 226.963C277.46 226.882 279.46 227.288 277.714 229.48C277.714 229.48 272.487 232.901 271.797 233.002C271.107 233.104 269.432 232.586 269.391 232.769C269.351 232.951 269.188 234.271 269.188 234.271C269.188 234.271 264.824 235.936 264.631 233.012C264.631 232.627 265.26 227.207 265.26 227.207" fill="#E55600"/>
<path d="M264.397 216.458C265.26 210.845 266.843 205.404 267.503 199.72C267.919 196.148 268.214 192.555 268.65 188.982C269.086 185.409 270.426 181.948 271.279 178.416C271.302 178.334 271.298 178.247 271.267 178.168C271.235 178.089 271.179 178.023 271.106 177.979L271.228 177.604C271.665 177.187 272.121 176.781 272.558 176.406L278.648 180.517C278.648 180.517 278.648 184.252 278.424 189.652C277.714 192.808 277.176 195.63 276.394 198.624C276.482 198.718 276.546 198.831 276.58 198.955C276.613 199.079 276.616 199.21 276.587 199.335C274.601 208.765 273.154 218.302 272.253 227.897C272.241 228.056 272.182 228.207 272.085 228.333C271.987 228.46 271.856 228.555 271.705 228.607L271.533 230.089C266.224 232.119 265.057 228.567 265.057 228.567C265.057 228.567 264.813 225.522 264.519 221.299C264.387 219.706 264.367 218.082 264.397 216.458Z" fill="#34323D"/>
<path d="M309.352 159.181C309.037 159.364 308.692 159.577 308.337 159.851C308.86 159.18 309.323 158.464 309.717 157.71C310.113 157.05 309.128 156.512 308.702 156.999C307.347 158.455 305.888 159.812 304.338 161.059C304.267 161.114 304.208 161.183 304.165 161.262H303.211H302.399H302.176C302.08 161.241 301.98 161.245 301.886 161.274C301.791 161.302 301.706 161.354 301.638 161.424C301.514 161.466 301.395 161.52 301.282 161.587L301.181 161.668L300.247 161.77C300.136 161.783 300.029 161.824 299.937 161.889C299.845 161.953 299.771 162.04 299.72 162.141C299.67 162.241 299.646 162.353 299.649 162.465C299.652 162.577 299.683 162.687 299.74 162.785L299.608 162.713C298.897 162.277 298.339 163.444 299.039 163.871C300.527 164.782 302.238 165.264 303.982 165.261C304.061 165.321 304.154 165.36 304.252 165.372C304.35 165.385 304.45 165.371 304.541 165.332L304.835 165.22C306.318 165.146 307.78 164.842 309.169 164.317C309.539 164.171 309.929 164.082 310.326 164.053C309.981 162.429 309.656 160.805 309.352 159.181Z" fill="#FCBF81"/>
<path d="M280.962 237.428L283.916 238.443C284.002 238.711 284.157 238.953 284.366 239.143C284.574 239.334 284.828 239.466 285.103 239.529C285.208 239.656 285.356 239.739 285.519 239.762C286.718 239.848 287.921 239.654 289.031 239.194C290.442 238.747 295.964 236.636 294.431 240.605C293.416 241.315 292.3 241.924 291.264 242.553C290.686 242.909 290.107 243.254 289.508 243.568C289.198 243.781 288.855 243.942 288.493 244.045C287.702 244.167 285.773 243.568 285.722 243.771C285.672 243.974 285.499 245.497 285.499 245.497C285.499 245.497 280.475 247.415 280.262 244.056C280.211 243.66 280.962 237.428 280.962 237.428Z" fill="#E55600"/>
<path d="M276.821 207.231C276.202 197.305 275.867 187.317 273.776 177.563C273.685 175.025 272.04 176.649 272.152 175.645C273.045 167.525 284.941 177.198 284.941 177.198C285.418 177.593 285.479 180.09 285.58 180.659C286.115 183.792 286.575 186.938 286.961 190.098C288.93 206.044 288.199 221.898 287.397 237.895C284.87 240.473 283.215 241.244 279.145 239.579C278.333 229.115 277.562 218.64 276.892 208.165L276.821 207.231Z" fill="#34323D"/>
<path d="M283.185 157.892C283.073 157.375 281.734 157.029 281.338 156.816C280.414 156.319 280.952 155.446 280.049 154.908C278.747 154.133 277.39 153.455 275.989 152.878C273.735 152.878 269.949 152.756 269.726 155.771C269.507 160.406 269.646 165.052 270.142 169.666C270.284 171.524 270.447 173.371 270.609 175.178C270.67 175.837 270.751 181.197 271.147 181.359C275.623 183.216 281.348 182.557 285.743 180.821C285.484 173.123 284.629 165.458 283.185 157.892Z" fill="#E55600"/>
<path d="M279.125 162.582C279.26 164.126 279.866 165.591 280.861 166.78C281.855 167.969 283.191 168.824 284.687 169.23C284.687 169.534 284.778 171.422 284.809 171.727C281.236 170.864 278.597 166.378 278.222 162.592C278.201 162.003 279.125 162.003 279.125 162.582Z" fill="#34323D"/>
<path d="M276.973 143.52C277.267 143.601 279.774 149.346 278.79 152.848C277.805 156.349 271.868 152.746 270.376 150.087C268.884 147.428 271.35 142.068 276.973 143.52Z" fill="#FCBF81"/>
<path d="M276.892 144.322C276.889 144.858 276.73 145.381 276.434 145.828C276.139 146.275 275.719 146.626 275.227 146.839C273.563 147.448 272.182 147.854 272.274 148.635C272.365 149.417 275.319 148.524 275.319 150.29C275.319 151.477 275.159 152.658 274.842 153.802C274.659 154.665 269.675 152.026 268.031 147.509C266.387 142.992 270.508 141.805 270.701 141.774C271.315 140.899 272.241 140.292 273.289 140.079C275.319 139.643 275.877 140.424 275.877 140.424C276.335 140.148 276.87 140.029 277.402 140.086C277.933 140.142 278.432 140.372 278.821 140.739C279.234 141.076 279.554 141.514 279.749 142.011C279.945 142.508 280.009 143.046 279.937 143.575C279.865 144.103 279.658 144.605 279.336 145.031C279.014 145.456 278.589 145.793 278.1 146.007L276.892 144.322Z" fill="#34323D"/>
<path d="M279.125 154.401C279.125 154.401 289.387 160.288 293.091 160.288C296.677 160.074 300.244 159.623 303.769 158.938C306.317 161.1 306.479 164.865 304.906 167.758C300.42 168.489 287.143 170.397 282.972 168.337C277.897 165.84 272.385 162.49 272.385 162.49C272.385 162.49 267.402 157.567 279.125 154.401Z" fill="#E55600"/>
<path d="M308.306 159.841C308.306 159.841 309.849 158.572 310.235 158.826C311.022 159.889 311.446 161.178 311.443 162.5C311.311 163.769 310.661 164.845 307.504 164.815" fill="#FCBF81"/>
<path d="M170.398 183.673H168.297C167.17 183.673 166.257 184.587 166.257 185.713V222.639C166.257 223.766 167.17 224.679 168.297 224.679H170.398C171.525 224.679 172.438 223.766 172.438 222.639V185.713C172.438 184.587 171.525 183.673 170.398 183.673Z" fill="#BC532A"/>
<path d="M184.629 192.067C183.197 185.876 176.864 158.572 165.638 166.631C159.883 170.691 158.259 177.157 155.955 183.43C154.047 188.626 152.463 194.097 152.382 199.67C152.199 211.017 163.74 212.398 172.57 212.357C177.645 212.357 184.923 209.312 186.11 203.801C186.831 200.471 185.603 196.533 184.892 193.265C184.784 192.866 184.696 192.467 184.629 192.067Z" fill="#2C9135"/>
<path d="M185.167 193.265C185.079 192.866 184.987 192.463 184.893 192.057C183.634 186.586 178.529 164.652 169.597 165.17C172.246 176.741 176.154 188.972 174.073 200.817C173.408 204.953 171.792 208.879 169.353 212.286C170.541 212.347 171.708 212.367 172.834 212.357C177.909 212.357 185.187 209.312 186.375 203.801C187.095 200.471 185.877 196.533 185.167 193.265Z" fill="#156819"/>
<path d="M167.719 77.281H165.983C165.008 77.281 164.217 78.0717 164.217 79.0471V110.451C164.217 111.427 165.008 112.217 165.983 112.217H167.719C168.694 112.217 169.485 111.427 169.485 110.451V79.0471C169.485 78.0717 168.694 77.281 167.719 77.281Z" fill="#BC532A"/>
<path d="M179.868 84.4265C178.65 79.1587 173.26 55.9253 163.689 62.7563C158.786 66.258 157.406 71.7187 155.447 77.0678C153.668 81.4772 152.638 86.1532 152.402 90.9022C152.25 100.565 162.075 101.753 169.606 101.712C173.94 101.712 180.132 99.1339 181.147 94.4243C181.756 91.5823 180.721 88.2328 180.132 85.4517L179.868 84.4265Z" fill="#2C9135"/>
<path d="M180.325 85.4517L180.091 84.4367C179.015 79.7778 174.671 61.0917 167.069 61.5282C169.332 71.3838 172.661 81.8282 170.885 91.897C170.306 95.4222 168.916 98.7647 166.825 101.661C167.84 101.661 168.855 101.722 169.789 101.722C174.123 101.722 180.315 99.1441 181.33 94.4345C181.969 91.5823 180.934 88.2328 180.325 85.4517Z" fill="#156819"/>
<path style="mix-blend-mode:multiply" opacity="0.63" d="M254.369 245.974C253.715 247.316 253.418 248.804 253.509 250.295C253.6 251.785 254.074 253.227 254.887 254.48C256.631 257.402 259.398 259.572 262.652 260.57L294.117 240.909C293.457 241.325 285.205 236.057 284.22 235.55C281.48 234.129 275.288 229.338 272.203 230.018C267.128 231.135 261.677 237.245 258.135 240.787C256.575 242.273 255.299 244.031 254.369 245.974Z" fill="url(#paint3_linear_147_1578)"/>
<defs>
<linearGradient id="paint0_linear_147_1578" x1="301.79" y1="218.072" x2="311.788" y2="194.381" gradientUnits="userSpaceOnUse">
<stop stop-color="white" stop-opacity="0"/>
<stop offset="0.98" stop-color="#E9A900"/>
</linearGradient>
<linearGradient id="paint1_linear_147_1578" x1="6847.55" y1="8926.39" x2="7103.57" y2="7678.33" gradientUnits="userSpaceOnUse">
<stop stop-color="white" stop-opacity="0"/>
<stop offset="0.98" stop-color="#E9A900"/>
</linearGradient>
<linearGradient id="paint2_linear_147_1578" x1="17933.4" y1="10231.5" x2="18316" y2="8372.89" gradientUnits="userSpaceOnUse">
<stop stop-color="white" stop-opacity="0"/>
<stop offset="0.98" stop-color="#E9A900"/>
</linearGradient>
<linearGradient id="paint3_linear_147_1578" x1="10928.1" y1="8088.16" x2="11173.5" y2="7316.74" gradientUnits="userSpaceOnUse">
<stop stop-color="white" stop-opacity="0"/>
<stop offset="0.98" stop-color="#E9A900"/>
</linearGradient>
</defs>
</svg>
