<svg width="80" height="80" viewBox="0 0 80 80" fill="none" xmlns="http://www.w3.org/2000/svg">
<circle cx="40" cy="40" r="40" fill="#F1F1F1"/>
<path d="M57.3174 22.6839C55.0082 20.3748 51.6978 19.4795 48.4655 20.2967C44.5512 21.2824 41.8179 24.8807 41.664 29.2515C41.6481 29.7059 41.5038 30.1845 41.2751 30.6681C36.6774 27.0449 32.1773 24.9764 29.1412 25.0012C27.8812 25.0362 26.8735 25.422 26.1458 26.1496C25.4182 26.8773 25.0323 27.8849 24.9973 29.1457C24.9304 31.6631 26.2942 35.0425 28.6804 38.6182C26.594 39.0301 24.6683 40.008 23.1683 41.5085C18.9439 45.7327 18.9439 52.6071 23.1683 56.8314C25.2806 58.9435 28.0554 60 30.8302 60C33.605 60 36.3798 58.9435 38.492 56.8314C39.9933 55.3295 40.9715 53.4031 41.3829 51.3163C44.8731 53.6451 48.1769 55.0042 50.673 55.0042C50.7348 55.0042 50.7958 55.0034 50.8569 55.0017C52.1169 54.9684 53.1247 54.5817 53.8515 53.8549C54.5791 53.1273 54.9658 52.1196 54.9991 50.8605C55.0809 47.8144 52.9639 43.3238 49.3334 38.7252C49.8168 38.4967 50.2952 38.3525 50.7494 38.3367C55.1196 38.1828 58.719 35.4496 59.7047 31.5347C60.5187 28.3017 59.6266 24.9931 57.3174 22.6839ZM37.3153 55.6486C33.7411 59.2228 27.9256 59.2228 24.3514 55.6486C20.7772 52.0744 20.7772 46.2589 24.3514 42.6847C25.7924 41.2437 27.6935 40.337 29.7433 40.1026C30.13 40.6276 30.5283 41.1512 30.9553 41.6787C26.7986 41.5602 23.3326 44.9935 23.3333 49.1666C23.3333 53.3024 26.6976 56.6666 30.8333 56.6666C34.969 56.6666 38.3333 53.3023 38.3333 49.1666C38.3333 49.1273 38.3229 49.0864 38.3222 49.047C38.8494 49.4738 39.3727 49.8703 39.8974 50.2567C39.663 52.3067 38.7562 54.2069 37.3153 55.6486ZM36.364 47.3845C36.5674 47.9989 36.6667 48.584 36.6667 49.1667C36.6667 52.3829 34.0495 55.0001 30.8333 55.0001C27.6172 55 25.0001 52.3828 25.0001 49.1667C25.0001 45.9505 27.6172 43.3333 30.8334 43.3333C31.4161 43.3333 32.0012 43.4326 32.6157 43.636C33.1959 44.2813 33.8006 44.9251 34.4378 45.5623C34.4378 45.5623 34.4378 45.5623 34.4378 45.5631C35.0749 46.1988 35.7187 46.8042 36.364 47.3845ZM53.3309 50.8122C53.3097 51.6309 53.0876 52.2559 52.6709 52.6717C52.2558 53.0876 51.6308 53.3098 50.8114 53.331C48.427 53.4115 44.9407 51.8385 41.2805 49.2078C41.2701 49.1996 41.2665 49.1859 41.2557 49.1781C40.3251 48.5113 39.4169 47.7937 38.528 47.0455C38.4298 46.962 38.3318 46.8831 38.2338 46.7984C37.3357 46.0293 36.4587 45.2264 35.616 44.384C34.7721 43.5397 33.9669 42.6603 33.1955 41.7592C33.1169 41.668 33.0433 41.577 32.9658 41.4857C32.2138 40.5929 31.4929 39.6798 30.8219 38.7443C30.8145 38.7341 30.8013 38.7308 30.7935 38.721C28.1705 35.0692 26.6038 31.591 26.6683 29.1903C26.6902 28.3708 26.9124 27.7442 27.3283 27.3284C27.7441 26.9125 28.3708 26.6903 29.1894 26.6684C31.8614 26.5688 36.0941 28.6659 40.3835 32.0819C39.6979 32.9642 38.8269 33.8013 37.985 34.4695C37.0833 35.1864 36.7969 36.4649 37.3038 37.5099C37.7229 38.3725 38.4285 39.607 39.4108 40.5893C40.393 41.5716 41.6276 42.2771 42.4902 42.6963C42.8369 42.8647 43.2096 42.9453 43.5783 42.9453C44.3221 42.9453 45.0512 42.6181 45.5306 42.0152C46.1987 41.1734 47.0358 40.3025 47.9179 39.617C51.3325 43.908 53.4033 48.1535 53.3309 50.8122ZM58.086 31.1271C57.2836 34.3148 54.3108 36.5422 50.6901 36.6699C47.7848 36.7717 45.0073 39.9935 44.2253 40.9782C43.9909 41.2745 43.5669 41.3672 43.2178 41.1971C42.4707 40.8342 41.4079 40.2295 40.5892 39.4108C39.7705 38.5921 39.1658 37.5293 38.8029 36.7822C38.6336 36.4331 38.7255 36.0099 39.0218 35.7747C40.0065 34.9927 43.2283 32.2151 43.3301 29.3099C43.4578 25.6885 45.6852 22.7164 48.8721 21.914C49.5223 21.7504 50.1758 21.6699 50.8195 21.6699C52.8093 21.6699 54.7087 22.4356 56.1369 23.8631C58.0266 25.7536 58.7558 28.4692 58.086 31.1271Z" fill="black"/>
</svg>
