<svg width="80" height="80" viewBox="0 0 80 80" fill="none" xmlns="http://www.w3.org/2000/svg">
<circle cx="40" cy="40" r="40" fill="#EDEDED"/>
<g clip-path="url(#clip0_165_7)">
<path d="M24.7701 43.8933H55.2088C55.7199 43.8933 56.1888 44.1049 56.5267 44.4434C56.8646 44.7862 57.0758 45.2517 57.0758 45.7638V46.1954C57.8615 46.1954 58.7063 46.1277 59.0443 45.641L59.0485 45.6368C59.2005 45.4168 58.964 45.0613 58.6218 44.7143C58.0685 44.1472 57.249 43.6352 56.759 43.3347C56.7252 43.3136 56.6914 43.2882 56.6576 43.2628L39.9641 29.8184L22.2906 43.961C22.2694 43.9779 22.2441 43.9949 22.2187 44.0118C21.4964 44.5323 21.0825 44.9766 20.9262 45.3406C20.8755 45.4506 20.8628 45.531 20.8839 45.5818C20.9093 45.6537 20.9938 45.7299 21.1289 45.8103C21.5091 46.0346 22.1174 46.17 22.8988 46.1912V45.768C22.8988 45.2517 23.11 44.782 23.448 44.4434C23.7901 44.1049 24.2548 43.8933 24.7701 43.8933ZM57.0801 48.0785V64.1296C57.0801 64.6417 56.8688 65.1114 56.5309 65.45C56.1888 65.7885 55.7241 66.0001 55.213 66.0001H24.7701C24.259 66.0001 23.7901 65.7885 23.4522 65.45L23.448 65.4457C23.11 65.1072 22.8988 64.6375 22.8988 64.1254V48.0743C21.7794 48.0447 20.8417 47.8162 20.1827 47.4268C19.6716 47.1264 19.3126 46.7286 19.1267 46.2419C18.9366 45.7341 18.9493 45.1798 19.207 44.5873C19.4942 43.9272 20.1109 43.2162 21.1247 42.4841L39.0348 28.1554V24.8842C39.0348 24.4145 39.3854 24.0082 39.8627 23.949C42.1564 23.6697 43.394 22.5186 43.7996 21.1729C43.977 20.5932 44.0065 19.9711 43.9052 19.3575C43.8038 18.7439 43.5715 18.1472 43.2251 17.6267C42.4098 16.4037 40.9483 15.5997 39.0644 15.9679C38.2787 16.1202 37.5352 16.5772 36.9608 17.2839C36.399 17.9779 35.9935 18.9089 35.8498 20.0431C35.7865 20.5551 35.3176 20.919 34.8023 20.8556C34.2912 20.7921 33.9279 20.3223 33.9913 19.8061C34.1813 18.3038 34.7347 17.047 35.5035 16.0948C36.361 15.0369 37.4888 14.3513 38.7011 14.1143C41.4341 13.5811 43.5757 14.7703 44.7795 16.573C45.278 17.3178 45.6075 18.1684 45.7511 19.0486C45.8947 19.9288 45.8482 20.8429 45.5863 21.7061C45.033 23.53 43.5461 25.1042 40.9061 25.6671V28.1596L57.777 41.7436C58.3473 42.0906 59.2639 42.6746 59.9566 43.3855C60.8817 44.3377 61.4013 45.4802 60.5818 46.6821C59.7328 47.9516 58.3093 48.0743 57.0801 48.0785ZM55.4073 47.2491C55.4031 47.211 55.3989 47.1729 55.3989 47.1348C55.3989 47.0968 55.4031 47.0587 55.4073 47.0206V45.768C55.4073 45.713 55.3862 45.6622 55.3524 45.6283L55.3482 45.6241C55.3144 45.5903 55.2637 45.5691 55.2088 45.5691H24.7701C24.7152 45.5691 24.6645 45.5903 24.6307 45.6283C24.5927 45.6664 24.5716 45.713 24.5716 45.768V55.2218H55.4073V47.2491ZM24.5716 59.8936H55.4073V56.8975H24.5716V59.8936ZM55.4073 61.5694H24.5716V64.1296C24.5716 64.1847 24.5927 64.2354 24.6307 64.2735C24.6687 64.3074 24.7152 64.3328 24.7743 64.3328H55.213C55.2679 64.3328 55.3186 64.3116 55.3524 64.2778L55.3566 64.2735C55.3904 64.2397 55.4115 64.1889 55.4115 64.1339V61.5694H55.4073Z" fill="black"/>
</g>
<defs>
<clipPath id="clip0_165_7">
<rect width="42" height="52" fill="white" transform="translate(19 14)"/>
</clipPath>
</defs>
</svg>
