<svg width="80" height="80" viewBox="0 0 80 80" fill="none" xmlns="http://www.w3.org/2000/svg">
<circle cx="40" cy="40" r="40" fill="#EDEDED"/>
<g clip-path="url(#clip0_164_4)">
<path fill-rule="evenodd" clip-rule="evenodd" d="M27.7359 25.6099L30.4514 24.0571L30.5425 24.0132L29.7479 21.9771C29.5657 21.2446 29.7479 20.9187 30.2327 20.6294L32.088 19.7578C32.3862 19.6383 32.7101 19.5979 33.0284 19.6406C33.3345 19.7322 33.6626 19.842 34.0344 19.9556C34.276 20.0115 34.5081 20.1028 34.7233 20.2266C34.9246 20.3426 35.0938 20.5076 35.2153 20.7063L35.5142 21.5522C35.8529 22.4268 36.1437 23.3192 36.3854 24.2256L35.9443 19.6589C35.8801 19.4607 35.8808 19.247 35.9465 19.0493C36.0121 18.8515 36.1391 18.6801 36.3088 18.5603L39.6695 18L41.492 18.9485C41.6283 19.0646 41.7375 19.2094 41.8118 19.3727C41.8862 19.536 41.9238 19.7138 41.9221 19.8933L42.4141 26.0566L43.7956 22.1785C43.9549 21.9166 44.1921 21.7117 44.4735 21.5925C44.96 21.3324 45.4902 21.1648 46.0372 21.0981L46.6824 21.1311L48.5851 21.9954C48.835 22.1095 49.0386 22.3062 49.1619 22.5527C49.2853 22.7992 49.3209 23.0807 49.263 23.3503L48.4466 25.4634L48.545 25.511L51.2532 27.0674C51.4286 27.1913 51.5733 27.3542 51.676 27.5435C52.2373 26.4924 52.7914 25.5073 53.3126 24.6138C53.41 24.4598 53.5565 24.3436 53.7281 24.2842C54.1148 24.1473 54.528 24.1028 54.9348 24.1543C55.3417 24.2058 55.731 24.3518 56.0718 24.5808L57.4897 25.5586C57.9052 25.8809 58.1786 26.291 57.8542 26.855C57.7084 27.0967 57.5334 27.3164 57.3876 27.5471C56.0353 29.5693 54.8829 31.7194 53.9468 33.9668C54.0494 33.9746 54.1496 34.002 54.242 34.0474C55.197 34.4941 54.1691 39.2805 54.0525 40.4011C53.2579 48.1428 52.0915 59.5173 47.6337 61.429C45.2703 62.4461 42.729 62.9802 40.1579 63C37.424 62.9984 34.711 62.5214 32.139 61.5901C27.2438 59.8762 25.6655 47.6118 24.645 39.7529C24.4955 38.614 23.3218 34.3147 24.645 34.0657C24.765 34.0386 24.8895 34.0386 25.0095 34.0657C24.3971 31.2898 23.5515 29.1255 21.5978 26.0713C21.4483 25.8406 21.277 25.6172 21.1276 25.3755C20.7886 24.8188 21.0583 24.405 21.4921 24.0791L22.9209 23.127C23.2618 22.898 23.651 22.7519 24.0579 22.7005C24.4647 22.649 24.8779 22.6934 25.2646 22.8303C25.4359 22.8886 25.5816 23.0052 25.6765 23.1599C26.2123 24.0828 26.7481 25.1118 27.273 26.2104C27.3654 25.972 27.5266 25.7667 27.7359 25.6208V25.6099ZM56.1885 26.4229L54.3113 25.1814C51.1074 30.1765 48.4065 35.3071 47.3859 41.4705C48.7855 41.1262 49.6057 39.9836 50.8413 38.376C51.5302 33.6738 53.1413 30.8687 56.1885 26.4229ZM37.0378 42.1882C35.7111 35.5781 34.6686 28.21 32.0479 21.8123L34.4864 20.8638L36.9613 30.1362L37.0378 42.1882ZM28.7455 26.6719L31.2059 25.1667C34.4135 30.1619 35.4195 37.0137 36.8009 43.5579C35.4145 43.0563 34.1435 42.2777 33.0648 41.269C32.0953 36.1824 31.749 32.4507 28.7455 26.6719ZM22.8225 24.958L24.7033 23.7129C28.0027 28.782 30.2171 34.485 31.2059 40.4597L27.9655 37.4348C26.4674 31.6011 25.8587 29.4111 22.8225 24.958ZM42.5782 28.1221L44.5756 22.292L46.9886 23.3833C45.4395 27.1223 44.284 31.1396 43.165 35.1899L42.5672 28.1331L42.5782 28.1221ZM50.2617 28.1221L47.7905 26.6169C44.5865 31.6121 43.4712 37.53 42.0897 44.0742L45.4103 43.166C46.3689 38.083 47.2437 33.9045 50.2508 28.1257L50.2617 28.1221ZM52.4852 39.2842L52.456 39.4563L51.9129 39.8005C50.9027 41.1656 49.6979 42.3736 48.3372 43.3857C46.3434 44.8701 43.962 45.7381 41.4847 45.8833C38.9968 45.9884 36.5223 45.4672 34.2859 44.3672C31.4355 43.0232 28.6544 40.8296 26.1029 37.9036L26.318 39.5405C27.2766 46.9929 28.7747 58.6201 32.6967 59.9934C35.0838 60.8592 37.6018 61.304 40.1397 61.3081C42.488 61.2896 44.809 60.8003 46.9667 59.8689C50.5242 58.3491 51.6177 47.5679 52.3795 40.229L52.4742 39.2878L52.4852 39.2842ZM41.3535 44.1951C41.6487 42.5764 42.0241 40.8003 42.4688 38.9839V38.9583L42.5308 38.7385C42.5308 32.3884 42.1663 24.3245 41.1275 19.6406L38.0293 20.1387C39.356 27.6643 39.5273 36.6511 39.0025 44.0779C39.7625 44.3225 40.5731 44.3629 41.3535 44.1951ZM32.704 41.5437C31.9349 37.1968 30.4769 31.8318 28.0494 27.8877C29.901 32.1211 31.5194 37.0906 32.2447 41.2178L32.704 41.5291V41.5437Z" fill="black"/>
</g>
<defs>
<clipPath id="clip0_164_4">
<rect width="37" height="45" fill="white" transform="translate(21 18)"/>
</clipPath>
</defs>
</svg>
