<svg width="80" height="80" viewBox="0 0 80 80" fill="none" xmlns="http://www.w3.org/2000/svg">
<circle cx="40" cy="40" r="40" fill="#F1F1F1"/>
<path d="M49.2268 43.3774C49.348 43.4073 49.4661 43.4487 49.5798 43.5011L48.9883 37.7113C48.9794 37.6149 49.0076 37.5187 49.067 37.4433C49.1264 37.3679 49.2123 37.3192 49.3063 37.3078C49.3529 37.3028 49.4 37.3073 49.4448 37.321C49.4897 37.3347 49.5315 37.3573 49.5678 37.3875C49.6042 37.4177 49.6343 37.455 49.6565 37.4971C49.6788 37.5393 49.6927 37.5855 49.6975 37.6332L50.3589 44.0771C50.7306 44.4984 50.9367 45.0456 50.9376 45.6132V49.3624H56.6616L58.0608 32.5074H47.4906L48.0471 38.8211C48.4464 39.3177 48.782 39.8645 49.0456 40.4484C49.1047 40.4893 49.1523 40.5454 49.1836 40.6111C49.2148 40.6768 49.2286 40.7497 49.2236 40.8226V43.3839L49.2268 43.3774ZM30.6431 47.6082C36.4497 49.3429 41.773 49.2355 46.6892 47.6082V54.4427C41.9193 56.3693 36.666 56.6492 30.6431 54.4427V47.6082V47.6082ZM44.6731 36.9335C42.7966 35.7259 40.7145 34.8912 38.5358 34.4731C38.2814 37.3761 37.1621 39.1563 35.4353 40.1847C33.8708 41.1058 31.8579 41.3987 29.5429 41.3433C29.6829 41.4283 29.8272 41.5054 29.9753 41.5744C31.7148 42.3945 35.006 42.8567 38.3577 42.9022C41.7094 42.9478 45.0992 42.5768 47.0326 41.7567C47.5359 41.5836 47.9827 41.2717 48.3237 40.8552C47.6877 39.319 46.2949 37.9847 44.6731 36.9498V36.9335ZM48.4096 44.0413C48.47 43.7875 48.4096 42.2741 48.4096 41.9291C48.0796 42.1705 47.7231 42.3715 47.3475 42.528C45.3123 43.4002 41.8016 43.7842 38.3482 43.7354C34.8947 43.6866 31.4763 43.1984 29.6319 42.3327C29.3828 42.2184 29.1444 42.0811 28.9196 41.9226V44.1357C30.2615 45.3952 34.3255 46.0656 38.4595 46.0884C42.5934 46.1112 46.8132 45.4733 48.4128 44.1357V44.0576L48.4096 44.0413ZM28.1055 44.178C27.8651 44.2399 27.6454 44.3669 27.4695 44.5458C27.3438 44.6736 27.2442 44.8257 27.1765 44.9934C27.1088 45.161 27.0744 45.3407 27.0752 45.5221V55.7803L27.2533 55.9039C30.0421 57.7655 35.3113 58.3546 40.1353 58.1463C44.8703 57.9413 49.1251 56.9975 50.114 55.7575V45.6132C50.1137 45.4202 50.0762 45.2292 50.0036 45.051C49.931 44.8729 49.8248 44.7111 49.6911 44.575C49.5575 44.4364 49.3987 44.3259 49.2236 44.2496V44.3017C49.2233 44.3644 49.2091 44.4263 49.1821 44.4826C49.1551 44.539 49.1161 44.5884 49.0678 44.6271C47.4015 46.1893 42.8796 46.928 38.4531 46.9053C34.0266 46.8825 29.5969 46.0949 28.22 44.5946C28.1504 44.5175 28.1118 44.4164 28.1119 44.3114V44.3114V44.1845L28.1055 44.178ZM35.2604 39.2963C34.0952 39.3602 32.9381 39.5334 31.8038 39.8137C31.1161 39.9818 30.4446 40.2127 29.7973 40.5037C31.8642 40.533 33.6609 40.2596 35.0124 39.4525C35.0972 39.4026 35.1799 39.3505 35.2604 39.2963V39.2963ZM50.9376 50.4136V52.0409C52.7852 52.171 55.8125 52.1352 56.2068 51.7577C56.4142 51.5261 56.5328 51.2256 56.5407 50.9115L56.5853 50.4136H50.9376ZM50.8104 56.1968C49.742 57.6484 45.1883 58.7451 40.1862 58.9599C35.1841 59.1747 29.7686 58.5466 26.8304 56.5841C26.6968 56.493 26.5696 56.4019 26.4424 56.3075C26.405 56.2774 26.3727 56.2411 26.347 56.2001H22.4675C22.3448 56.1993 22.2273 56.1495 22.14 56.0614C22.0527 55.9732 22.0025 55.8537 22 55.7282V41.7143C22 41.5875 22.0492 41.4658 22.1369 41.3761C22.2246 41.2863 22.3435 41.2359 22.4675 41.2359H23.1766V33.1876C23.1774 33.0673 23.2247 32.9522 23.3081 32.8675C23.3915 32.7828 23.5043 32.7352 23.6218 32.7352H24.4676V24.6185C26.0576 24.8756 27.5331 25.7543 28.8719 27.7103V32.7352H29.5588C29.676 32.7352 29.7884 32.7829 29.8713 32.8677C29.9542 32.9525 30.0008 33.0676 30.0008 33.1876V39.5208C30.5251 39.3154 31.0614 39.1437 31.6067 39.0066C33.1128 38.6359 34.6558 38.4447 36.2049 38.4371H36.2303C37.0953 37.4314 37.6327 35.9897 37.744 33.9654C37.7464 33.9108 37.7594 33.8573 37.7822 33.8078C37.805 33.7584 37.8371 33.7141 37.8768 33.6775C37.9164 33.6409 37.9627 33.6127 38.0131 33.5945C38.0634 33.5763 38.1168 33.5685 38.1701 33.5716H38.2242C38.9151 33.6696 39.5984 33.8175 40.2689 34.0142V28.6638C40.2672 28.6498 40.2672 28.6356 40.2689 28.6215L37.3401 21.4616C37.3069 21.3961 37.2979 21.3205 37.3148 21.2487C37.3318 21.1769 37.3735 21.1138 37.4323 21.0711C40.8444 18.5033 43.1563 18.1225 46.4475 21.0711C46.4996 21.118 46.534 21.182 46.5451 21.252C46.5561 21.3221 46.543 21.3939 46.508 21.4551L43.8686 28.7419V35.4983C44.2883 35.7228 44.7017 35.9669 45.1024 36.224C45.8727 36.7175 46.5919 37.29 47.2489 37.9326L46.7592 32.3609C46.7097 32.297 46.6828 32.2179 46.6829 32.1364C46.6834 32.0764 46.6975 32.0173 46.7242 31.9639L46.5557 30.0437C46.5467 29.9477 46.5751 29.8518 46.6346 29.7769C46.6941 29.7021 46.7799 29.6541 46.8737 29.6434H58.6395C58.7348 29.6434 58.8262 29.6822 58.8936 29.7511C58.961 29.8201 58.9988 29.9137 58.9988 30.0112C59.0004 30.0285 59.0004 30.0459 58.9988 30.0633L58.8335 32.0518C58.8368 32.0799 58.8368 32.1083 58.8335 32.1364C58.8335 32.1856 58.8238 32.2343 58.8049 32.2796L57.253 50.9636C57.2546 50.9722 57.2546 50.9811 57.253 50.9897C57.2256 51.479 57.0256 51.9416 56.6902 52.2915C56.5087 52.4611 56.2909 52.5849 56.0542 52.6527V55.5557C56.0546 55.6387 56.0389 55.721 56.0081 55.7978C55.9772 55.8746 55.9318 55.9444 55.8744 56.0031C55.8171 56.0618 55.7489 56.1083 55.6739 56.1399C55.5988 56.1715 55.5184 56.1875 55.4373 56.1871H50.8009L50.8104 56.1968ZM28.1151 41.2262V40.8226C28.1152 40.7547 28.1315 40.6878 28.1626 40.6277C28.1936 40.5676 28.2384 40.5161 28.2931 40.4776C28.5531 40.2704 28.8321 40.0894 29.1263 39.9374V33.6367H24.0606V41.2359H28.1055L28.1151 41.2262ZM40.8667 34.2127C41.6885 34.4828 42.4917 34.809 43.2708 35.1891V34.0565H40.8667V34.2127ZM40.8667 33.4447H43.2708V29.1553H40.8667V33.4447ZM48.7117 34.1672C48.7025 34.1188 48.7029 34.069 48.7129 34.0208C48.7229 33.9726 48.7422 33.927 48.7698 33.8866C48.7974 33.8462 48.8326 33.8119 48.8734 33.7857C48.9141 33.7595 48.9596 33.7419 49.0072 33.7341C49.0547 33.7262 49.1033 33.7282 49.15 33.74C49.1968 33.7517 49.2408 33.7729 49.2793 33.8024C49.3179 33.8319 49.3503 33.869 49.3746 33.9115C49.3989 33.954 49.4146 34.0011 49.4208 34.05L49.6307 35.4169C49.6426 35.5116 49.6181 35.6074 49.5623 35.684C49.5065 35.7605 49.4237 35.8118 49.3316 35.8271C49.2394 35.8423 49.1451 35.8202 49.0686 35.7655C48.9921 35.7109 48.9393 35.6278 48.9215 35.5341L48.7117 34.1672ZM57.0527 30.3855V31.7751H58.1212L58.2356 30.3855H57.0527ZM56.3436 31.7751V30.3822H55.1193V31.7751H56.3436ZM54.4038 31.7751V30.3822H53.1859V31.7751H54.4038ZM52.4672 31.7751V30.3822H51.2556V31.7751H52.4672ZM50.5274 31.7751V30.3822H49.3095V31.7751H50.5274ZM48.5877 31.7751V30.3822H47.3029L47.4397 31.7751H48.5877Z" fill="black"/>
</svg>
