<svg width="41" height="36" viewBox="0 0 41 36" fill="none" xmlns="http://www.w3.org/2000/svg">
<g clip-path="url(#clip0_230_6)">
<path fill-rule="evenodd" clip-rule="evenodd" d="M17.07 31.1745C21.4075 35.3282 27.5035 36.5853 33.6161 33.988L38.7444 35.9834L37.0361 31.9693C42.735 27.4199 41.7073 21.1677 37.5166 16.9042C37.2367 18.527 36.6864 20.0917 35.8883 21.5335C34.7126 23.6263 33.1086 25.4494 31.1804 26.8844C29.2018 28.3742 26.9726 29.5004 24.5973 30.2101C22.1568 30.9345 19.6151 31.2624 17.07 31.1812V31.1745ZM24.9376 12.0155C25.3785 12.0155 25.8094 12.1458 26.1759 12.3899C26.5424 12.634 26.8281 12.981 26.9968 13.3869C27.1655 13.7928 27.2097 14.2395 27.1237 14.6704C27.0377 15.1014 26.8254 15.4972 26.5137 15.8079C26.202 16.1186 25.8048 16.3302 25.3725 16.4159C24.9401 16.5016 24.492 16.4576 24.0847 16.2895C23.6774 16.1213 23.3293 15.8366 23.0844 15.4713C22.8395 15.1059 22.7088 14.6764 22.7088 14.237C22.7088 13.6479 22.9436 13.0828 23.3616 12.6662C23.7796 12.2496 24.3465 12.0155 24.9376 12.0155ZM10.2066 12.0155C10.6474 12.0155 11.0783 12.1458 11.4449 12.3899C11.8114 12.634 12.0971 12.981 12.2658 13.3869C12.4345 13.7928 12.4786 14.2395 12.3926 14.6704C12.3066 15.1014 12.0943 15.4972 11.7826 15.8079C11.4709 16.1186 11.0738 16.3302 10.6414 16.4159C10.2091 16.5016 9.76093 16.4576 9.35366 16.2895C8.94639 16.1213 8.5983 15.8366 8.35339 15.4713C8.10848 15.1059 7.97776 14.6764 7.97776 14.237C7.97776 13.6479 8.21258 13.0828 8.63057 12.6662C9.04856 12.2496 9.61548 12.0155 10.2066 12.0155ZM17.5738 12.0155C18.0148 12.0149 18.446 12.1446 18.813 12.3883C19.1799 12.632 19.4661 12.9787 19.6353 13.3846C19.8046 13.7905 19.8492 14.2372 19.7635 14.6684C19.6779 15.0995 19.4659 15.4957 19.1543 15.8067C18.8428 16.1177 18.4456 16.3296 18.0132 16.4156C17.5807 16.5016 17.1324 16.4578 16.725 16.2898C16.3175 16.1217 15.9692 15.837 15.7241 15.4716C15.4791 15.1062 15.3483 14.6766 15.3483 14.237C15.3483 13.6479 15.5831 13.0828 16.0011 12.6662C16.4191 12.2496 16.986 12.0155 17.5771 12.0155H17.5738ZM18.0176 -2.43192e-06C22.8289 0.146326 27.1431 1.84905 30.2295 4.48628C33.3692 7.17007 35.2344 10.805 35.1343 14.7957C35.0141 18.7865 32.9121 22.315 29.6122 24.8092C26.359 27.2868 21.9547 28.7335 17.1434 28.6005C15.8339 28.5634 14.5306 28.4075 13.2496 28.1349C12.1101 27.8904 10.9938 27.5488 9.91298 27.1139L2.38564 30.0538L4.90142 24.0942C3.4282 22.8522 2.216 21.3321 1.33461 19.6212C0.404355 17.8198 -0.0546989 15.8134 -2.39061e-05 13.7881C0.120093 9.79732 2.22214 6.26882 5.52203 3.77127C8.7752 1.33025 13.1895 -0.133028 18.0176 -2.43192e-06ZM17.9708 1.72933C13.5432 1.60295 9.51593 2.91658 6.56972 5.14143C3.67022 7.31639 1.8351 10.4026 1.73167 13.8346C1.68438 15.5742 2.07678 17.2976 2.87278 18.8464C3.74622 20.5312 4.97697 22.0064 6.47963 23.1697L7.00681 23.5688L5.56541 26.9543L9.92966 25.2449L10.2633 25.3846C11.3449 25.8422 12.4678 26.1963 13.6166 26.4421C14.7921 26.6936 15.9883 26.8372 17.1901 26.8711C21.6011 27.0008 25.6283 25.6872 28.5745 23.459C31.4673 21.2841 33.3091 18.2012 33.4159 14.7658C33.516 11.3338 31.8644 8.16443 29.1117 5.81321C26.309 3.4121 22.3751 1.86235 17.9742 1.72933H17.9708Z" fill="#1E124C"/>
</g>
<defs>
<clipPath id="clip0_230_6">
<rect width="41" height="36" fill="white"/>
</clipPath>
</defs>
</svg>
