<svg width="80" height="80" viewBox="0 0 80 80" fill="none" xmlns="http://www.w3.org/2000/svg">
<circle cx="40" cy="40" r="40" fill="#EDEDED"/>
<g clip-path="url(#clip0_165_13)">
<path fill-rule="evenodd" clip-rule="evenodd" d="M52.9864 17.1313C51.612 17.8299 48.6428 18.217 45.1669 18.3727C45.4859 18.637 45.7767 18.9155 46.0019 19.2129C46.8134 20.2938 46.8462 21.4738 44.9887 22.8851C44.7072 23.0975 44.3085 23.0409 44.0974 22.7577C43.8863 22.4744 43.9426 22.0732 44.2241 21.8608C45.2936 21.0443 45.3498 20.4637 44.9887 19.9823C44.6275 19.5008 43.952 19.0288 43.2765 18.5521L43.1077 18.4341C40.7294 18.4766 38.2246 18.4246 35.8979 18.2972C35.776 18.4766 35.6728 18.6654 35.579 18.8683C35.1474 19.7935 34.9832 20.964 35.0395 22.347C35.0536 22.701 34.7815 22.9984 34.4297 23.0125C34.0779 23.0267 33.7824 22.7529 33.7683 22.3989C33.7026 20.813 33.909 19.4489 34.4297 18.3302C34.4485 18.2925 34.4672 18.25 34.486 18.2122C31.057 17.9715 28.1957 17.5703 26.9808 17.07C24.1663 28.4312 23.4345 42.3931 22.7028 56.3503C22.6371 57.6058 22.0648 62.1606 22.6981 62.9772C22.7825 63.0858 22.8763 63.1849 22.9748 63.2699C23.0077 63.2887 23.0358 63.3123 23.0593 63.3407C23.0968 63.369 23.139 63.3973 23.1812 63.4256C23.6222 63.7135 24.9356 63.9495 26.3147 64.077C27.7641 64.2091 29.2183 64.2091 29.753 64.0156C30.133 63.874 30.4425 63.6805 30.6771 63.4256C30.9116 63.1707 31.0758 62.8498 31.179 62.458L31.5027 61.0986H31.498C33.8715 51.0874 36.564 39.7451 39.416 35.6859C39.6177 35.3979 40.0164 35.3272 40.3026 35.5301L40.3166 35.5396C42.5635 37.0122 45.7345 49.3504 48.3613 59.5835C48.7366 61.0373 48.8116 62.9159 50.111 63.7277L50.1297 63.7371C50.7771 64.1147 52.4095 64.2233 54.0137 64.0628C55.557 63.9071 57.0111 63.5247 57.3817 62.9347L57.3958 62.9064L57.4051 62.8923C57.5037 62.7129 57.5834 62.5241 57.635 62.3258C57.6913 62.1182 57.7241 61.8963 57.7382 61.6556C57.6538 60.3953 57.5599 58.9699 57.4708 57.5397C56.5655 43.743 55.6649 29.951 52.9864 17.1313ZM37.0565 15.7248C37.3755 15.5785 37.7555 15.7248 37.8962 16.0457C38.0416 16.3667 37.8962 16.749 37.5772 16.8906C37.3286 17.0039 37.0941 17.1361 36.883 17.2824C37.0659 17.4146 37.2911 17.4901 37.535 17.4901C38.1542 17.4901 38.6561 16.985 38.6561 16.362C38.6561 15.7389 38.1542 15.2339 37.535 15.2339C37.0284 15.2339 36.6062 15.569 36.4655 16.0316C36.6531 15.923 36.8502 15.8192 37.0565 15.7248ZM41.1422 16.6452C40.9593 16.3431 41.0531 15.9513 41.3533 15.7673C41.6535 15.5832 42.0428 15.6776 42.2258 15.9797C42.3571 16.1968 42.5682 16.4139 42.8262 16.6357C42.845 16.5508 42.859 16.4611 42.859 16.3714C42.859 15.7484 42.3571 15.2433 41.7379 15.2433C41.1188 15.2433 40.6168 15.7484 40.6168 16.3714C40.6168 16.9945 41.1188 17.4995 41.7379 17.4995C41.7849 17.4995 41.8271 17.4948 41.8693 17.4901C41.5785 17.221 41.3252 16.9425 41.1422 16.6452ZM50.7818 65.257L50.9835 66.4181C51.157 67.4093 51.9122 67.6973 52.8176 67.6784C53.9246 67.6501 55.2662 67.1969 56.2324 66.8524C56.2418 66.8477 56.2559 66.8429 56.2653 66.8429L56.4107 66.791C56.8282 66.64 56.9924 66.6164 57.0017 66.5975C57.0158 66.5739 56.983 66.4889 56.9689 66.2529C56.9595 66.0783 56.9454 65.8612 56.9408 65.5496L56.9314 64.7048C56.1293 65.0257 55.1348 65.2381 54.1263 65.3372C52.9536 65.4505 51.734 65.4269 50.7818 65.257ZM58.1885 63.9307L58.212 65.526C58.2167 65.762 58.226 65.9886 58.2401 66.1727C58.2682 66.6589 58.2823 66.9279 58.0994 67.2394C57.8742 67.617 57.5553 67.735 56.8376 67.9899L56.6921 68.0418C56.6828 68.0466 56.6734 68.0513 56.664 68.0513C55.618 68.4289 54.1638 68.915 52.8504 68.9481C51.3353 68.9858 50.0547 68.4525 49.7357 66.6305L49.4121 64.7897C49.1588 64.6292 48.9195 64.431 48.6944 64.2044C47.5686 63.0575 47.5123 61.4149 47.123 59.895C44.7307 50.5776 41.8787 39.4619 40.054 37.0264C37.4787 41.3641 34.9645 51.9748 32.727 61.396L32.4033 62.7554L32.3986 62.7648C32.2438 63.369 31.9717 63.8787 31.5965 64.2894C31.3526 64.5537 31.0664 64.7756 30.7428 64.9549L30.4941 66.4181C30.4566 66.6353 30.4003 66.8335 30.33 67.0223C29.9453 68.0371 29.1432 68.5941 28.1628 68.8395C27.2857 69.0661 26.2631 69.0283 25.3155 68.8631C24.6401 68.7451 23.9974 68.561 23.4674 68.3581C21.896 67.7586 21.896 67.6595 21.9429 66.3851C21.9476 66.2482 21.9522 66.0924 21.9522 65.9414L21.971 64.0864C21.8678 63.9873 21.774 63.8787 21.6849 63.7607C20.3808 62.0757 21.3096 58.4224 21.4222 56.2842C22.1586 42.1807 22.8998 28.0819 25.7799 16.5744L26.385 12.416C26.4319 12.0903 26.7087 11.859 27.0277 11.8685C28.7961 11.2643 33.7402 11 38.9 11C44.7823 11 50.9975 11.3398 53.1037 11.9204C53.1928 11.944 53.2726 11.9865 53.3382 12.0431C53.493 12.1423 53.6056 12.3075 53.6291 12.5057L54.1028 16.2676C56.8985 29.3374 57.8132 43.3984 58.7279 57.4595C58.8124 58.7811 58.9015 60.1074 59 61.599C59 61.6226 59 61.6462 59 61.6698C58.9859 62.0143 58.9343 62.3447 58.8499 62.661C58.7655 62.9725 58.6482 63.2604 58.4981 63.5295C58.4934 63.5436 58.484 63.5578 58.4746 63.5719L58.4606 63.6003L58.4559 63.605C58.3808 63.7135 58.2917 63.8268 58.1885 63.9307ZM23.2375 64.8228L23.2281 65.9556C23.2281 66.1538 23.2188 66.3001 23.2188 66.4323C23.2047 66.8618 23.2047 66.8949 23.9224 67.1686C24.3821 67.3433 24.945 67.5037 25.536 67.6076C26.3287 67.7445 27.1684 67.7775 27.8579 67.6029C28.449 67.4518 28.9321 67.1356 29.1432 66.5739C29.1854 66.4653 29.2183 66.3379 29.2417 66.2057L29.3824 65.3797C28.5428 65.4741 27.3466 65.4552 26.188 65.3514C25.0951 65.2476 24.0021 65.0635 23.2375 64.8228ZM39.7162 13.3883C43.3516 13.3883 47.0573 13.1759 49.7873 12.7039C46.9588 12.4349 42.8637 12.2839 38.9 12.2839C35.2365 12.2839 31.7138 12.4113 29.4481 12.6851C31.7888 13.1335 35.6915 13.3883 39.7162 13.3883Z" fill="black"/>
</g>
<defs>
<clipPath id="clip0_165_13">
<rect width="38" height="58" fill="white" transform="translate(21 11)"/>
</clipPath>
</defs>
</svg>
