<svg width="24" height="27" viewBox="0 0 24 27" fill="none" xmlns="http://www.w3.org/2000/svg">
<path d="M24 16.7972V11.1772H21.0326L14.0085 3.56504C14.0873 3.30428 14.1307 3.02396 14.1307 2.73182C14.1307 1.35388 13.1749 0.232849 12 0.232849C10.8251 0.232849 9.86932 1.35388 9.86932 2.73182C9.86932 3.02393 9.91267 3.30428 9.99155 3.56504L2.96739 11.1772H0V16.7973H0.838911L3.75375 26.7816H20.2462L23.161 16.7973H24V16.7972ZM15.903 19.7862H12.8412V16.8245H16.1524L15.903 19.7862ZM11.1588 24.8083H8.5198L8.2631 21.7595H11.1588V24.8083ZM8.09698 19.7862L7.84763 16.8245H11.1588V19.7862H8.09698ZM12.4482 2.73182C12.4482 2.8842 12.3923 3.02123 12.3037 3.11731C12.2238 3.20402 12.1172 3.2575 12 3.2575C11.8828 3.2575 11.7763 3.20402 11.6963 3.11731C11.6077 3.0212 11.5518 2.8842 11.5518 2.73182C11.5518 2.57944 11.6077 2.44241 11.6963 2.34633C11.7762 2.25962 11.8828 2.20614 12 2.20614C12.1172 2.20614 12.2237 2.25962 12.3037 2.34633C12.3923 2.44244 12.4482 2.57944 12.4482 2.73182ZM11.1336 5.01405C11.3985 5.15294 11.6916 5.23082 12 5.23082C12.3084 5.23082 12.6015 5.15294 12.8664 5.01405L18.5535 11.1773H5.44657L11.1336 5.01405ZM1.68247 13.1505H22.3175V14.824H1.68247V13.1505ZM6.15699 16.8245L6.40634 19.7862H3.4899L2.62525 16.8245H6.15699ZM4.95605 24.8083L4.06597 21.7595H6.57249L6.82916 24.8083H4.95605ZM12.8412 21.7595H15.7369L15.4802 24.8083H12.8412V21.7595ZM19.044 24.8083H17.1708L17.4275 21.7595H19.934L19.044 24.8083ZM20.5101 19.7862H17.5937L17.843 16.8245H21.3748L20.5101 19.7862Z" fill="#0C0D36"/>
</svg>
