<svg width="80" height="80" viewBox="0 0 80 80" fill="none" xmlns="http://www.w3.org/2000/svg">
<circle cx="40" cy="40" r="40" fill="#EDEDED"/>
<g clip-path="url(#clip0_164_5)">
<path d="M43.9457 28.9607C43.7747 28.9936 43.5963 28.9973 43.4179 28.9607H31.3895C31.356 28.9607 30.9174 28.957 30.5234 28.9533C28.7913 28.935 28.546 28.9314 27.639 30.4035L26.1782 32.7766C26.1187 32.8755 26.063 32.9524 26.0035 33.0439C25.9254 33.1574 25.8325 33.2966 25.7507 33.4211H55.1898L55.1415 33.3515C55.134 33.3442 55.1303 33.3332 55.1229 33.3222C55.1006 33.2893 55.0783 33.2563 55.0597 33.2307L52.8964 29.9384C52.1753 28.9387 51.22 28.946 49.5547 28.957C49.131 28.9607 49.2053 28.9643 48.9377 28.9643H43.9457V28.9607ZM42.4068 27.4153L42.4106 27.4043L43.5703 22.5849C43.6632 22.2004 43.9197 21.8965 44.2542 21.7317L50.707 18.1648C51.3352 17.8169 52.1307 18.0366 52.4838 18.6592C52.8369 19.278 52.6139 20.0617 51.982 20.4096L45.9789 23.7275L45.0906 27.4153H48.934C49.6328 27.4153 49.5139 27.4153 49.5473 27.4153C51.7292 27.4006 52.9819 27.3933 54.1676 29.0449C54.1825 29.0632 54.1936 29.0815 54.2048 29.0998L56.3681 32.3921C56.3867 32.4177 56.4016 32.4433 56.4201 32.469C56.4276 32.48 56.435 32.4909 56.4424 32.5019C56.6766 32.8462 56.9963 33.3222 56.9963 33.8203C56.9963 34.4868 56.6432 34.9702 55.5689 34.9702H54.3051L51.3984 56.8842C51.3649 57.1406 51.3389 57.4153 51.3092 57.6936C51.1605 59.1767 51.0007 60.8027 49.7964 61.883C48.4694 63.0695 46.5068 63.0256 44.8229 62.9853C44.6111 62.9817 44.4029 62.9743 44.0349 62.9743H34.2739V62.9707C32.7945 63.011 31.6497 62.6374 30.8394 61.8611L30.8022 61.8244C30.7911 61.8134 30.7762 61.7988 30.765 61.7878C30.7539 61.7768 30.739 61.7622 30.7279 61.7512L30.6907 61.7146L30.6572 61.6779L30.6238 61.6377C30.6126 61.623 30.6015 61.612 30.5903 61.5974L30.5569 61.5571L30.5234 61.5168L30.49 61.4765L30.4565 61.4362L30.4268 61.396L30.397 61.352L30.3673 61.3081L30.3376 61.2641L30.3078 61.2202L30.2781 61.1762L30.2484 61.1323L30.2223 61.0884L30.1963 61.0407L30.1703 60.9931L30.1443 60.9455L30.1183 60.8979L30.0922 60.8503L30.0662 60.8027L30.0439 60.7551L30.0216 60.7038L29.9993 60.6526L29.977 60.6013L29.9547 60.55L29.9324 60.4988L29.9101 60.4475L29.8915 60.3962L29.8729 60.3413L29.8544 60.2863L29.8358 60.2314L29.8172 60.1765L29.7986 60.1216L29.78 60.0666L29.7651 60.0117L29.7503 59.9531L29.7354 59.8945L29.7205 59.8359L29.7057 59.7773L29.6908 59.7187L29.6759 59.6601L29.6648 59.6015L29.6536 59.5429L29.6425 59.4807L29.6313 59.4184L29.6202 59.3562L29.609 59.2939L29.5979 59.2317L29.5904 59.1694L29.583 59.1071L29.5756 59.0412L29.5681 58.9753L29.5607 58.9094L29.5533 58.8435L29.5458 58.7776L29.5384 58.7116L29.5347 58.6457L29.531 58.5761L29.5273 58.5066L29.0998 55.3535C29.0924 55.3132 29.0849 55.2693 29.0812 55.2253L26.3938 34.9665H25.4162C24.3643 34.9665 24 34.4795 24 33.7837C24 33.2087 24.4126 32.6045 24.7025 32.1833C24.7657 32.0918 24.8215 32.0075 24.8401 31.9782L26.3009 29.6052C27.6687 27.3823 28.0256 27.386 30.5346 27.4116C30.6572 27.4116 30.7911 27.4153 31.3895 27.4153H42.4068ZM52.7291 34.9775H27.9735L30.5532 54.416H50.1532L52.7291 34.9775ZM30.7576 55.9614L31.0736 58.3418C31.0773 58.3637 31.0773 58.382 31.081 58.404C31.1367 59.4807 31.4192 60.2717 31.9322 60.7588C32.434 61.2385 33.2034 61.4655 34.2516 61.4326H34.2777V61.4289H44.0349C44.1799 61.4289 44.5144 61.4362 44.8601 61.4436C46.254 61.4765 47.8783 61.5132 48.7444 60.7404C49.5064 60.0593 49.6365 58.7446 49.7555 57.5471C49.7852 57.2505 49.8149 56.9612 49.8521 56.6828L49.9487 55.9614H30.7576Z" fill="black"/>
</g>
<defs>
<clipPath id="clip0_164_5">
<rect width="33" height="45" fill="white" transform="translate(24 18)"/>
</clipPath>
</defs>
</svg>
