<svg width="36" height="36" viewBox="0 0 36 36" fill="none" xmlns="http://www.w3.org/2000/svg">
<g clip-path="url(#clip0_122_185)">
<path fill-rule="evenodd" clip-rule="evenodd" d="M5.11523 14.5401L2.4082 9.84964C2.17382 9.44241 2.31445 8.92385 2.72167 8.68948C2.85644 8.61331 2.99999 8.57522 3.14648 8.57522V8.57229H8.57226V3.12307C8.57226 2.65139 8.95605 2.2676 9.42773 2.2676C9.60644 2.2676 9.7705 2.32327 9.9082 2.41409L14.543 5.1094L17.2646 0.4219C17.5019 0.0146735 18.0234 -0.123022 18.4277 0.111353C18.5625 0.190455 18.668 0.298853 18.7412 0.42776L21.46 5.1094L26.1475 2.38186C26.5547 2.14456 27.0762 2.28518 27.3105 2.69241C27.3896 2.82717 27.4248 2.97366 27.4248 3.12014L27.4277 8.56936H32.8769C33.3486 8.56936 33.7324 8.95315 33.7324 9.42483C33.7324 9.60354 33.6768 9.76761 33.5859 9.9053L30.8906 14.5401L35.5781 17.2617C35.9853 17.4991 36.123 18.0205 35.8887 18.4248C35.8096 18.5596 35.7012 18.6651 35.5723 18.7383L30.8906 21.4571L33.6182 26.1446C33.8555 26.5518 33.7148 27.0733 33.3076 27.3076C33.1728 27.3867 33.0264 27.4219 32.8799 27.4219L27.4307 27.4248V32.8506C27.4307 33.3223 27.0469 33.7061 26.5752 33.7061C26.3906 33.7061 26.2207 33.6475 26.0801 33.5479L21.46 30.8819L18.7383 35.5723C18.501 35.9795 17.9795 36.1172 17.5752 35.8828C17.4404 35.8037 17.335 35.6953 17.2617 35.5664L14.543 30.8819L9.85253 33.5889C9.44531 33.8233 8.92675 33.6826 8.69238 33.2754C8.61621 33.1407 8.57812 32.9971 8.57812 32.8506H8.57519V27.4278H3.14648C2.6748 27.4278 2.29101 27.044 2.29101 26.5723C2.29101 26.3877 2.3496 26.2178 2.44921 26.0772L5.11523 21.4571L0.424799 18.7383C0.0175727 18.501 -0.120123 17.9795 0.114252 17.5752C0.193354 17.4405 0.301752 17.335 0.430659 17.2617L5.11523 14.5401ZM13.0869 11.8535C14.1387 11.8535 14.9853 12.1524 15.6269 12.753C16.2656 13.3535 16.585 14.1504 16.585 15.1436C16.585 16.1397 16.2656 16.9366 15.6269 17.5371C14.9853 18.1377 14.1387 18.4366 13.0869 18.4366C12.0352 18.4366 11.1914 18.1348 10.5498 17.5371C9.91113 16.9366 9.58886 16.1397 9.58886 15.1436C9.58886 14.1504 9.91113 13.3506 10.5498 12.753C11.1914 12.1524 12.0352 11.8535 13.0869 11.8535ZM20.7627 12.3223H23.6103L15.2725 23.6631H12.4248L20.7627 12.3223ZM13.0869 14.3936C12.8584 14.3936 12.6855 14.461 12.5654 14.5899C12.4453 14.7217 12.3838 14.9063 12.3838 15.1465C12.3838 15.3867 12.4453 15.5742 12.5654 15.7061C12.6855 15.835 12.8584 15.9024 13.0869 15.9024C13.3154 15.9024 13.4912 15.835 13.6113 15.7061C13.7314 15.5713 13.79 15.3867 13.79 15.1465C13.79 14.9063 13.7314 14.7217 13.6113 14.5899C13.4941 14.461 13.3184 14.3936 13.0869 14.3936ZM22.9102 17.5576C23.9619 17.5576 24.8057 17.8594 25.4473 18.4571C26.0859 19.0576 26.4082 19.8545 26.4082 20.8506C26.4082 21.8438 26.0859 22.6436 25.4473 23.2412C24.8057 23.8418 23.9619 24.1407 22.9102 24.1407C21.8584 24.1407 21.0117 23.8418 20.3701 23.2412C19.7314 22.6407 19.4121 21.8438 19.4121 20.8506C19.4121 19.8545 19.7314 19.0576 20.3701 18.4571C21.0117 17.8594 21.8584 17.5576 22.9102 17.5576ZM22.9102 20.0977C22.6816 20.0977 22.5059 20.1651 22.3857 20.294C22.2656 20.4287 22.2041 20.6104 22.2041 20.8535C22.2041 21.0938 22.2656 21.2783 22.3857 21.4102C22.5059 21.542 22.6816 21.6065 22.9102 21.6065C23.1357 21.6065 23.3115 21.5391 23.4316 21.4102C23.5518 21.2783 23.6133 21.0938 23.6133 20.8535C23.6133 20.6104 23.5518 20.4258 23.4316 20.294C23.3144 20.1621 23.1387 20.0977 22.9102 20.0977Z" fill="#EDC500"/>
<circle cx="17.8711" cy="17.8711" r="10.2539" fill="#EDC500"/>
</g>
<defs>
<clipPath id="clip0_122_185">
<rect width="36" height="36" fill="white"/>
</clipPath>
</defs>
</svg>
