<svg width="36" height="36" viewBox="0 0 36 36" fill="none" xmlns="http://www.w3.org/2000/svg">
<g clip-path="url(#clip0_122_185)">
<path fill-rule="evenodd" clip-rule="evenodd" d="M5.11523 14.5401L2.4082 9.84964C2.17382 9.44241 2.31445 8.92385 2.72167 8.68948C2.85644 8.61331 2.99999 8.57522 3.14648 8.57522V8.57229H8.57226V3.12307C8.57226 2.65139 8.95605 2.2676 9.42773 2.2676C9.60644 2.2676 9.7705 2.32327 9.9082 2.41409L14.543 5.1094L17.2646 0.4219C17.5019 0.0146735 18.0234 -0.123022 18.4277 0.111353C18.5625 0.190455 18.668 0.298853 18.7412 0.42776L21.46 5.1094L26.1475 2.38186C26.5547 2.14456 27.0762 2.28518 27.3105 2.69241C27.3896 2.82717 27.4248 2.97366 27.4248 3.12014L27.4277 8.56936H32.8769C33.3486 8.56936 33.7324 8.95315 33.7324 9.42483C33.7324 9.60354 33.6768 9.76761 33.5859 9.9053L30.8906 14.5401L35.5781 17.2617C35.9853 17.4991 36.123 18.0205 35.8887 18.4248C35.8096 18.5596 35.7012 18.6651 35.5723 18.7383L30.8906 21.4571L33.6182 26.1446C33.8555 26.5518 33.7148 27.0733 33.3076 27.3076C33.1728 27.3867 33.0264 27.4219 32.8799 27.4219L27.4307 27.4248V32.8506C27.4307 33.3223 27.0469 33.7061 26.5752 33.7061C26.3906 33.7061 26.2207 33.6475 26.0801 33.5479L21.46 30.8819L18.7383 35.5723C18.501 35.9795 17.9795 36.1172 17.5752 35.8828C17.4404 35.8037 17.335 35.6953 17.2617 35.5664L14.543 30.8819L9.85253 33.5889C9.44531 33.8233 8.92675 33.6826 8.69238 33.2754C8.61621 33.1407 8.57812 32.9971 8.57812 32.8506H8.57519V27.4278H3.14648C2.6748 27.4278 2.29101 27.044 2.29101 26.5723C2.29101 26.3877 2.3496 26.2178 2.44921 26.0772L5.11523 21.4571L0.424799 18.7383C0.0175727 18.501 -0.120123 17.9795 0.114252 17.5752C0.193354 17.4405 0.301752 17.335 0.430659 17.2617L5.11523 14.5401ZM13.0869 11.8535C14.1387 11.8535 14.9853 12.1524 15.6269 12.753C16.2656 13.3535 16.585 14.1504 16.585 15.1436C16.585 16.1397 16.2656 16.9366 15.6269 17.5371C14.9853 18.1377 14.1387 18.4366 13.0869 18.4366C12.0352 18.4366 11.1914 18.1348 10.5498 17.5371C9.91113 16.9366 9.58886 16.1397 9.58886 15.1436C9.58886 14.1504 9.91113 13.3506 10.5498 12.753C11.1914 12.1524 12.0352 11.8535 13.0869 11.8535ZM20.7627 12.3223H23.6103L15.2725 23.6631H12.4248L20.7627 12.3223ZM13.0869 14.3936C12.8584 14.3936 12.6855 14.461 12.5654 14.5899C12.4453 14.7217 12.3838 14.9063 12.3838 15.1465C12.3838 15.3867 12.4453 15.5742 12.5654 15.7061C12.6855 15.835 12.8584 15.9024 13.0869 15.9024C13.3154 15.9024 13.4912 15.835 13.6113 15.7061C13.7314 15.5713 13.79 15.3867 13.79 15.1465C13.79 14.9063 13.7314 14.7217 13.6113 14.5899C13.4941 14.461 13.3184 14.3936 13.0869 14.3936ZM22.9102 17.5576C23.9619 17.5576 24.8057 17.8594 25.4473 18.4571C26.0859 19.0576 26.4082 19.8545 26.4082 20.8506C26.4082 21.8438 26.0859 22.6436 25.4473 23.2412C24.8057 23.8418 23.9619 24.1407 22.9102 24.1407C21.8584 24.1407 21.0117 23.8418 20.3701 23.2412C19.7314 22.6407 19.4121 21.8438 19.4121 20.8506C19.4121 19.8545 19.7314 19.0576 20.3701 18.4571C21.0117 17.8594 21.8584 17.5576 22.9102 17.5576ZM22.9102 20.0977C22.6816 20.0977 22.5059 20.1651 22.3857 20.294C22.2656 20.4287 22.2041 20.6104 22.2041 20.8535C22.2041 21.0938 22.2656 21.2783 22.3857 21.4102C22.5059 21.542 22.6816 21.6065 22.9102 21.6065C23.1357 21.6065 23.3115 21.5391 23.4316 21.4102C23.5518 21.2783 23.6133 21.0938 23.6133 20.8535C23.6133 20.6104 23.5518 20.4258 23.4316 20.294C23.3144 20.1621 23.1387 20.0977 22.9102 20.0977Z" fill="#EDC500"/>
<circle cx="17.8711" cy="17.8711" r="10.2539" fill="#EDC500"/>
<path d="M8.067 19.262C8.771 18.6753 9.332 18.1877 9.75 17.799C10.168 17.403 10.5163 16.9923 10.795 16.567C11.0737 16.1417 11.213 15.7237 11.213 15.313C11.213 14.939 11.125 14.6457 10.949 14.433C10.773 14.2203 10.5017 14.114 10.135 14.114C9.76833 14.114 9.486 14.2387 9.288 14.488C9.09 14.73 8.98733 15.0637 8.98 15.489H7.484C7.51333 14.609 7.77367 13.9417 8.265 13.487C8.76367 13.0323 9.39433 12.805 10.157 12.805C10.993 12.805 11.6347 13.0287 12.082 13.476C12.5293 13.916 12.753 14.499 12.753 15.225C12.753 15.797 12.599 16.3433 12.291 16.864C11.983 17.3847 11.631 17.8393 11.235 18.228C10.839 18.6093 10.322 19.0713 9.684 19.614H12.929V20.89H7.495V19.746L8.067 19.262ZM19.2894 14.312H15.7254V16.193C15.8794 16.0023 16.0994 15.8483 16.3854 15.731C16.6714 15.6063 16.9757 15.544 17.2984 15.544C17.8851 15.544 18.3654 15.6723 18.7394 15.929C19.1134 16.1857 19.3847 16.5157 19.5534 16.919C19.7221 17.315 19.8064 17.7403 19.8064 18.195C19.8064 19.0383 19.5644 19.7167 19.0804 20.23C18.6037 20.7433 17.9217 21 17.0344 21C16.1984 21 15.5311 20.791 15.0324 20.373C14.5337 19.955 14.2514 19.4087 14.1854 18.734H15.6814C15.7474 19.0273 15.8941 19.262 16.1214 19.438C16.3561 19.614 16.6531 19.702 17.0124 19.702C17.4451 19.702 17.7714 19.5663 17.9914 19.295C18.2114 19.0237 18.3214 18.6643 18.3214 18.217C18.3214 17.7623 18.2077 17.4177 17.9804 17.183C17.7604 16.941 17.4341 16.82 17.0014 16.82C16.6934 16.82 16.4367 16.897 16.2314 17.051C16.0261 17.205 15.8794 17.4103 15.7914 17.667H14.3174V12.959H19.2894V14.312ZM20.8025 14.95C20.8025 14.3927 20.9638 13.9563 21.2865 13.641C21.6165 13.3257 22.0382 13.168 22.5515 13.168C23.0648 13.168 23.4828 13.3257 23.8055 13.641C24.1355 13.9563 24.3005 14.3927 24.3005 14.95C24.3005 15.5147 24.1355 15.9547 23.8055 16.27C23.4828 16.5853 23.0648 16.743 22.5515 16.743C22.0382 16.743 21.6165 16.5853 21.2865 16.27C20.9638 15.9547 20.8025 15.5147 20.8025 14.95ZM27.8645 13.3L23.5415 21H22.0455L26.3575 13.3H27.8645ZM22.5405 14.092C22.1372 14.092 21.9355 14.378 21.9355 14.95C21.9355 15.5293 22.1372 15.819 22.5405 15.819C22.7385 15.819 22.8925 15.7493 23.0025 15.61C23.1125 15.4633 23.1675 15.2433 23.1675 14.95C23.1675 14.378 22.9585 14.092 22.5405 14.092ZM25.6315 19.339C25.6315 18.7743 25.7928 18.338 26.1155 18.03C26.4455 17.7147 26.8672 17.557 27.3805 17.557C27.8938 17.557 28.3082 17.7147 28.6235 18.03C28.9462 18.338 29.1075 18.7743 29.1075 19.339C29.1075 19.9037 28.9462 20.3437 28.6235 20.659C28.3082 20.9743 27.8938 21.132 27.3805 21.132C26.8598 21.132 26.4382 20.9743 26.1155 20.659C25.7928 20.3437 25.6315 19.9037 25.6315 19.339ZM27.3695 18.481C26.9515 18.481 26.7425 18.767 26.7425 19.339C26.7425 19.9183 26.9515 20.208 27.3695 20.208C27.7802 20.208 27.9855 19.9183 27.9855 19.339C27.9855 18.767 27.7802 18.481 27.3695 18.481Z" fill="white"/>
</g>
<defs>
<clipPath id="clip0_122_185">
<rect width="36" height="36" fill="white"/>
</clipPath>
</defs>
</svg>
