<svg width="80" height="80" viewBox="0 0 80 80" fill="none" xmlns="http://www.w3.org/2000/svg">
<circle cx="40" cy="40" r="40" fill="#EDEDED"/>
<g clip-path="url(#clip0_165_12)">
<path fill-rule="evenodd" clip-rule="evenodd" d="M23.4842 26.0923C24.657 25.7334 25.6953 25.4941 26.6232 25.2549C29.9036 24.4688 31.7628 24.0176 33.729 19.5503C33.8007 19.3871 33.9188 19.2482 34.0689 19.1505C34.2189 19.0528 34.3945 19.0005 34.5741 19H45.5605C45.7652 18.9994 45.9644 19.0662 46.1268 19.19C46.2891 19.3137 46.4053 19.4873 46.4573 19.6836C46.8263 20.7614 47.3453 21.783 47.9992 22.7188C48.5363 23.4847 49.2445 24.1175 50.0688 24.5679L57.9335 26.6187C58.0215 26.6405 58.1053 26.6763 58.1818 26.7246C62.1349 29.1172 61.0414 33.5606 60.0928 37.4126C59.9514 37.9971 59.81 38.5645 59.6927 39.1216C58.9082 42.8803 57.8617 46.5806 56.5606 50.1958C55.2629 53.7881 53.6469 57.2595 51.7314 60.5693C51.6512 60.7085 51.5352 60.8242 51.3952 60.9046C51.2553 60.985 51.0964 61.0274 50.9346 61.0274H28.9688C28.7953 61.0273 28.6254 60.9788 28.4784 60.8876C28.3314 60.7963 28.2132 60.6659 28.1375 60.5112C26.824 58.2606 25.6278 55.9447 24.5536 53.5728C23.4604 51.1733 22.5124 48.7114 21.7147 46.2002C21.1812 44.5163 20.7144 42.7822 20.3142 40.9981C19.921 39.2241 19.6002 37.4126 19.3657 35.5669L19.3036 35.0986C18.8034 31.3047 18.2653 27.2031 23.4842 26.0923ZM53.2009 27.2441C53.1285 27.5347 53.0491 27.8184 52.9663 28.0986C53.0308 28.1602 53.0918 28.2253 53.1492 28.2935C53.4846 28.6886 53.6943 29.1735 53.7517 29.6867C53.8091 30.1999 53.7117 30.7185 53.4717 31.1769C53.2318 31.6353 52.86 32.0128 52.4035 32.2619C51.947 32.511 51.4263 32.6203 50.907 32.5762C50.8553 32.5795 50.8035 32.5795 50.7518 32.5762C50.6552 32.7095 50.5552 32.8359 50.4552 32.9624C50.5964 33.3512 50.6368 33.769 50.5727 34.1773C50.5086 34.5856 50.342 34.9714 50.0883 35.2994C49.8346 35.6273 49.5018 35.8869 49.1205 36.0543C48.7393 36.2216 48.3217 36.2915 47.9061 36.2573C47.5822 36.2315 47.2668 36.142 46.9782 35.9941C46.7953 36.1035 46.6091 36.2061 46.4228 36.3052V36.4111C46.3841 36.8585 46.2125 37.2844 45.9298 37.6353C45.6471 37.9861 45.2658 38.2461 44.8341 38.3825C44.4024 38.5189 43.9396 38.5255 43.5041 38.4016C43.0686 38.2776 42.6799 38.0286 42.387 37.686C41.9903 37.7544 41.5902 37.8057 41.1901 37.8398L44.5084 41.1279C44.6293 41.2489 44.6971 41.4123 44.6971 41.5825C44.6971 41.7528 44.6293 41.9161 44.5084 42.0371L40.4588 46.0259C40.3985 46.0861 40.3268 46.134 40.2477 46.1666C40.1687 46.1992 40.0839 46.216 39.9983 46.216C39.9127 46.216 39.8279 46.1992 39.7488 46.1666C39.6698 46.134 39.5981 46.0861 39.5378 46.0259L35.4951 42.02C35.3742 41.8991 35.3063 41.7357 35.3063 41.5654C35.3063 41.3952 35.3742 41.2318 35.4951 41.1108L38.8134 37.8228C38.4133 37.7886 38.0097 37.7373 37.613 37.669C37.3196 38.0111 36.9307 38.2597 36.4951 38.3834C36.0595 38.507 35.5968 38.5003 35.165 38.364C34.7333 38.2278 34.3519 37.968 34.0687 37.6175C33.7856 37.267 33.6134 36.8413 33.5738 36.394V36.2881C33.3875 36.189 33.2012 36.0864 33.0184 35.9771C32.6553 36.1611 32.2522 36.254 31.8445 36.2475C31.4367 36.2411 31.0368 36.1355 30.6798 35.9401C30.3229 35.7447 30.0198 35.4654 29.7972 35.1268C29.5747 34.7882 29.4395 34.4006 29.4034 33.9981C29.3727 33.6411 29.4209 33.2818 29.5449 32.9453C29.4414 32.8189 29.3448 32.6924 29.2448 32.5591C29.1931 32.5626 29.1412 32.5626 29.0895 32.5591C28.5706 32.6025 28.0503 32.4926 27.5944 32.2432C27.1385 31.9939 26.7673 31.6162 26.5278 31.158C26.2883 30.6998 26.1911 30.1816 26.2486 29.6687C26.3061 29.1558 26.5157 28.6713 26.8509 28.2764C26.9095 28.208 26.9716 28.1431 27.0337 28.0815C26.9371 27.7568 26.8474 27.4253 26.7681 27.0835C25.9333 27.2852 25.0158 27.5142 24.0086 27.8252L23.9223 27.8491C20.3039 28.6045 20.7247 31.8584 21.1248 34.8662L21.1869 35.3379C21.4169 37.1335 21.725 38.8892 22.1114 40.605C22.4874 42.314 22.9461 43.9922 23.4911 45.6567C24.2672 48.1012 25.1886 50.498 26.2507 52.8345C27.2303 54.9946 28.3203 57.1069 29.5207 59.1782H50.4276C52.1687 56.0992 53.6456 52.8807 54.8428 49.5566C56.1133 46.0217 57.1345 42.4037 57.899 38.7285C58.0197 38.1748 58.1646 37.5732 58.3164 36.9614C59.1063 33.7485 60.0169 30.0503 57.3402 28.3208L53.2009 27.251V27.2441ZM28.5445 26.6563C28.5997 26.8989 28.6618 27.1348 28.7308 27.3672C29.2227 27.3434 29.7114 27.4569 30.1415 27.6947C30.5715 27.9324 30.9256 28.285 31.1635 28.7123C31.4014 29.1396 31.5135 29.6244 31.4871 30.1117C31.4608 30.599 31.2969 31.0691 31.0143 31.4688C31.3733 31.3381 31.7578 31.2912 32.138 31.3317C32.5183 31.3722 32.884 31.4991 33.2067 31.7025C33.5294 31.9058 33.8004 32.1802 33.9986 32.5042C34.1969 32.8283 34.3171 33.1933 34.3499 33.5708C34.3799 33.9048 34.3388 34.2414 34.2291 34.5586H34.2567C34.6631 34.1622 35.2043 33.9305 35.7742 33.909C36.344 33.8875 36.9014 34.0777 37.3371 34.4424C37.7768 34.8068 38.0624 35.3216 38.1373 35.8848C39.3681 36.0762 40.6215 36.0762 41.8523 35.8848C41.9308 35.3048 42.2314 34.7769 42.6918 34.4105C43.1521 34.044 43.7371 33.867 44.3256 33.916C44.8574 33.9592 45.357 34.1867 45.7364 34.5586H45.7605C45.6325 34.1728 45.6026 33.7615 45.6737 33.3615C45.7447 32.9615 45.9144 32.5851 46.1677 32.2658C46.421 31.9464 46.7501 31.6941 47.1256 31.5312C47.5011 31.3683 47.9114 31.2999 48.32 31.332C48.5404 31.3515 48.7573 31.3997 48.965 31.4756C48.6105 30.9783 48.4433 30.3735 48.4924 29.7666C48.5506 29.0915 48.8706 28.465 49.3852 28.0188C49.8998 27.5726 50.569 27.3415 51.252 27.374C51.3072 27.1826 51.3589 26.9878 51.4072 26.7896L49.5549 26.311C49.4697 26.2939 49.3872 26.2651 49.31 26.2256C48.1924 25.6463 47.2318 24.8093 46.509 23.7852C45.8607 22.8739 45.331 21.8851 44.9327 20.8423H35.1639C33.2323 24.9439 31.3696 25.9146 28.5445 26.6528V26.6563ZM40 40.1914C40.3185 40.1964 40.6254 40.3103 40.8688 40.514C41.1121 40.7177 41.2768 40.9985 41.3349 41.3088C41.3931 41.6191 41.3411 41.9398 41.1878 42.2165C41.0345 42.4931 40.7893 42.7087 40.4939 42.8266C40.1984 42.9445 39.8709 42.9575 39.5669 42.8634C39.2628 42.7693 39.0011 42.5738 38.8259 42.3102C38.6508 42.0466 38.5731 41.731 38.606 41.4171C38.6389 41.1032 38.7805 40.8102 39.0066 40.5879C39.1371 40.4595 39.2923 40.3583 39.4629 40.2902C39.6335 40.2222 39.8161 40.1886 40 40.1914ZM40 38.4824L36.8748 41.5586L40 44.6553L43.1217 41.5586L40 38.4824ZM31.7628 32.3711C32.0456 32.3471 32.3292 32.4068 32.5777 32.5425C32.8263 32.6782 33.0287 32.8839 33.1593 33.1336C33.2898 33.3833 33.3428 33.6657 33.3113 33.9452C33.2799 34.2247 33.1656 34.4887 32.9828 34.7037C32.7999 34.9188 32.5569 35.0754 32.2842 35.1536C32.0116 35.2318 31.7217 35.2281 31.4512 35.1431C31.1807 35.058 30.9417 34.8954 30.7645 34.6758C30.5873 34.4562 30.4797 34.1894 30.4555 33.9092C30.4239 33.5336 30.5438 33.161 30.7888 32.8727C31.0337 32.5845 31.384 32.4041 31.7628 32.3711ZM35.7641 34.9243C36.019 34.903 36.2744 34.9569 36.4983 35.0794C36.7222 35.2019 36.9044 35.3873 37.022 35.6124C37.1395 35.8374 37.1871 36.092 37.1587 36.3438C37.1303 36.5956 37.0272 36.8335 36.8625 37.0273C36.6977 37.2211 36.4787 37.3621 36.233 37.4326C35.9874 37.5031 35.7262 37.4999 35.4824 37.4234C35.2386 37.3468 35.0232 37.2004 34.8634 37.0026C34.7036 36.8048 34.6065 36.5645 34.5844 36.312C34.5698 36.1441 34.5887 35.975 34.64 35.8143C34.6914 35.6537 34.7743 35.5046 34.8838 35.3757C34.9934 35.2468 35.1276 35.1406 35.2786 35.0632C35.4297 34.9857 35.5947 34.9385 35.7641 34.9243ZM28.7411 28.4302C29.1524 28.3957 29.5605 28.5246 29.8759 28.7883C30.1913 29.0521 30.388 29.4292 30.4227 29.8367C30.4575 30.2441 30.3275 30.6486 30.0613 30.9611C29.7951 31.2736 29.4145 31.4685 29.0033 31.5029C28.8013 31.5226 28.5974 31.5025 28.4032 31.4438C28.209 31.3852 28.0285 31.2891 27.8719 31.1611C27.5625 30.9026 27.367 30.5348 27.3269 30.1357C27.3084 29.9347 27.3304 29.732 27.3915 29.5394C27.4525 29.3468 27.5515 29.1681 27.6827 29.0137C27.8139 28.8592 27.9747 28.732 28.1558 28.6395C28.3368 28.547 28.5346 28.4909 28.7377 28.4746L28.7411 28.4302ZM48.2406 32.3711C47.9579 32.3471 47.6743 32.4068 47.4257 32.5425C47.1772 32.6782 46.9748 32.8839 46.8442 33.1336C46.7136 33.3833 46.6607 33.6657 46.6921 33.9452C46.7235 34.2247 46.8379 34.4887 47.0207 34.7037C47.2035 34.9188 47.4466 35.0754 47.7192 35.1536C47.9918 35.2318 48.2817 35.2281 48.5522 35.1431C48.8227 35.058 49.0617 34.8954 49.239 34.6758C49.4162 34.4562 49.5237 34.1894 49.548 33.9092C49.5645 33.723 49.5438 33.5355 49.487 33.3573C49.4302 33.1791 49.3384 33.0138 49.2169 32.8709C49.0954 32.728 48.9466 32.6103 48.7791 32.5245C48.6116 32.4387 48.4286 32.3866 48.2406 32.3711ZM44.2393 34.9243C43.9845 34.903 43.729 34.9569 43.5051 35.0794C43.2813 35.2019 43.0991 35.3873 42.9815 35.6124C42.864 35.8374 42.8164 36.092 42.8448 36.3438C42.8732 36.5956 42.9763 36.8335 43.141 37.0273C43.3058 37.2211 43.5248 37.3621 43.7704 37.4326C44.0161 37.5031 44.2773 37.4999 44.521 37.4234C44.7648 37.3468 44.9802 37.2004 45.1401 37.0026C45.2999 36.8048 45.397 36.5645 45.419 36.312C45.4337 36.1441 45.4148 35.975 45.3634 35.8143C45.312 35.6537 45.2292 35.5046 45.1196 35.3757C45.01 35.2468 44.8759 35.1406 44.7248 35.0632C44.5738 34.9857 44.4088 34.9385 44.2393 34.9243ZM51.2623 28.4302C51.0608 28.4099 50.8572 28.4296 50.6636 28.4883C50.4699 28.547 50.2899 28.6435 50.1344 28.772C49.825 29.0305 49.6295 29.3983 49.5894 29.7974C49.5625 30.1 49.6268 30.4037 49.7742 30.67C49.9216 30.9364 50.1455 31.1534 50.4175 31.2936C50.6894 31.4337 50.9973 31.4908 51.302 31.4575C51.6067 31.4242 51.8946 31.302 52.1292 31.1065C52.3638 30.9109 52.5345 30.6508 52.6198 30.359C52.7051 30.0672 52.7011 29.7569 52.6082 29.4674C52.5154 29.1779 52.338 28.9222 52.0984 28.7327C51.8588 28.5432 51.5678 28.4284 51.2623 28.4028V28.4302Z" fill="black"/>
</g>
<defs>
<clipPath id="clip0_165_12">
<rect width="42" height="42" fill="white" transform="translate(19 19)"/>
</clipPath>
</defs>
</svg>
