<svg width="80" height="80" viewBox="0 0 80 80" fill="none" xmlns="http://www.w3.org/2000/svg">
<circle cx="40" cy="40" r="40" fill="#F1F1F1"/>
<path d="M51.6867 19.2423C51.9667 18.937 52.4354 18.9173 52.7382 19.1996C53.0409 19.4819 53.0604 19.9545 52.7805 20.2598L46.6867 26.9095L46.6769 26.9227C45.9314 27.8319 45.4204 28.6721 45.1925 29.4401C44.9907 30.1196 45.02 30.7366 45.3194 31.2749C45.479 31.5637 45.4269 31.9182 45.2153 32.1513L42.3214 35.3088C42.0382 34.9969 41.8135 34.7442 41.6638 34.5801C41.5954 34.4882 41.5173 34.3996 41.4359 34.3142L41.4294 34.3208C41.3904 34.2781 41.348 34.2388 41.3057 34.1994L43.7797 31.4981C43.49 30.7169 43.4933 29.8865 43.7602 29.0036C44.0466 28.0452 44.6554 27.0244 45.531 25.961C45.5506 25.9347 45.5668 25.9085 45.5896 25.8855L51.6802 19.2357L51.6867 19.2423ZM38.5974 37.0549C38.3239 36.7464 38.35 36.2704 38.656 35.9947C38.962 35.719 39.434 35.7453 39.7074 36.0538C42.7706 39.5133 52.2401 49.7505 54.8638 53.5776C58.3242 58.5174 52.966 60.0731 51.1887 58.2745C46.7485 53.9452 37.3213 42.9071 33.1774 38.2267C31.6865 38.8634 30.2379 38.9619 28.7828 38.5417C27.217 38.0921 25.6838 37.0385 24.1278 35.4204L24.1083 35.4007C22.9234 34.1403 21.9956 32.8963 21.325 31.6655C20.6382 30.3986 20.2183 29.1447 20.0685 27.9008C19.909 26.5616 20.0327 25.3144 20.3908 24.2083C20.8107 22.9085 21.5562 21.809 22.5327 20.9917C23.5158 20.1711 24.7235 19.6394 26.0712 19.4753C27.191 19.3407 28.4117 19.4556 29.6747 19.8725C31.4228 20.4468 33.4606 21.8746 35.1501 23.7061C36.3968 25.0551 37.4645 26.6338 38.0993 28.2585C38.7601 29.9522 38.962 31.7049 38.4313 33.346C38.1188 34.3175 37.5524 35.23 36.6735 36.0538C36.3708 36.3361 35.902 36.3164 35.6221 36.0144C35.3421 35.7092 35.3617 35.2365 35.6611 34.9543C36.3415 34.3142 36.7777 33.6151 37.0153 32.8766C37.4255 31.6064 37.253 30.1983 36.7126 28.8132C36.1462 27.3625 35.1859 25.9446 34.0596 24.7269C32.5361 23.0792 30.7294 21.8024 29.206 21.3002C28.1611 20.9589 27.1617 20.8604 26.247 20.972C25.1858 21.1033 24.2352 21.5136 23.4768 22.1536C22.715 22.7936 22.1323 23.6569 21.797 24.6842C21.5073 25.5802 21.4064 26.6109 21.5399 27.7235C21.6668 28.7739 22.0282 29.8471 22.6206 30.9434C23.2424 32.0692 24.0952 33.2081 25.1923 34.3733L25.1988 34.3832C26.5725 35.8109 27.8909 36.73 29.1962 37.1041C30.43 37.4586 31.6865 37.3208 32.9983 36.661C33.2978 36.4871 33.6852 36.5462 33.9228 36.8153C37.9658 41.3809 47.7999 52.8719 52.1555 57.129C54.0468 57.9069 55.0949 56.9485 54.19 55.2581C52.7805 52.6192 40.671 39.405 38.5974 37.0549ZM34.6715 43.6555L25.1792 54.0109C25.1597 54.0306 25.1434 54.0503 25.1207 54.0699C23.7339 55.5798 26.1884 57.7789 27.7118 56.3084L36.9307 46.2484L37.9203 47.3808L28.773 57.362C28.7535 57.385 28.734 57.4047 28.7079 57.4277C28.1611 57.8905 27.6109 58.1924 27.0543 58.3171C26.4813 58.4484 25.9182 58.3894 25.3778 58.1333C25.2867 58.0972 25.202 58.0513 25.1272 57.9824L23.8153 56.7581C23.7958 56.7384 23.7762 56.722 23.7567 56.699C23.2489 56.1082 23.008 55.478 23.0731 54.8117C23.135 54.1815 23.467 53.5678 24.0952 52.977L33.6787 42.5198L34.6715 43.6555ZM44.6196 37.859L45.1827 37.2453C45.4627 36.94 45.9347 36.9203 46.2342 37.2026C46.5337 37.4849 46.5564 37.9575 46.2765 38.2628L45.6254 38.9717L44.6196 37.859ZM54.0012 21.4381C54.2811 21.1328 54.7499 21.1131 55.0526 21.3954C55.3554 21.6777 55.3749 22.1503 55.0949 22.4556L49.7531 28.2881C49.4731 28.5933 49.0044 28.613 48.7016 28.3308C48.3989 28.0485 48.3794 27.5758 48.6593 27.2706L54.0012 21.4381ZM56.3124 23.5945C56.5924 23.2893 57.0611 23.2696 57.3639 23.5518C57.6666 23.8341 57.6861 24.3067 57.4062 24.612L52.0676 30.4412C51.7876 30.7465 51.3189 30.7662 51.0161 30.4839C50.7134 30.2016 50.6939 29.729 50.9738 29.4237L56.3124 23.5945ZM58.7083 25.8363C58.9882 25.531 59.457 25.5113 59.7597 25.7936C60.0625 26.0759 60.082 26.5518 59.802 26.8538L53.7082 33.5068C53.6854 33.5298 53.6626 33.5495 53.6399 33.5725C52.2531 34.9182 50.9282 35.6961 49.6619 35.916C48.2882 36.1556 47.0285 35.7617 45.8728 34.7442C45.5636 34.4718 45.5343 33.9959 45.8012 33.6873C46.0714 33.3755 46.5434 33.346 46.8494 33.6151C47.6469 34.3175 48.4998 34.5932 49.4015 34.4324C50.3716 34.265 51.4393 33.6184 52.6047 32.486L52.6112 32.4795L58.7018 25.833L58.7083 25.8363Z" fill="black"/>
</svg>
