<svg width="80" height="80" viewBox="0 0 80 80" fill="none" xmlns="http://www.w3.org/2000/svg">
<circle cx="40" cy="40" r="40" fill="#EDEDED"/>
<g clip-path="url(#clip0_164_2)">
<path fill-rule="evenodd" clip-rule="evenodd" d="M61.6374 35.5517C61.871 35.713 62.0847 35.9015 62.2738 36.1133C62.7341 36.5764 62.9948 37.2015 63 37.8545V40.7901C63.0005 41.1163 62.9366 41.4393 62.8121 41.7408C62.6875 42.0422 62.5047 42.3161 62.2742 42.5467C62.0436 42.7773 61.7698 42.9602 61.4684 43.0847C61.1671 43.2093 60.8441 43.2732 60.5181 43.2727H58.8896L57.4709 54.0118C57.4289 54.5305 57.2063 55.0182 56.842 55.3897C56.6557 55.5798 56.4331 55.7305 56.1874 55.8328C55.9418 55.935 55.678 55.9868 55.4119 55.9851H24.5881C24.322 55.9868 24.0582 55.935 23.8126 55.8328C23.5669 55.7305 23.3443 55.5798 23.158 55.3897C22.7937 55.0182 22.5711 54.5305 22.5291 54.0118L21.1178 43.2877H19.4819C19.1559 43.2882 18.8329 43.2243 18.5316 43.0997C18.2302 42.9751 17.9564 42.7923 17.7258 42.5617C17.4953 42.331 17.3125 42.0572 17.1879 41.7557C17.0634 41.4543 16.9995 41.1313 17 40.8051V37.8545C17.0013 37.1963 17.2623 36.5651 17.7262 36.0984C18.1755 35.649 18.3963 35.3719 19.0776 35.3719H19.9948C20.0092 35.156 20.0355 34.941 20.0734 34.7279C20.1986 33.9988 20.4521 33.2977 20.8221 32.6572C21.072 32.231 21.3751 31.8384 21.7243 31.489C22.0814 31.1294 22.4902 30.8253 22.9372 30.5865C23.3724 30.3548 23.8409 30.1919 24.326 30.1035C24.4308 30.1035 24.5394 30.0698 24.6517 30.0586C24.7565 30.0586 24.8651 30.0511 24.9774 30.0361L25.8534 30.081H25.8908C26.1364 30.1172 26.3791 30.171 26.617 30.2421C26.8721 30.3201 27.1222 30.4139 27.3657 30.5229C27.5032 30.5794 27.6369 30.6444 27.7663 30.7176C27.8224 30.3432 27.901 29.9051 27.9497 29.7403C27.8914 29.6681 27.8289 29.5993 27.7625 29.5344C27.6963 29.4657 27.6263 29.4007 27.5529 29.3396L27.3695 29.4407L27.1636 29.5381C26.896 29.6575 26.6142 29.7418 26.325 29.789C26.0369 29.8367 25.7442 29.8505 25.4528 29.8302H25.2244C25.0557 29.8152 24.8881 29.789 24.7228 29.7515C24.2622 29.639 23.8258 29.4436 23.4351 29.1749C23.0331 28.8997 22.6812 28.5577 22.3944 28.1639C22.2743 28.0023 22.1643 27.8335 22.0649 27.6584C21.96 27.479 21.8674 27.2925 21.7879 27.1005C21.7713 27.062 21.7628 27.0206 21.7628 26.9788C21.7628 26.9369 21.7713 26.8955 21.7879 26.8571C21.8189 26.7786 21.8794 26.7154 21.9564 26.6811H21.9863C22.1436 26.6212 22.297 26.5688 22.4505 26.5201C22.604 26.4714 22.7537 26.4302 22.9072 26.3928C23.0607 26.3553 23.2217 26.3179 23.3827 26.2917C23.541 26.2613 23.701 26.24 23.8618 26.228C24.349 26.1773 24.8409 26.1987 25.3218 26.2917C25.7569 26.377 26.173 26.5406 26.5496 26.7747C26.9153 26.9895 27.2327 27.2776 27.4818 27.6209C27.7247 27.9901 27.8962 28.4016 27.9871 28.8341L28.2529 29.0813C28.3007 28.9856 28.3545 28.8931 28.4139 28.8042C28.4738 28.7106 28.5412 28.617 28.6086 28.5308C28.8367 28.2469 29.1114 28.0038 29.4209 27.8119C29.7336 27.622 30.0695 27.4735 30.4204 27.3701C30.5007 27.3482 30.5863 27.3576 30.66 27.3963C30.7341 27.4374 30.789 27.506 30.8128 27.5873C30.8366 27.6686 30.8275 27.756 30.7873 27.8306C30.7677 27.8675 30.7405 27.8999 30.7077 27.9257C30.6748 27.9515 30.6369 27.9701 30.5964 27.9804C30.3003 28.0675 30.0171 28.1934 29.7541 28.3549C29.3698 28.5887 29.0536 28.9192 28.8369 29.3134C28.7582 29.456 28.6918 29.6051 28.6385 29.759L28.6123 29.8264C28.5582 30.0171 28.5157 30.211 28.485 30.4068C28.4513 30.5791 28.4214 30.7813 28.3952 30.931C28.4089 30.9362 28.4216 30.9438 28.4326 30.9535C29.0495 30.9961 29.6577 31.122 30.2407 31.3279C30.796 31.5233 31.3138 31.812 31.7718 32.1817C32.1578 32.5001 32.4891 32.8796 32.7526 33.305C32.8372 33.4407 32.9147 33.5806 32.9847 33.7244C33.0008 33.2633 33.101 32.8089 33.2804 32.3839C33.4968 31.8915 33.8487 31.4708 34.2949 31.1707C34.7643 30.8477 35.3105 30.654 35.8784 30.609C35.3192 30.1397 34.9255 29.503 34.7554 28.793C35.1496 28.7424 35.5496 28.7588 35.9383 28.8416C36.5019 28.9621 37.0461 29.1599 37.5555 29.4295C37.6098 29.4598 37.6728 29.4705 37.7341 29.4596C37.7953 29.4488 37.8508 29.4171 37.8914 29.3699C37.9319 29.3228 37.9549 29.2631 37.9564 29.2009C37.958 29.1388 37.938 29.078 37.8999 29.0289C37.5803 28.6287 37.3735 28.1504 37.3009 27.6434C37.266 27.2551 37.344 26.865 37.5256 26.5201C37.8708 26.5771 38.1884 26.7439 38.4315 26.9956C38.8782 27.4765 39.2356 28.0331 39.4871 28.6394C39.5044 28.676 39.5294 28.7083 39.5604 28.7342C39.5914 28.7601 39.6278 28.7789 39.6668 28.7892C39.7012 28.7988 39.7372 28.8015 39.7727 28.7971C39.8081 28.7927 39.8424 28.7812 39.8734 28.7635C39.9044 28.7457 39.9315 28.7219 39.9533 28.6936C39.975 28.6652 39.9909 28.6328 40 28.5982C40.1378 28.0057 40.4179 27.4556 40.8161 26.9956C41.0859 26.6942 41.4433 26.4847 41.8381 26.3965C41.9571 26.7401 42.0005 27.1054 41.9653 27.4674C41.9102 28.0449 41.7597 28.6093 41.5199 29.1374C41.4989 29.1824 41.4912 29.2324 41.4979 29.2815C41.5045 29.3306 41.5251 29.3768 41.5573 29.4145C41.602 29.4689 41.6661 29.5037 41.7361 29.5114C41.806 29.5191 41.8762 29.4991 41.9316 29.4557C42.2843 29.1757 42.6989 28.9844 43.1408 28.8978C43.5703 28.8162 44.01 28.8036 44.4435 28.8604C44.3165 29.5428 43.9598 30.1612 43.4328 30.6128C43.9141 30.6899 44.3757 30.8604 44.7917 31.1145C44.8921 31.1699 44.9884 31.2325 45.0799 31.3017C45.1713 31.3678 45.2588 31.4391 45.342 31.5152C45.4243 31.595 45.4992 31.6737 45.5666 31.7511C45.6359 31.835 45.7009 31.9225 45.7612 32.0132C45.8143 32.0993 45.863 32.188 45.9072 32.279C46.0627 31.4853 46.3772 30.7312 46.8319 30.0623C47.4319 29.1579 48.3322 28.4948 49.3737 28.1901C50.3605 27.9294 51.4023 27.9659 52.3685 28.2949C52.711 28.3978 53.0638 28.463 53.4204 28.4897C53.4247 28.2227 53.446 27.9563 53.4841 27.6921L53.5177 27.5049C52.81 27.9147 51.9923 28.094 51.1781 28.0179C49.2726 27.7857 48.3517 26.2018 47.603 24.6479L48.625 24.5393C51.208 24.1573 52.784 25.0036 53.7161 26.6399L53.7573 26.5201C54.0564 25.5997 54.5892 24.7727 55.3034 24.1199C55.3469 24.0786 55.3981 24.0463 55.4541 24.0247C55.5101 24.0032 55.5698 23.993 55.6297 23.9945C55.6897 23.9961 55.7488 24.0095 55.8036 24.0339C55.8584 24.0583 55.9078 24.0932 55.9491 24.1367C55.9904 24.1803 56.0228 24.2315 56.0443 24.2875C56.0658 24.3435 56.076 24.4032 56.0745 24.4632C56.0729 24.5232 56.0595 24.5822 56.0351 24.6371C56.0107 24.6919 55.9758 24.7413 55.9323 24.7827C55.3326 25.3321 54.8851 26.0274 54.6333 26.8009C54.4502 27.3472 54.348 27.9175 54.3301 28.4934C54.6372 28.4672 54.9401 28.4044 55.2323 28.3062H55.2847C55.9849 28.1283 56.7093 28.0651 57.4297 28.119C58.0461 28.1736 58.6455 28.3506 59.1929 28.6394C59.9116 28.9922 60.5344 29.5136 61.0082 30.159C61.4821 30.8045 61.793 31.5549 61.9144 32.3464C62.059 33.4188 61.9696 34.5097 61.6523 35.5442L61.6374 35.5517ZM20.8333 35.3869H28.8332C28.8557 35.0853 28.8557 34.7824 28.8332 34.4808C28.8122 34.188 28.7672 33.8974 28.6984 33.6121C28.583 33.1217 28.3801 32.6561 28.0994 32.2378C27.849 31.8603 27.5178 31.5431 27.1299 31.3092C26.7026 31.1082 26.2488 30.9695 25.7822 30.8973C25.3471 30.826 24.9033 30.826 24.4683 30.8973C24.0655 30.9701 23.6764 31.1053 23.3153 31.298C22.9429 31.4957 22.6022 31.7482 22.3045 32.0469C21.9988 32.3521 21.7356 32.6972 21.5221 33.0729C21.302 33.4586 21.1298 33.8698 21.0093 34.2973C20.958 34.4821 20.9168 34.6696 20.8857 34.8589C20.8558 35.0337 20.8333 35.2097 20.8184 35.3869H20.8333ZM29.6642 35.3869H32.6777C32.6777 35.3045 32.6553 35.2222 32.6403 35.1435C32.6253 35.0649 32.6066 34.9675 32.5841 34.8739C32.4812 34.4699 32.313 34.0855 32.0863 33.7356C31.8676 33.3895 31.5946 33.081 31.2777 32.822C30.9139 32.5302 30.5057 32.2989 30.0685 32.1367C29.6613 31.9859 29.2379 31.8829 28.807 31.8297C28.9411 32.0308 29.0588 32.2424 29.1589 32.4625C29.3011 32.7755 29.4127 33.1015 29.492 33.4361C29.5686 33.7548 29.6199 34.0791 29.6455 34.4059C29.6699 34.7362 29.6699 35.0678 29.6455 35.3981L29.6642 35.3869ZM33.8083 35.3869H45.4131C45.4505 35.2371 45.4842 35.0836 45.5104 34.9338C45.6163 34.4256 45.6503 33.9051 45.6115 33.3874C45.5882 33.014 45.4752 32.6518 45.2821 32.3315C45.237 32.2615 45.1883 32.194 45.1361 32.1293C45.0837 32.0659 45.0275 32.0059 44.9676 31.9495C44.9002 31.8934 44.8328 31.8372 44.7617 31.7848C44.686 31.7293 44.6073 31.678 44.5259 31.6312C44.1657 31.4178 43.768 31.2754 43.3542 31.2119C43.0027 31.1632 42.6462 31.1632 42.2948 31.2119C41.9161 31.3438 41.5246 31.4354 41.1268 31.4852C40.6739 31.5439 40.2169 31.5652 39.7604 31.5489C39.3636 31.5489 38.9743 31.5114 38.6074 31.4702C38.2417 31.4325 37.879 31.37 37.5218 31.283C37.0355 31.1938 36.5409 31.1587 36.0469 31.1782C35.5667 31.2101 35.1038 31.3705 34.7067 31.6425C34.3295 31.8727 34.0296 32.2104 33.8457 32.6123C33.6573 33.0725 33.5717 33.5684 33.5949 34.0651C33.6112 34.5096 33.6727 34.9512 33.7783 35.3832L33.8083 35.3869ZM47.019 35.3869H60.6528C60.9529 34.4598 61.0437 33.4776 60.9186 32.5112C60.8191 31.8746 60.5669 31.2716 60.1836 30.7539C59.8002 30.2361 59.2972 29.8189 58.7174 29.5381C58.2885 29.3115 57.8191 29.1716 57.3361 29.1262C56.7361 29.0804 56.1326 29.1272 55.5467 29.2648C55.0052 29.4405 54.4389 29.5278 53.8696 29.5231C53.2686 29.5225 52.6708 29.4342 52.0952 29.261C51.3124 28.9912 50.4676 28.9574 49.6657 29.1637C48.8546 29.4046 48.1529 29.9211 47.6816 30.624C47.1605 31.4036 46.858 32.3087 46.8057 33.2451C46.7608 33.9624 46.8342 34.6822 47.0228 35.3757L47.019 35.3869ZM36.3014 34.8589C36.7132 34.3347 36.8592 34.009 36.8592 33.7356C36.8622 33.6601 36.8501 33.5848 36.8235 33.5141C36.7969 33.4434 36.7564 33.3787 36.7044 33.3239C36.6524 33.2691 36.59 33.2253 36.5208 33.195C36.4515 33.1648 36.377 33.1487 36.3014 33.1477C36.2278 33.1479 36.155 33.1635 36.0877 33.1934C36.0205 33.2234 35.9602 33.2672 35.9109 33.3218C35.8615 33.3765 35.8241 33.4409 35.8011 33.5108C35.7781 33.5808 35.77 33.6548 35.7773 33.7281C35.7773 34.0165 35.8971 34.2486 36.3014 34.8739V34.8589ZM26.9914 28.924C26.899 28.8691 26.8017 28.8167 26.6994 28.7667C26.5833 28.7068 26.4635 28.6544 26.3438 28.6057C25.9549 28.445 25.5494 28.3282 25.1346 28.2575C24.7137 28.1808 24.2857 28.1494 23.8581 28.1639C23.7744 28.1643 23.6938 28.132 23.6335 28.074C23.6028 28.0457 23.5781 28.0116 23.5607 27.9737C23.5434 27.9358 23.5338 27.8948 23.5324 27.8531C23.5321 27.7701 23.5628 27.69 23.6185 27.6284C23.6467 27.5979 23.6808 27.5736 23.7188 27.5568C23.7568 27.5401 23.7978 27.5313 23.8394 27.5311C24.3069 27.5165 24.7747 27.5491 25.2357 27.6284C25.6936 27.7035 26.1418 27.8291 26.5721 28.0029L26.8678 28.1302L27.085 28.2425C26.9887 28.0626 26.8705 27.8953 26.7331 27.7445C26.5809 27.5714 26.4043 27.4213 26.209 27.2989C25.8981 27.0987 25.5529 26.9578 25.1908 26.8833C24.7762 26.8053 24.3526 26.7877 23.9329 26.8309C23.7944 26.8309 23.6522 26.8646 23.5099 26.8908C23.3677 26.917 23.2179 26.9469 23.0719 26.9844L22.7874 27.0593L22.5329 27.1379C22.589 27.2502 22.6489 27.3551 22.7088 27.4562C22.7687 27.5573 22.8473 27.6696 22.9185 27.767C23.1637 28.1029 23.4636 28.3953 23.8057 28.6319C24.1349 28.8581 24.5029 29.0218 24.8913 29.115C25.2314 29.199 25.5827 29.228 25.932 29.2011C26.2761 29.1721 26.6135 29.0887 26.9315 28.954L26.9914 28.924ZM42.9124 34.8589C43.328 34.3347 43.4702 34.009 43.4702 33.7356C43.4732 33.6601 43.4611 33.5848 43.4345 33.5141C43.4079 33.4434 43.3674 33.3787 43.3154 33.3239C43.2634 33.2691 43.201 33.2253 43.1318 33.195C43.0625 33.1648 42.988 33.1487 42.9124 33.1477C42.8391 33.1484 42.7667 33.1644 42.6999 33.1946C42.6331 33.2248 42.5733 33.2686 42.5243 33.3232C42.4754 33.3778 42.4383 33.442 42.4156 33.5117C42.3928 33.5814 42.3848 33.6551 42.3921 33.7281C42.3921 34.0165 42.5119 34.2486 42.9124 34.8739V34.8589ZM39.854 34.8589C40.2658 34.3347 40.4118 34.009 40.4118 33.7356C40.4148 33.6601 40.4026 33.5848 40.3761 33.5141C40.3495 33.4434 40.309 33.3787 40.257 33.3239C40.205 33.2691 40.1425 33.2253 40.0733 33.195C40.0041 33.1648 39.9295 33.1487 39.854 33.1477C39.7805 33.1485 39.708 33.1644 39.641 33.1946C39.574 33.2248 39.514 33.2685 39.4648 33.323C39.4155 33.3776 39.3781 33.4417 39.3549 33.5114C39.3317 33.5812 39.3232 33.6549 39.3299 33.7281C39.3299 34.0165 39.4497 34.2486 39.854 34.8739V34.8589ZM48.7822 25.2208C50.4818 25.8086 51.5824 26.0445 53.0086 27.1454C51.3278 26.595 50.2572 26.2467 48.7822 25.2208ZM50.7176 42.3179V51.0874H46.3714V42.3179H50.7176ZM33.6286 42.3179V51.0874H29.2824V42.3179H33.6286ZM42.1712 42.3179V51.0874H37.8288V42.3179H42.1712Z" fill="black"/>
</g>
<defs>
<clipPath id="clip0_164_2">
<rect width="46" height="32" fill="white" transform="translate(17 24)"/>
</clipPath>
</defs>
</svg>
