<svg width="80" height="80" viewBox="0 0 80 80" fill="none" xmlns="http://www.w3.org/2000/svg">
<circle cx="40" cy="40" r="40" fill="#F1F1F1"/>
<path fill-rule="evenodd" clip-rule="evenodd" d="M40.4885 50.7051C41.0393 50.7051 41.4846 51.1446 41.4846 51.6882C41.4846 52.2319 41.0393 52.6714 40.4885 52.6714C39.9376 52.6714 39.4923 52.2319 39.4923 51.6882C39.4923 51.1446 39.9376 50.7051 40.4885 50.7051ZM40.4885 48.4783C41.3856 48.4783 42.2004 48.8364 42.7875 49.4192C43.2163 49.8424 43.5263 50.386 43.6649 50.9948H46.297C49.1667 50.9948 51.7758 49.8359 53.6658 47.9672C54.9357 46.7139 55.8857 45.1382 56.3706 43.3803C56.3772 43.3477 56.3838 43.3184 56.3969 43.2891C56.6179 42.459 56.7334 41.5898 56.7334 40.6945V35.6062C56.7334 35.3816 56.641 35.1765 56.4893 35.0267C56.3376 34.877 56.1298 34.7858 55.9022 34.7858H54.3024C54.2661 34.7891 54.2266 34.7923 54.187 34.7891L51.8813 34.7858H25.1011C24.8735 34.7858 24.6624 34.8802 24.5107 35.0267C24.359 35.1765 24.2666 35.3816 24.2666 35.6095V40.6912C24.2666 43.5235 25.4409 46.0986 27.3309 47.964C29.2242 49.8326 31.83 50.9883 34.6997 50.9883H37.3087C37.444 50.3795 37.754 49.8391 38.1861 49.4126C38.7766 48.8364 39.5913 48.4783 40.4885 48.4783ZM43.6913 52.2449C43.5725 52.909 43.2493 53.5015 42.7875 53.9573C42.2004 54.5368 41.3856 54.8981 40.4885 54.8981C39.5913 54.8981 38.7766 54.54 38.1894 53.9573C37.7276 53.5015 37.4044 52.909 37.2856 52.2449H34.7029C31.4836 52.2449 28.5579 50.946 26.437 48.8527C25.8202 48.2439 25.2693 47.5635 24.801 46.8311V51.991C24.801 53.5764 25.4574 55.0153 26.5162 56.0603C27.575 57.1053 29.0329 57.7532 30.6392 57.7532H50.529C52.132 57.7532 53.59 57.1053 54.6455 56.0603C55.7043 55.0153 56.3607 53.5796 56.3607 51.9975V46.5739C55.8593 47.404 55.2557 48.1691 54.563 48.8494C52.4421 50.9427 49.5163 52.2416 46.297 52.2416H43.6913V52.2449ZM38.5094 51.5287C38.5127 51.558 38.516 51.5873 38.516 51.6166C38.516 51.6589 38.5127 51.698 38.5028 51.737C38.516 52.2579 38.737 52.7267 39.0833 53.0685C39.4428 53.4234 39.9376 53.6415 40.4852 53.6415C41.0327 53.6415 41.5275 53.4234 41.887 53.0685C42.2465 52.7137 42.4675 52.2254 42.4675 51.685C42.4675 51.1446 42.2465 50.6562 41.887 50.3014C41.5275 49.9465 41.0327 49.7284 40.4852 49.7284C39.9376 49.7284 39.4395 49.9465 39.0833 50.3014C38.7601 50.6204 38.549 51.0501 38.5094 51.5287ZM23.5344 44.1323C23.188 43.0449 23 41.8893 23 40.6945V35.6127C23 35.043 23.2375 34.5221 23.6168 34.1477C23.9961 33.7734 24.5239 33.539 25.1011 33.539H26.2721L36.1939 22.2685C36.3489 22.0927 36.5006 21.9104 36.6589 21.7216C37.6584 20.5204 38.9184 19.0098 40.5577 19C42.2465 18.9903 43.4241 20.4227 44.3773 21.5849C44.4796 21.7086 44.5786 21.8291 44.7237 22.0016L54.5201 33.5357H55.9022C56.4794 33.5357 57.0039 33.7701 57.3832 34.1445C57.7625 34.5189 58 35.0365 58 35.6062V40.6912C58 41.6874 57.8714 42.6575 57.6273 43.5821V51.9942C57.6273 53.9215 56.829 55.6729 55.5426 56.9425C54.2562 58.2122 52.4817 59 50.529 59H30.6392C28.6833 59 26.9087 58.2122 25.619 56.9393C24.3326 55.6697 23.5311 53.915 23.5311 51.9845V44.1323H23.5344ZM47.6098 33.5357H52.8709L43.7539 22.8024C43.6715 22.708 43.5362 22.542 43.3977 22.3727C42.6127 21.4156 41.6462 20.2404 40.561 20.2469C39.5187 20.2534 38.4665 21.5133 37.6287 22.516C37.4539 22.7243 37.2889 22.9229 37.1438 23.0857L27.9675 33.5129L47.6098 33.5357Z" fill="black"/>
</svg>
