<svg width="80" height="80" viewBox="0 0 80 80" fill="none" xmlns="http://www.w3.org/2000/svg">
<circle cx="40" cy="40" r="40" fill="#F1F1F1"/>
<path d="M57.0938 20H24.9062C22.7523 20 21 21.7523 21 23.9062V47.8125C21 49.9664 22.7523 51.7188 24.9062 51.7188H37.0938V55.3125H36.3125C35.2694 55.3125 34.2889 55.719 33.5507 56.4569C32.8127 57.1951 32.4062 58.1757 32.4062 59.2188C32.4062 59.6503 32.756 60 33.1875 60H48.8125C49.244 60 49.5938 59.6503 49.5938 59.2188C49.5938 57.0648 47.8414 55.3125 45.6875 55.3125H44.9062V51.7188H57.0938C59.2477 51.7188 61 49.9664 61 47.8125V23.9062C61 21.7523 59.2477 20 57.0938 20ZM24.9062 21.5625H57.0938C58.3862 21.5625 59.4375 22.6138 59.4375 23.9062V43.9062H55.8438V25.9375C55.8438 25.506 55.494 25.1562 55.0625 25.1562H48.8125C48.381 25.1562 48.0312 25.506 48.0312 25.9375V43.9062H44.1207C44.1125 43.0981 44.0914 42.3016 44.0579 41.5289C43.9211 38.3472 43.6096 36.2158 43.4475 35.2783C45.0594 34.0915 45.4995 31.8918 44.5141 30.1828L41.8063 25.4929C41.6665 25.2512 41.4086 25.1022 41.1297 25.1022C40.8505 25.1022 40.5926 25.2512 40.4531 25.4929L37.7441 30.1831C36.8151 31.7944 37.1444 33.8815 38.6038 35.1132C38.4347 36.048 38.0935 38.2556 37.9452 41.5274C37.9101 42.3083 37.8878 43.1055 37.8793 43.9062H33.9688V32.1875C33.9688 32.0636 33.9395 31.9507 33.8915 31.8503C33.8894 31.8463 33.8882 31.842 33.8864 31.8381L30.7614 25.5881C30.6289 25.3235 30.3585 25.1562 30.0625 25.1562C29.7665 25.1562 29.4961 25.3235 29.3636 25.5881L26.2386 31.8381C26.2368 31.842 26.2356 31.8463 26.2338 31.8503C26.1849 31.9516 26.1562 32.0663 26.1562 32.1875V43.9062H22.5625V23.9062C22.5625 22.6138 23.6138 21.5625 24.9062 21.5625ZM49.5938 43.9062V26.7188H54.2812V28.2812H53.5C53.0685 28.2812 52.7188 28.631 52.7188 29.0625C52.7188 29.494 53.0685 29.8438 53.5 29.8438H54.2812V32.1875H53.5C53.0685 32.1875 52.7188 32.5372 52.7188 32.9688C52.7188 33.4003 53.0685 33.75 53.5 33.75H54.2812V36.0938H53.5C53.0685 36.0938 52.7188 36.4435 52.7188 36.875C52.7188 37.3065 53.0685 37.6562 53.5 37.6562H54.2812V40.7812H53.5C53.0685 40.7812 52.7188 41.131 52.7188 41.5625C52.7188 41.994 53.0685 42.3438 53.5 42.3438H54.2812V43.9062H49.5938ZM41.1297 36.0397C41.4135 36.0397 41.6961 36.0071 41.9726 35.946C42.1176 36.8753 42.3306 38.5196 42.4566 40.7812H39.5486C39.6807 38.5211 39.9038 36.8512 40.0579 35.8905C40.404 35.9891 40.7644 36.0397 41.1297 36.0397ZM41.1297 34.4772C39.3441 34.4772 38.1927 32.5339 39.0975 30.9641L41.1297 27.446L43.1606 30.9637C44.0621 32.5272 42.9266 34.4772 41.1297 34.4772ZM39.4769 42.3438H42.5253C42.5417 42.8571 42.553 43.3792 42.5585 43.9062H39.4418C39.4476 43.3826 39.4595 42.8604 39.4769 42.3438ZM30.8438 43.9062V32.9688H32.4062V43.9062H30.8438ZM27.7188 43.9062V32.9688H29.2812V43.9062H27.7188ZM28.2015 31.4062L30.0625 27.6843L31.9235 31.4062H28.2015ZM47.8973 58.4375H34.1018C34.2166 58.1119 34.4039 57.8134 34.6554 57.5616C35.0985 57.1188 35.6869 56.875 36.3125 56.875H45.6875C46.7062 56.875 47.575 57.5281 47.8973 58.4375ZM43.3438 55.3125H38.6562V51.7188H43.3438V55.3125ZM57.0938 50.1562H24.9062C23.6138 50.1562 22.5625 49.1049 22.5625 47.8125V45.4688H59.4375V47.8125C59.4375 49.1049 58.3862 50.1562 57.0938 50.1562Z" fill="black"/>
</svg>
