<svg width="80" height="80" viewBox="0 0 80 80" fill="none" xmlns="http://www.w3.org/2000/svg">
<circle cx="40" cy="40" r="40" fill="#EDEDED"/>
<g clip-path="url(#clip0_165_11)">
<path fill-rule="evenodd" clip-rule="evenodd" d="M25.3338 30.1875C29.1853 10.6993 52.3805 11.3438 55.4884 31.7813C56.346 37.4493 54.9061 40.5 55.689 46.0625C56.1886 49.6094 57.3728 52.25 58.5058 54.9805C52.7805 57.4959 46.5987 58.825 40.3383 58.8868C34.1776 58.8868 28.0142 57.543 21.8482 54.8555C23.1465 51.8829 24.4604 48.9961 24.7122 47.5508C25.9121 40.7305 24.0395 36.8204 25.3495 30.1954L25.3338 30.1875ZM29.5354 33.0821C29.4989 33.0991 29.4606 33.1122 29.4213 33.1211C31.6834 56.9102 48.6352 56.0508 50.5905 33.1211C50.5495 33.1134 50.5098 33.1003 50.4724 33.0821C47.2142 31.4854 43.6371 30.6338 40.0039 30.5899C36.3683 30.6139 32.7867 31.4666 29.5354 33.0821ZM29.3387 32.1407C32.6618 30.5325 36.3072 29.6887 40.0039 29.6719C43.6985 29.7112 47.3388 30.5595 50.6652 32.1563L50.6888 31.8165C45.1811 25.1563 34.9093 25.1758 29.3111 31.7969C29.3111 31.918 29.3308 32.0352 29.3387 32.1563V32.1407ZM59.1824 56.6563C60.1342 59.0068 60.7461 61.4792 61 64H19.6924C18.1424 64 19.4445 60.418 21.1126 56.5079C27.1534 59.2284 33.7052 60.6502 40.3383 60.6797C46.8298 60.6245 53.2418 59.2555 59.1824 56.6563Z" fill="black"/>
</g>
<defs>
<clipPath id="clip0_165_11">
<rect width="42" height="48" fill="white" transform="translate(19 16)"/>
</clipPath>
</defs>
</svg>
