<svg width="80" height="80" viewBox="0 0 80 80" fill="none" xmlns="http://www.w3.org/2000/svg">
<circle cx="40" cy="40" r="40" fill="#EDEDED"/>
<g clip-path="url(#clip0_165_6)">
<path fill-rule="evenodd" clip-rule="evenodd" d="M37.5049 20C40.8419 19.999 44.1172 20.8918 46.9838 22.5838C49.8504 24.2759 52.2017 26.7041 53.7886 29.6115C55.3756 32.5189 56.1392 35.7972 55.9986 39.0993C55.8581 42.4014 54.8185 45.6044 52.99 48.3691L61 57.0132L55.4782 62.0137L47.7547 53.5849C45.3502 55.1696 42.6046 56.1748 39.7376 56.5202C36.8706 56.8656 33.9618 56.5415 31.2439 55.574C28.526 54.6064 26.0745 53.0223 24.0855 50.9482C22.0966 48.8742 20.6255 46.3678 19.7898 43.6298C18.9542 40.8917 18.7773 37.9979 19.2732 35.18C19.7692 32.3621 20.9242 29.6983 22.646 27.4017C24.3677 25.1051 26.6083 23.2396 29.1884 21.9543C31.7686 20.669 34.6167 19.9997 37.5049 20ZM37.3599 29.6626C37.9509 28.6535 38.9216 27.9175 40.0594 27.6157C41.1972 27.314 42.4094 27.4711 43.4304 28.0527C44.4479 28.6393 45.1899 29.6007 45.4944 30.727C45.7989 31.8534 45.6413 33.0533 45.0559 34.0649C42.5297 38.3989 40.0104 42.6885 37.4842 47.0225C37.1517 47.5953 36.6913 48.0851 36.1382 48.4546C35.4526 48.9163 34.6497 49.1779 33.8213 49.2095C32.9928 49.2412 32.172 49.0417 31.4524 48.6337C30.7329 48.2257 30.1436 47.6257 29.7517 46.9021C29.3598 46.1785 29.1811 45.3603 29.236 44.541C29.2789 43.8713 29.4786 43.2207 29.8192 42.6406C32.3454 38.3032 34.8233 34.0034 37.3565 29.6523L37.3599 29.6626ZM40.8835 39.8242L34.4506 36.126L37.9431 30.1411C38.436 29.2963 39.2476 28.6799 40.1993 28.4277C40.6706 28.3028 41.162 28.271 41.6457 28.3343C42.1293 28.3975 42.5956 28.5544 43.018 28.7961C43.4404 29.0378 43.8106 29.3596 44.1074 29.743C44.4043 30.1264 44.6219 30.5639 44.748 31.0306C44.8741 31.4974 44.9062 31.9841 44.8424 32.4631C44.7785 32.9421 44.6201 33.4039 44.376 33.8223L40.8835 39.8242ZM49.1282 26.8359C46.4351 24.176 42.8941 22.5232 39.1085 22.1589C35.323 21.7947 31.527 22.7415 28.3672 24.8382C25.2075 26.935 22.8795 30.0518 21.7798 33.6578C20.6801 37.2638 20.8768 41.1358 22.3363 44.6143C23.7958 48.0928 26.4279 50.9625 29.7841 52.7346C33.1403 54.5067 37.0131 55.0715 40.7427 54.3329C44.4722 53.5942 47.8278 51.5977 50.2379 48.6836C52.6479 45.7695 53.9632 42.1179 53.9597 38.3511C53.9608 36.211 53.5345 34.0918 52.7053 32.1156C51.8761 30.1393 50.6604 28.345 49.1282 26.8359Z" fill="black"/>
</g>
<defs>
<clipPath id="clip0_165_6">
<rect width="42" height="42" fill="white" transform="translate(19 20)"/>
</clipPath>
</defs>
</svg>
