<svg width="80" height="80" viewBox="0 0 80 80" fill="none" xmlns="http://www.w3.org/2000/svg">
<circle cx="40" cy="40" r="40" fill="#F1F1F1"/>
<path d="M55.4815 48.3539H55.4558V47.8259C55.4558 44.0736 52.4004 41.0208 48.6448 41.0208C44.8892 41.0208 41.8338 44.0736 41.8338 47.8259V53.1948C41.8338 56.0856 39.4794 58.4375 36.5853 58.4375C34.4674 58.4375 32.5785 57.1637 31.7619 55.2636C32.5898 54.8326 33.1568 53.9671 33.1568 52.9713V51.7627C34.5363 50.8955 35.4555 49.3616 35.4555 47.6164V44.3104C38.3139 43.9281 39.7441 41.5477 39.8085 41.4379C40.0009 41.1096 39.9288 40.6905 39.6378 40.4454L36.2045 37.5531L46.5331 34.0412C48.412 33.4022 50.5238 33.9061 51.9578 35.2629C52.756 36.0188 53.9723 36.8877 55.5841 37.2464C56.2391 37.3923 57.8794 37.7717 57.8794 36.634V22.5592C57.8794 21.6925 56.9228 21.7546 56.3227 21.8185C54.7534 21.984 53.3048 22.678 52.0037 23.8878C50.5592 25.233 48.4427 25.7195 46.5691 25.0658L34.5374 20.8641C33.3141 20.3055 31.9625 20 30.5559 20C25.3587 20 21 24.3426 21 29.5473C21 30.6499 21.1887 31.7091 21.5344 32.6952C21.5444 32.7312 21.5566 32.7663 21.5714 32.8001C22.327 34.8768 23.7844 36.6194 25.6557 37.7408V47.6164C25.6557 49.3755 26.5895 50.9204 27.9873 51.7837V52.9713C27.9873 54.2641 28.9425 55.338 30.1847 55.5255C31.1545 58.1871 33.7077 60 36.5854 60C40.341 60 43.3964 56.9472 43.3964 53.1948V47.8259C43.3964 44.9352 45.7509 42.5833 48.6449 42.5833C51.539 42.5833 53.8934 44.9352 53.8934 47.8259V48.3539H53.8677C52.2254 48.3539 50.8892 49.6891 50.8892 51.3303V54.5327C50.8892 54.9642 51.239 55.314 51.6705 55.314H52.443V56.6446C52.443 57.0761 52.7927 57.4259 53.2242 57.4259C53.6557 57.4259 54.0055 57.0761 54.0055 56.6446V55.314H55.2748V56.6446C55.2748 57.0761 55.6246 57.4259 56.0561 57.4259C56.4876 57.4259 56.8373 57.0761 56.8373 56.6446V55.314H57.6788C58.1103 55.314 58.4601 54.9642 58.4601 54.5327V51.3303C58.46 49.6891 57.1238 48.3539 55.4815 48.3539ZM35.4555 42.7296V38.9652L38.0711 41.1686C37.608 41.7049 36.7355 42.4906 35.4555 42.7296ZM52.4513 33.6347V25.5445C53.0072 25.1336 53.4797 24.6296 54.063 24.2523C54.7442 23.8117 55.512 23.5071 56.3169 23.3934V35.7932C55.4929 35.6713 54.7049 35.3534 54.0084 34.9C53.442 34.5313 52.9861 34.042 52.4513 33.6347V33.6347ZM23.4847 33.2671H26.5141C26.9455 33.2671 27.2953 32.9173 27.2953 32.4859C27.2953 32.0544 26.9455 31.7046 26.5141 31.7046H22.8591C22.7341 31.2602 22.6469 30.8004 22.6008 30.3286H26.4369C26.8684 30.3286 27.2181 29.9788 27.2181 29.5473C27.2181 29.1159 26.8684 28.7661 26.4369 28.7661H22.6008C22.6466 28.2973 22.733 27.8404 22.8568 27.3988H26.437C26.8684 27.3988 27.2182 27.049 27.2182 26.6175C27.2182 26.186 26.8684 25.8363 26.437 25.8363H23.4802C24.8199 23.2974 27.4887 21.5625 30.5559 21.5625C33.7595 21.5625 36.7174 23.5372 37.9438 26.4955C38.0884 26.8443 38.4566 27.0328 38.8134 26.9635C38.8645 26.9537 38.9152 26.9385 38.965 26.9178C39.3636 26.7526 39.5527 26.2955 39.3876 25.897C39.0777 25.1494 38.6716 24.439 38.1846 23.7927L46.0543 26.5409C47.6497 27.0977 49.3613 27.0356 50.8888 26.4202V32.7327C49.3595 32.0949 47.6384 32.0148 46.0301 32.5617L38.2553 35.2053C38.705 34.593 39.0834 33.9257 39.3765 33.2247C39.5429 32.8266 39.3552 32.369 38.957 32.2026C38.565 32.0387 38.099 32.2283 37.9344 32.6219C36.7429 35.4709 33.9157 37.4205 30.8308 37.5271C27.7969 37.6297 24.9045 35.9495 23.4847 33.2671V33.2671ZM27.2182 38.4938C29.358 39.2888 31.7524 39.2905 33.893 38.4961V43.5823V47.6163C33.893 48.9364 33.1208 50.0797 32.0038 50.6193C31.1974 51.0092 30.2462 51.0523 29.4056 50.7458C28.1302 50.2767 27.2182 49.0509 27.2182 47.6163V38.4938ZM29.5498 52.9713V52.4096C30.22 52.5492 30.9249 52.5472 31.5943 52.4027V52.9713C31.5943 53.5343 31.1359 53.9922 30.5724 53.9922C30.0085 53.9921 29.5498 53.5341 29.5498 52.9713V52.9713ZM56.8975 53.7515H52.4516V51.3303C52.4516 50.5507 53.0868 49.9164 53.8676 49.9164H55.4815C56.2623 49.9164 56.8975 50.5507 56.8975 51.3303V53.7515Z" fill="black"/>
</svg>
