<svg width="80" height="80" viewBox="0 0 80 80" fill="none" xmlns="http://www.w3.org/2000/svg">
<circle cx="40" cy="40" r="40" fill="#EDEDED"/>
<g clip-path="url(#clip0_165_10)">
<path d="M24.464 15H43.2449C44.1673 15 44.6305 15 45.1606 15.2034C45.6906 15.4067 46.0245 15.7595 46.6756 16.4236L47.239 16.9963C48.9627 18.7354 50.5319 20.3499 52.122 21.981C53.7121 23.6121 55.1979 25.1353 56.8548 26.7954C57.1511 27.0901 57.4057 27.3308 57.6144 27.5342C58.0935 27.913 58.485 28.3901 58.7621 28.9329C59.0083 29.4932 59.0042 29.9912 58.9958 31.0413C58.9958 31.1284 58.9958 30.9417 58.9958 31.7302V62.5552C58.9952 63.0066 58.9049 63.4535 58.7302 63.8702C58.5554 64.2868 58.2996 64.6651 57.9775 64.9832C57.6579 65.3039 57.2776 65.5585 56.8586 65.7323C56.4395 65.9061 55.99 65.9957 55.536 65.9958H24.464C24.01 65.9957 23.5605 65.9061 23.1414 65.7323C22.7224 65.5585 22.3421 65.3039 22.0225 64.9832C21.3715 64.3406 21.0037 63.4673 21 62.5552V18.4531C21.0001 18.001 21.0901 17.5533 21.2649 17.1359C21.4396 16.7185 21.6957 16.3396 22.0183 16.021C22.3384 15.6992 22.7192 15.4434 23.1389 15.2682C23.5586 15.093 24.0089 15.0018 24.464 15V15ZM35.4947 35.752C34.9855 35.752 34.429 35.7229 33.8253 35.6648C33.2118 35.6067 32.6108 35.5444 32.0265 35.4822V33.407H35.6074C35.8185 33.4288 36.0308 33.3775 36.2083 33.2617C36.3119 33.1759 36.379 33.0543 36.3962 32.9214C36.4143 32.8116 36.4241 32.7006 36.4254 32.5894V32.1743C36.4367 31.9883 36.3917 31.8033 36.296 31.6431C36.2343 31.5732 36.1565 31.5194 36.0693 31.4861C35.982 31.4528 35.888 31.4412 35.7952 31.4521H35.19C35.023 31.4376 34.8562 31.4817 34.7184 31.5767C34.6679 31.6214 34.6268 31.6755 34.5975 31.7361C34.5681 31.7966 34.551 31.8623 34.5473 31.9294H32.0432L32.3311 25.5918H38.654V27.9575H34.5932L34.5222 29.4932C34.6887 29.3736 34.8822 29.2967 35.0857 29.269C35.3028 29.2394 35.5217 29.2241 35.7409 29.2234H36.7801C37.2365 29.2043 37.6886 29.3167 38.0823 29.5471C38.4143 29.7623 38.6755 30.0697 38.8335 30.4312C39.0003 30.8251 39.0841 31.2489 39.0797 31.6763V33.158C39.1044 33.6867 38.9676 34.2104 38.6874 34.6604C38.4 35.0625 37.9834 35.3553 37.5063 35.4905C36.8544 35.6855 36.1752 35.7752 35.4947 35.7561V35.752ZM43.0613 35.752C42.5174 35.7726 41.9802 35.6278 41.5212 35.3369C41.1251 35.0653 40.8118 34.6906 40.6156 34.2537C40.3818 33.7372 40.2271 33.1888 40.1565 32.6267C40.0671 31.9734 40.0239 31.3146 40.0271 30.6553C40.0212 29.9453 40.0729 29.2361 40.1815 28.5344C40.2666 27.959 40.4621 27.4053 40.7575 26.9033C41.042 26.4419 41.4593 26.0761 41.9553 25.8533C42.5873 25.5894 43.2693 25.4648 43.9544 25.488C44.4171 25.4844 44.8796 25.5052 45.34 25.5503C45.7064 25.5862 46.0701 25.6444 46.4293 25.7246C46.7674 25.8035 47.118 25.8906 47.4811 25.9902V28.0447C47.2807 28.0073 47.0261 27.9783 46.7173 27.9492C46.4085 27.9202 46.062 27.8994 45.6781 27.8828C45.2941 27.8662 44.8976 27.8662 44.4678 27.8662C44.0612 27.839 43.6548 27.9207 43.2908 28.1028C43.1527 28.2028 43.0367 28.3299 42.9498 28.4763C42.863 28.6226 42.8072 28.785 42.7858 28.9536C42.69 29.5198 42.6481 30.0937 42.6606 30.6677C42.6555 31.1253 42.6792 31.5827 42.7316 32.0374C42.7578 32.3183 42.8341 32.5923 42.9569 32.8467C43.0439 33.0287 43.1913 33.1752 43.3743 33.2617C43.5609 33.3376 43.7612 33.3743 43.9628 33.3696C44.264 33.3716 44.5651 33.355 44.8642 33.3198C45.1286 33.2894 45.3289 33.2603 45.4652 33.2327V31.8921H44.0421V29.8169C44.2466 29.7878 44.4845 29.7671 44.7641 29.7463L45.6238 29.6841C45.9201 29.6841 46.1914 29.6633 46.4585 29.6633C46.7882 29.6633 47.0762 29.6633 47.3266 29.6633H48.0194V35.6897H45.9994L45.6447 35.0215C45.3203 35.2161 44.9762 35.376 44.618 35.4988C44.1185 35.6755 43.5914 35.7626 43.0613 35.7561V35.752ZM44.1714 40.5498V45.5593H49.4009V42.3469C49.3987 41.8728 49.2086 41.4186 48.8719 41.083C48.5351 40.7473 48.0789 40.5572 47.6021 40.554L44.1714 40.5498ZM44.1714 47.4519V50.8801H49.4009V47.4561L44.1714 47.4519ZM44.1714 52.781V57.998H47.6021C48.0785 57.9937 48.5341 57.8033 48.8707 57.4678C49.2072 57.1324 49.3976 56.6789 49.4009 56.2051V52.7686L44.1714 52.781ZM42.26 57.998V51.897C42.2579 51.8763 42.2579 51.8554 42.26 51.8347C42.2579 51.8126 42.2579 51.7904 42.26 51.7683V46.572C42.2579 46.5513 42.2579 46.5305 42.26 46.5098C42.2578 46.4877 42.2578 46.4654 42.26 46.4434V40.554H32.4063C31.9273 40.5553 31.4683 40.7447 31.1292 41.0811C30.7966 41.4116 30.6078 41.8587 30.6033 42.3262V45.5054H36.584C36.8371 45.5065 37.0796 45.6069 37.2586 45.785C37.4376 45.963 37.5386 46.2041 37.5397 46.4558V57.9814L42.26 57.998ZM35.6282 52.6648H30.5991V56.2092C30.6024 56.6837 30.7934 57.1379 31.1308 57.4734C31.4682 57.809 31.9249 57.9989 32.4021 58.0022H35.6241V52.6648H35.6282ZM30.5991 50.7639H35.6074V47.4436H30.5991V50.7639ZM32.4021 38.6946H47.6021C48.5744 38.699 49.5056 39.0853 50.1927 39.7694C50.8799 40.4535 51.2673 41.38 51.2706 42.3469V56.2092C51.2684 57.1761 50.8812 58.1028 50.1937 58.7865C49.5062 59.4702 48.5744 59.8552 47.6021 59.8574H32.4063C31.4333 59.8563 30.5004 59.4717 29.812 58.7879C29.1235 58.1041 28.7358 57.1768 28.7336 56.2092V42.3469C28.7352 41.3799 29.1224 40.453 29.8103 39.7695C30.1495 39.429 30.5532 39.1586 30.998 38.9741C31.4429 38.7896 31.9201 38.6946 32.4021 38.6946ZM42.4186 17.2371H24.464C24.3044 17.2368 24.1464 17.2678 23.9989 17.3284C23.8513 17.3889 23.7173 17.4778 23.6043 17.5898C23.4905 17.7025 23.4002 17.8364 23.3386 17.9838C23.277 18.1312 23.2453 18.2893 23.2454 18.449V62.5552C23.245 62.7143 23.2765 62.8718 23.3381 63.0187C23.3998 63.1655 23.4903 63.2986 23.6043 63.4102C23.7165 63.5236 23.8503 63.6135 23.998 63.6748C24.1456 63.7361 24.304 63.7675 24.464 63.7671H55.536C55.6964 63.7671 55.8552 63.7356 56.0033 63.6744C56.1514 63.6133 56.286 63.5236 56.3992 63.4107C56.5124 63.2977 56.6021 63.1636 56.6631 63.0161C56.7241 62.8686 56.7552 62.7105 56.7546 62.551V31.7302C56.7546 31.4604 56.7546 31.5269 56.7546 31.033C56.7884 30.6285 56.7716 30.2214 56.7046 29.821C56.5179 29.5673 56.3006 29.3374 56.0577 29.1362C55.8406 28.9287 55.5819 28.6797 55.2647 28.3601C53.5953 26.7 52.0594 25.1145 50.5152 23.5291C48.971 21.9436 47.3558 20.2793 45.6238 18.5693L45.0604 17.98C44.8334 17.7117 44.5757 17.4708 44.2925 17.262C43.9504 17.2064 43.6027 17.1939 43.2574 17.2246H42.4227L42.4186 17.2371Z" fill="black"/>
</g>
<defs>
<clipPath id="clip0_165_10">
<rect width="38" height="51" fill="white" transform="translate(21 15)"/>
</clipPath>
</defs>
</svg>
