<svg width="80" height="80" viewBox="0 0 80 80" fill="none" xmlns="http://www.w3.org/2000/svg">
<circle cx="40" cy="40" r="40" fill="#EDEDED"/>
<g clip-path="url(#clip0_164_3)">
<path d="M22.0866 39.208C22.121 39.3234 22.1299 39.445 22.1126 39.5642C21.7384 39.2759 21.3459 39.012 20.9375 38.774C20.6868 38.6259 20.3927 38.5676 20.1042 38.6089C19.9052 37.359 19.992 36.0806 20.3581 34.8687C20.7738 33.4952 21.5189 32.2427 22.5293 31.2192C23.557 30.1747 24.8352 29.408 26.2435 28.9913C26.8203 28.8202 27.414 28.7116 28.0143 28.6675L28.0664 28.5412C28.6943 27.0289 29.8328 25.7818 31.2858 25.0148C32.3008 24.4768 33.4367 24.2049 34.5866 24.2247C34.6303 24.1377 34.6886 24.0589 34.7591 23.9915C34.8763 23.8771 35.0065 23.7638 35.1497 23.6515C36.735 22.3789 39.095 21.8608 41.3965 22.0324C43.6979 22.204 45.9863 23.0589 47.4251 24.5388C47.5488 24.6651 47.6693 24.8043 47.7897 24.95C47.822 24.9912 47.8513 25.0344 47.8776 25.0796C49.325 25.4648 50.5916 26.341 51.4583 27.5568C51.709 27.918 51.9166 28.3071 52.0768 28.7161C52.6013 28.7594 53.1203 28.8537 53.6263 28.9978C54.8523 29.3463 55.9853 29.9613 56.9434 30.7983C58.8574 32.466 60.1725 35.0954 59.9674 38.5959C59.7486 38.6033 59.535 38.6645 59.3457 38.774C58.9052 39.0254 58.4841 39.309 58.0859 39.6224C58.0712 39.5291 58.0712 39.4341 58.0859 39.3407C58.5286 35.9989 57.4349 33.5572 55.7357 32.0871C54.9829 31.4297 54.0938 30.9454 53.1315 30.6687C52.2458 30.4112 51.3123 30.3602 50.4036 30.5198C49.675 30.6403 48.9919 30.9519 48.4249 31.4227C47.8578 31.8935 47.4273 32.5063 47.1777 33.1978C47.0935 33.4186 46.9258 33.5978 46.7104 33.697C46.495 33.7963 46.2491 33.8077 46.0254 33.7289C45.9151 33.6931 45.8131 33.6358 45.7254 33.5602C45.6377 33.4847 45.5662 33.3924 45.5149 33.2889C45.4636 33.1854 45.4337 33.0727 45.4269 32.9575C45.4201 32.8423 45.4365 32.7269 45.4753 32.6182C45.8261 31.635 46.4343 30.7629 47.2372 30.0917C48.04 29.4206 49.0084 28.9748 50.0423 28.8003H50.1237C50.0673 28.7031 50.0087 28.6092 49.9479 28.5186C49.2978 27.6283 48.3524 26.9952 47.2786 26.7311C46.0769 26.4166 44.8125 26.4278 43.6165 26.7634L43.457 26.8088C44.5317 27.2718 45.5048 27.9395 46.3216 28.7744C46.4051 28.8539 46.4716 28.9494 46.517 29.0551C46.5624 29.1609 46.5858 29.2747 46.5858 29.3896C46.5858 29.5046 46.5624 29.6184 46.517 29.7242C46.4716 29.8299 46.4051 29.9254 46.3216 30.0049C46.1476 30.1659 45.9179 30.254 45.6803 30.251C45.4427 30.248 45.2154 30.154 45.0456 29.9887C44.1935 29.0762 43.0912 28.4322 41.875 28.1365C41.0476 27.9668 40.189 28.0331 39.3978 28.3275C38.5641 28.6413 37.8105 29.1344 37.1907 29.7718C36.2984 30.6738 35.6297 31.7704 35.2376 32.9744L35.4622 33.0003C38.0013 33.3241 40.3288 34.4154 41.8978 35.9989C41.9792 36.0805 42.0432 36.1778 42.0858 36.2847C42.1284 36.3916 42.1488 36.5061 42.1458 36.6211C42.1428 36.7361 42.1163 36.8492 42.0681 36.9538C42.0199 37.0584 41.9509 37.1521 41.8652 37.2294C41.69 37.3888 41.4596 37.4744 41.2223 37.4684C40.985 37.4624 40.7592 37.3651 40.5924 37.197C39.2904 35.9017 37.3633 34.995 35.2311 34.723C33.1588 34.448 31.0516 34.8108 29.1927 35.7625C28.9824 35.8715 28.7378 35.8952 28.5103 35.8288C28.2827 35.7624 28.0898 35.611 27.972 35.4063C27.9163 35.3053 27.8817 35.1942 27.8701 35.0796C27.8585 34.965 27.8702 34.8493 27.9045 34.7393C27.9389 34.6293 27.9951 34.5273 28.0699 34.4394C28.1447 34.3515 28.2365 34.2794 28.3398 34.2276C29.9032 33.4186 31.6277 32.9651 33.3887 32.8999C33.8373 31.2628 34.6989 29.7669 35.8919 28.5542C36.6953 27.7342 37.6698 27.0996 38.7467 26.6954C39.2962 26.4923 39.8714 26.3659 40.4557 26.3198C41.2666 25.7654 42.1641 25.3485 43.112 25.086C43.6443 24.9387 44.1891 24.84 44.7396 24.7914C43.6594 24.2649 42.4861 23.9536 41.2858 23.8749C39.7829 23.7273 38.2682 23.994 36.9075 24.6456C37.0378 24.691 37.1647 24.7396 37.2949 24.7914C37.4029 24.8333 37.5013 24.8964 37.5843 24.9769C37.6674 25.0573 37.7333 25.1536 37.7782 25.2599C37.8232 25.3662 37.8462 25.4804 37.8459 25.5957C37.8456 25.711 37.8221 25.8251 37.7767 25.9312C37.6777 26.1435 37.5007 26.3098 37.282 26.396C37.0633 26.4822 36.8198 26.4815 36.6016 26.3943C36.3816 26.3047 36.1566 26.2279 35.9277 26.1644C34.6665 25.794 33.31 25.9264 32.1452 26.5335C31.2092 27.0301 30.4448 27.795 29.9512 28.7291C30.4103 28.7953 30.864 28.8948 31.3086 29.027C31.4207 29.0578 31.5254 29.1107 31.6165 29.1825C31.7077 29.2543 31.7834 29.3436 31.8393 29.445C31.8951 29.5465 31.93 29.6581 31.9417 29.7731C31.9534 29.8882 31.9418 30.0045 31.9075 30.115C31.8329 30.3386 31.6732 30.5241 31.4627 30.6319C31.2521 30.7397 31.0075 30.761 30.7812 30.6914C29.4767 30.2855 28.081 30.2697 26.7676 30.6461C25.6563 30.9775 24.6481 31.5849 23.8379 32.4109C23.024 33.2328 22.4239 34.2399 22.0898 35.3448C21.7104 36.6026 21.7104 37.9436 22.0898 39.2015L22.0866 39.208ZM34.1113 51.986C34.0462 49.499 32.9492 47.4525 31.3639 45.6099C32.1324 47.5474 32.582 49.5954 32.6953 51.6751L29.3359 50.5741C29.4401 48.5535 28.75 46.4778 27.2786 44.3762C27.946 46.3968 28.2975 48.3527 27.7897 49.6512C15.9212 43.3432 29.6745 52.2418 31.2272 52.7826C29.869 53.2492 28.4259 53.4203 26.9954 53.2845C29.069 54.3078 31.2272 54.6835 33.6133 53.2845C35.6315 53.9678 37.845 54.677 40.0391 54.7158C42.3861 54.7612 44.6973 54.0909 46.6797 53.2845C49.069 54.6867 51.237 54.3111 53.2975 53.2845C51.8671 53.4203 50.424 53.2492 49.0657 52.7826C50.6185 52.2321 64.3652 43.3432 52.5032 49.6512C51.9954 48.356 52.3503 46.413 53.0176 44.3762C51.5462 46.4778 50.8431 48.547 50.9668 50.5741L47.6074 51.6751C47.7176 49.5959 48.1638 47.5479 48.929 45.6099C47.347 47.4525 46.2467 49.4958 46.1816 51.986C44.3131 52.7276 42.1354 53.4108 39.9642 53.3655C37.9232 53.3396 35.8789 52.6596 34.1048 51.986H34.1113ZM20.2995 42.3717C20.3743 40.8465 20.5143 41.5168 20.2832 39.8783C21.4355 40.5551 22.2363 41.2707 22.5098 42.0382C23.5286 41.4294 23.6523 40.8335 23.8672 39.8103C24.6973 40.3381 25.7096 40.7817 26.0905 41.6107C26.5104 40.8141 26.875 40.2539 26.8359 39.3019C27.9394 39.7779 28.6458 40.6231 29.2513 41.4618C29.9023 40.6036 30.0228 39.4476 30.0879 38.4275C31.107 39.0811 31.9523 39.9698 32.5521 41.0181C32.6107 39.7908 33.2585 39.2274 34.2578 39.0752C35.498 42.0803 34.3652 45.8755 39.9935 51.3254C45.5664 45.7654 44.7851 42.0511 46.0156 39.0752C47.0182 39.2371 47.6628 39.8006 47.7213 41.0181C48.3214 39.969 49.168 39.0801 50.1888 38.4275C50.2539 39.4476 50.3743 40.6036 51.0254 41.4618C51.6276 40.6231 52.3275 39.7779 53.4375 39.3019C53.3984 40.2539 53.763 40.8141 54.1829 41.6204C54.5638 40.7915 55.5762 40.3478 56.4095 39.82C56.6243 40.8335 56.735 41.4197 57.7669 42.0382C58.0436 41.2707 58.8411 40.5551 59.9935 39.8783C59.7591 41.5168 59.9023 40.8497 59.9935 42.3717C61.1263 65.2368 19.2415 63.8347 20.3157 42.3717H20.2995ZM52.4186 38.379C52.3303 37.9294 52.1814 37.4937 51.9759 37.0837C51.3965 36.0169 50.5792 35.0964 49.5866 34.3927C49.4941 34.3243 49.4165 34.2381 49.3583 34.1392C49.3001 34.0403 49.2626 33.9307 49.248 33.817C49.2334 33.7033 49.2421 33.5879 49.2734 33.4776C49.3047 33.3673 49.3581 33.2644 49.4303 33.1751C49.579 32.9902 49.794 32.8696 50.03 32.8389C50.2661 32.8081 50.505 32.8694 50.6966 33.01C51.9076 33.8762 52.9013 35.0087 53.6003 36.3195C53.916 36.9381 54.1355 37.6009 54.2513 38.2851C54.0698 38.1426 53.8529 38.0517 53.6236 38.022C53.3944 37.9924 53.1613 38.0251 52.9492 38.1167C52.7742 38.19 52.6036 38.2732 52.4381 38.366L52.4186 38.379ZM41.097 44.279C40.049 45.0936 38.8548 45.7024 37.5781 46.073C37.3141 45.5496 37.0867 45.0086 36.8978 44.4539L37.0768 44.4053C38.1108 44.104 39.079 43.6131 39.9316 42.9578C38.9551 41.601 38.3529 39.9916 38.418 38.583C38.4331 38.349 38.5403 38.1304 38.7164 37.9746C38.8926 37.8188 39.1234 37.7383 39.3587 37.7508C39.475 37.7541 39.5895 37.7802 39.6956 37.8276C39.8018 37.875 39.8975 37.9427 39.9773 38.0269C40.0571 38.1112 40.1194 38.2102 40.1608 38.3184C40.2021 38.4266 40.2216 38.5418 40.2181 38.6575C40.1693 39.7325 40.6803 41.0149 41.5202 42.1062C42.0374 42.7933 42.6828 43.3749 43.4212 43.8192C43.2394 44.3786 43.022 44.9259 42.7702 45.4577C42.1707 45.1382 41.6158 44.7419 41.1198 44.279H41.097Z" fill="black"/>
</g>
<defs>
<clipPath id="clip0_164_3">
<rect width="40" height="37" fill="white" transform="translate(20 22)"/>
</clipPath>
</defs>
</svg>
