<svg width="30" height="27" viewBox="0 0 30 27" fill="none" xmlns="http://www.w3.org/2000/svg">
<g clip-path="url(#clip0_126_62)">
<path d="M16.8921 21.0019C16.9763 21.0019 17.0586 21.0264 17.1287 21.0724C17.1988 21.1184 17.2535 21.1838 17.2861 21.2604C17.3186 21.337 17.3275 21.4213 17.3116 21.5028C17.2957 21.5844 17.2557 21.6595 17.1967 21.7187C17.1377 21.7779 17.0622 21.8186 16.9798 21.8356C16.8975 21.8527 16.8118 21.8454 16.7336 21.8146C16.6554 21.7838 16.5882 21.7309 16.5404 21.6626C16.4926 21.5942 16.4663 21.5135 16.4648 21.4305C16.4648 21.3187 16.5099 21.2115 16.59 21.1325C16.6701 21.0535 16.7788 21.0091 16.8921 21.0091V21.0019ZM27.9687 12.6753V25.4373C27.9681 25.8528 27.8004 26.2511 27.5025 26.545C27.2046 26.8388 26.8007 27.0042 26.3794 27.0048H3.62061C3.41178 27.0044 3.20508 26.9634 3.01237 26.884C2.81965 26.8047 2.64471 26.6886 2.49756 26.5425C2.34971 26.3972 2.23241 26.2246 2.15239 26.0345C2.07236 25.8445 2.0312 25.6407 2.03126 25.4348V12.6897C2.46365 12.7664 2.90346 12.7947 3.34229 12.774V25.4324C3.34255 25.4684 3.35002 25.5039 3.36426 25.5369C3.37851 25.57 3.39925 25.6 3.4253 25.6251C3.45108 25.65 3.48162 25.6696 3.51514 25.6829C3.54866 25.6961 3.58451 25.7026 3.62061 25.7021H14.6069V15.9838C14.6089 15.3626 14.8601 14.7674 15.3057 14.3283C15.7513 13.8893 16.355 13.6421 16.9849 13.6409H20.9082C21.5376 13.6428 22.1407 13.8902 22.5858 14.3292C23.0309 14.7682 23.2818 15.363 23.2837 15.9838V25.7045H26.3794C26.4526 25.7045 26.5227 25.6759 26.5745 25.6248C26.6262 25.5738 26.6553 25.5046 26.6553 25.4324V12.7138C27.0931 12.7527 27.5341 12.7398 27.9687 12.6753ZM15.7056 25.7045H22.1802V15.9838C22.1776 15.6512 22.0425 15.3329 21.8041 15.0978C21.5656 14.8626 21.243 14.7294 20.9058 14.7268H16.98C16.6428 14.7294 16.3201 14.8626 16.0817 15.0978C15.8432 15.3329 15.7081 15.6512 15.7056 15.9838V25.7045ZM7.32422 15.4324H11.2549C11.4014 15.4324 11.542 15.4896 11.6459 15.5916C11.7498 15.6936 11.8084 15.832 11.8091 15.9765V21.7387C11.8084 21.8832 11.7498 22.0217 11.6459 22.1236C11.542 22.2256 11.4014 22.2829 11.2549 22.2829H7.32422C7.17766 22.2829 7.03707 22.2256 6.93321 22.1236C6.82934 22.0217 6.77067 21.8832 6.77002 21.7387V15.9765C6.77067 15.832 6.82934 15.6936 6.93321 15.5916C7.03707 15.4896 7.17766 15.4324 7.32422 15.4324ZM10.7031 16.5207H7.87354V21.1897H10.7031V16.5207ZM25.9009 11.1727C25.5957 11.0307 24.8438 10.838 24.6069 10.6069C24.4009 10.4019 24.2266 10.1683 24.0894 9.9134C23.9522 10.1683 23.7778 10.4019 23.5718 10.6069C23.0493 11.1198 21.8628 11.44 21.0596 11.44C20.2563 11.44 19.0698 11.1198 18.5547 10.6069C18.3487 10.4019 18.1743 10.1683 18.0371 9.9134C17.8999 10.1683 17.7255 10.4019 17.5195 10.6069C16.9971 11.1198 15.8105 11.44 15.0073 11.44C14.2041 11.44 13.0176 11.1198 12.4951 10.6069C12.2839 10.4029 12.1046 10.1692 11.9629 9.9134C11.8257 10.1683 11.6513 10.4019 11.4453 10.6069C10.9229 11.1198 9.73633 11.44 8.93311 11.44C8.12989 11.44 6.94336 11.1198 6.4209 10.6069C6.21491 10.4019 6.04053 10.1683 5.90333 9.9134C5.76612 10.1683 5.59174 10.4019 5.38575 10.6069C5.04151 10.944 4.13575 11.1992 3.65723 11.3293C2.69288 11.4448 1.55518 11.3076 0.83985 10.6069C0.572837 10.3431 0.361214 10.0299 0.2171 9.68529C0.0729866 9.34069 -0.000786401 8.97144 6.32132e-06 8.59868V7.4814C0.000748014 7.42592 0.0149813 7.37142 0.0415102 7.32248L2.07276 0.905378C2.23878 0.378043 2.64649 0.0385267 3.43506 0H26.4062C27.1143 0.0746455 27.5757 0.368412 27.7661 0.900562L29.9634 7.31044C29.9913 7.35646 30.0072 7.40858 30.0098 7.46214C30.0109 7.47335 30.0109 7.48464 30.0098 7.49585V8.59868C30.0096 8.97194 29.9347 9.3415 29.7893 9.68613C29.6439 10.0308 29.4309 10.3437 29.1626 10.6069C28.313 11.4448 27.019 11.4232 25.9106 11.1727H25.9009Z" fill="#C4C4C4"/>
</g>
<defs>
<clipPath id="clip0_126_62">
<rect width="30" height="27" fill="white"/>
</clipPath>
</defs>
</svg>
