<svg width="80" height="80" viewBox="0 0 80 80" fill="none" xmlns="http://www.w3.org/2000/svg">
<circle cx="40" cy="40" r="40" fill="#EDEDED"/>
<g clip-path="url(#clip0_165_8)">
<path d="M36.9661 53.7856C36.7448 55.1495 36.1263 56.2657 35.2572 57.1117C34.4792 57.8709 33.5059 58.4081 32.4479 58.7104C31.3965 59.0128 30.2604 59.0804 29.1471 58.9067C27.6628 58.6718 26.2207 57.9995 25.0781 56.8576C22.7962 54.5737 22.8809 52.7305 22.9948 50.2278C23.0111 49.8933 23.0273 49.5459 23.0371 49.2146C23.0892 47.4839 22.9622 45.8144 22.6204 44.042C22.2754 42.2696 21.7122 40.3942 20.8887 38.2583C20.4264 37.0616 20.127 35.4726 20.0326 33.8706C19.9414 32.3105 20.0391 30.7278 20.3678 29.4669C20.6641 28.3378 20.9896 27.273 21.3835 26.3016C21.7839 25.314 22.2559 24.4101 22.8353 23.6124C24.0006 22.0104 25.6087 20.8331 27.3926 20.3088C29.0755 19.8102 30.9147 19.8906 32.6823 20.7301C33.0924 20.9232 33.4863 21.158 33.8607 21.4314C34.2285 21.6984 34.5768 22.004 34.9023 22.3514C36.5299 24.0659 37.3177 25.922 37.5716 27.8842C37.8223 29.8143 37.5456 31.8344 37.041 33.9156C36.8815 34.5719 36.7578 35.0608 36.6309 35.5498L36.6243 35.5819C37.0866 37.9816 36.7546 39.1397 36.0352 42.2245L35.4102 44.8912C35.4557 45.3512 35.5241 45.8144 35.6152 46.2841C35.6836 46.6315 35.7487 46.9596 35.8236 47.2781C35.8952 47.5837 35.9798 47.8764 36.0807 48.1595C36.3965 49.0409 36.696 49.9448 36.8783 50.8744C37.0638 51.8266 37.1289 52.7948 36.9661 53.7856ZM29.6224 25.7708C29.6517 25.3365 30.0326 25.0084 30.472 25.0374C30.9115 25.0663 31.2435 25.4427 31.2142 25.877L31.1263 27.1926C31.123 27.2216 31.1198 27.2473 31.1165 27.273C31.9499 27.495 32.7637 27.9389 33.5189 28.6562C34.7656 29.8432 35.5827 31.5352 36.1328 33.5361C36.5885 31.6124 36.8327 29.7532 36.6081 28C36.3802 26.2308 35.6673 24.5549 34.1927 23.0044C33.903 22.6988 33.597 22.4318 33.278 22.197C32.9525 21.9589 32.6107 21.7563 32.2624 21.589C30.7292 20.8588 29.1341 20.7913 27.6693 21.2223C26.0905 21.6887 24.6647 22.7342 23.623 24.1656C23.0957 24.8926 22.6595 25.729 22.2852 26.649C21.9043 27.5883 21.5885 28.6112 21.3053 29.6953C21.0026 30.8533 20.9115 32.3362 20.9993 33.8063C21.0872 35.3117 21.3639 36.7979 21.7936 37.9076L21.8164 37.9688C21.6439 36.1159 21.7383 34.5236 22.181 33.1919C23.1673 30.2132 26.3184 27.2634 29.528 27.1058C29.528 27.0993 29.528 27.0897 29.528 27.0832L29.6224 25.7708ZM34.5117 45.5732L34.4824 45.5217C33.4277 43.5756 33.3594 43.6238 34.2188 41.208C34.3652 40.896 34.4922 40.5776 34.6029 40.2591C34.7363 39.3681 34.9154 38.4931 35.1172 37.6246C35.2051 36.0098 34.9056 34.3338 34.2708 32.6064C33.7012 31.1299 33.099 30.0041 32.3991 29.261C29.4271 26.1021 25.1074 30.0137 24.1992 33.1983C23.6589 35.0994 23.5937 37.5506 23.9388 40.5004L24.5996 42.8132C24.9316 44.0291 24.6973 45.377 23.9648 46.8438C24.0169 47.6383 24.0299 48.4329 24.0072 49.2371C23.9974 49.6134 23.9811 49.9448 23.9648 50.2664C23.8607 52.5278 23.7858 54.1941 25.7715 56.1788C26.7611 57.1696 28.0111 57.7486 29.3001 57.9545C30.2734 58.1089 31.263 58.0478 32.1777 57.7872C33.0859 57.5267 33.916 57.0699 34.5768 56.4233C35.3027 55.7156 35.8203 54.7795 36.0059 53.6344C36.1458 52.7691 36.0872 51.907 35.9212 51.0578C35.752 50.1892 35.4655 49.3239 35.1628 48.4811C35.0488 48.1595 34.9544 47.8346 34.8763 47.4968C34.7982 47.1719 34.7298 46.8277 34.6582 46.4642C34.5996 46.1651 34.5508 45.8659 34.5117 45.5732ZM58.1771 37.9784C58.3496 36.1256 58.2552 34.5333 57.8125 33.2015C56.8262 30.2228 53.6751 27.273 50.4655 27.1154C50.4655 27.109 50.4655 27.0993 50.4655 27.0929L50.3776 25.7772C50.3483 25.343 49.9674 25.0149 49.528 25.0438C49.0885 25.0728 48.7565 25.4491 48.7858 25.8834L48.8737 27.1991C48.877 27.228 48.8802 27.2537 48.8835 27.2795C48.0501 27.4982 47.2363 27.9453 46.4811 28.6627C45.2344 29.8497 44.4173 31.5417 43.8672 33.5425C43.4115 31.6189 43.1673 29.7596 43.3919 28.0065C43.6198 26.2372 44.3327 24.5613 45.8073 23.0108C46.097 22.7052 46.403 22.4382 46.722 22.2034C47.0475 21.9654 47.3893 21.7627 47.7376 21.5955C49.2708 20.8653 50.8659 20.7977 52.3307 21.2287C53.9095 21.6952 55.3353 22.7406 56.377 24.1721C56.9043 24.8991 57.3405 25.7354 57.7148 26.6554C58.0957 27.5947 58.4115 28.6176 58.6947 29.7017C58.9974 30.8597 59.0885 32.3426 59.0006 33.8127C58.9128 35.3182 58.6361 36.8043 58.2064 37.9109L58.1771 37.9784ZM43.3756 35.5819C42.9134 37.9816 43.2454 39.1397 43.9648 42.2245L44.5898 44.8912C44.5443 45.3512 44.4759 45.8144 44.3848 46.2841C44.3164 46.6315 44.2513 46.9596 44.1764 47.2781C44.1048 47.5837 44.0202 47.8764 43.9193 48.1595C43.6035 49.0409 43.304 49.9448 43.1217 50.8744C42.9362 51.8234 42.8711 52.7948 43.0339 53.7824C43.2552 55.1463 43.8737 56.2625 44.7428 57.1085C45.5208 57.8676 46.4941 58.4048 47.5521 58.7072C48.6035 59.0096 49.7396 59.0771 50.8529 58.9034C52.3372 58.6686 53.7793 57.9963 54.9219 56.8544C57.2038 54.5705 57.1191 52.7273 57.0052 50.2246C56.9889 49.8901 56.9727 49.5427 56.9629 49.2113C56.9108 47.4807 57.0378 45.8112 57.3796 44.0388C57.7214 42.2664 58.2845 40.391 59.1113 38.2551C59.5736 37.0584 59.873 35.4693 59.9674 33.8642C60.0586 32.304 59.9609 30.7214 59.6322 29.4604C59.3359 28.3314 59.0104 27.2666 58.6165 26.2951C58.2161 25.3076 57.7441 24.4037 57.1647 23.6059C55.9993 22.004 54.3913 20.8267 52.6074 20.3023C50.9245 19.8037 49.0853 19.8841 47.3177 20.7237C46.9076 20.9167 46.5137 21.1515 46.1393 21.425C45.7715 21.692 45.4232 21.9976 45.0977 22.345C43.4701 24.0595 42.6823 25.9156 42.4284 27.8778C42.1777 29.8078 42.4544 31.828 42.959 33.9092C43.1185 34.5686 43.2454 35.0608 43.3691 35.553L43.3756 35.5819ZM45.4883 45.5732L45.5176 45.5217C46.5723 43.5756 46.6406 43.6238 45.7812 41.208C45.6348 40.896 45.5078 40.5776 45.3971 40.2591C45.2637 39.3681 45.0846 38.4931 44.8828 37.6246C44.7949 36.0098 45.0944 34.3338 45.7292 32.6064C46.2988 31.1299 46.901 30.0041 47.6009 29.261C50.5729 26.1021 54.8926 30.0137 55.8008 33.1983C56.3411 35.0994 56.4062 37.5506 56.0612 40.5004L55.4004 42.8132C55.0684 44.0291 55.3027 45.377 56.0352 46.8438C55.9831 47.6383 55.9701 48.4329 55.9928 49.2371C56.0026 49.6134 56.0189 49.9448 56.0352 50.2664C56.1393 52.5278 56.2142 54.1941 54.2285 56.1788C53.2389 57.1696 51.9889 57.7486 50.6999 57.9545C49.7266 58.1089 48.737 58.0478 47.8223 57.7872C46.9141 57.5267 46.084 57.0699 45.4232 56.4233C44.6973 55.7156 44.1797 54.7795 43.9941 53.6344C43.8542 52.7691 43.9128 51.907 44.0788 51.0578C44.248 50.1892 44.5345 49.3239 44.8372 48.4811C44.9544 48.1595 45.0456 47.8346 45.1237 47.4968C45.2018 47.1719 45.2702 46.8277 45.3418 46.4642C45.4004 46.1651 45.4492 45.8659 45.4883 45.5732Z" fill="black"/>
</g>
<defs>
<clipPath id="clip0_165_8">
<rect width="40" height="39" fill="white" transform="translate(20 20)"/>
</clipPath>
</defs>
</svg>
