<svg width="37" height="22" viewBox="0 0 37 22" fill="none" xmlns="http://www.w3.org/2000/svg">
<g clip-path="url(#clip0_305_2)">
<path fill-rule="evenodd" clip-rule="evenodd" d="M28.5481 8.0255L18.458 18.713L12.8664 13.4531L13.4445 12.6328L17.5396 16.4657L17.5908 16.5145C17.7785 16.6874 18.0263 16.7778 18.2799 16.7658C18.5334 16.7538 18.7718 16.6404 18.9428 16.4504L19.271 16.0723L20.8277 14.3313L27.7019 7.23271L28.5481 8.0255ZM28.9666 13.3494V11.2821C28.9651 11.2648 28.9651 11.2475 28.9666 11.2302C29.0027 10.3155 29.608 10.0105 30.424 10.2758C30.4684 10.2914 30.51 10.314 30.5474 10.3429C32.607 11.9803 34.525 13.6147 36.5695 15.2521L36.5966 15.2796C36.7421 15.3894 36.8536 15.5389 36.9182 15.7107C36.9827 15.8824 36.9975 16.0692 36.961 16.2492C36.8755 16.5522 36.6894 16.8161 36.434 16.9963L30.8997 21.5335C29.9241 22.311 28.9064 22.1647 28.9064 20.7346C28.9064 20.0973 28.9064 19.4539 28.9064 18.8166H21.0475L26.2205 13.3281L28.9666 13.3494ZM9.19291 10.0807C9.19291 10.5807 9.23808 11.1967 9.19291 11.6845C9.18267 11.8712 9.14825 12.0558 9.09054 12.2334C8.99245 12.5525 8.7895 12.8279 8.51542 13.014C8.24644 13.1871 7.93016 13.2693 7.6121 13.2488C7.39405 13.2334 7.17919 13.1872 6.97375 13.1116V13.1116C6.92092 13.0933 6.86958 13.0709 6.82019 13.0445C6.77226 13.0168 6.72601 12.9863 6.68168 12.953V12.953C5.69104 12.1663 4.66427 11.3186 3.63448 10.474C2.67696 9.68427 1.71643 8.89452 0.647501 8.03465L0.587279 7.97976C0.364396 7.7928 0.19062 7.55292 0.0814199 7.2815L0.0633535 7.22051C-0.0101696 6.97611 -0.0195099 6.71653 0.0362539 6.46736C0.091789 6.23976 0.194422 6.0267 0.337361 5.84227C0.466541 5.66973 0.617359 5.51495 0.78601 5.38184C2.64685 3.96396 4.46252 2.3113 6.32336 0.847678C6.73132 0.492509 7.24357 0.283515 7.78072 0.253084C7.98827 0.250922 8.19378 0.294626 8.38293 0.38115C8.57606 0.470681 8.74534 0.60552 8.87675 0.774498C9.14631 1.15883 9.27998 1.62401 9.25614 2.0948V2.0948V3.42425H16.7507L15.6396 4.60125H8.65995C8.58377 4.60045 8.5085 4.58442 8.43846 4.55407C8.36842 4.52372 8.305 4.47965 8.25183 4.42439C8.19867 4.36914 8.15681 4.30379 8.12867 4.2321C8.10053 4.16041 8.08666 4.08379 8.08785 4.00665C8.08785 3.56757 8.08785 3.12238 8.08785 2.6833V2.0948C8.10752 1.88736 8.06109 1.67899 7.95536 1.50021C7.93828 1.47766 7.91675 1.45896 7.89213 1.44532C7.85663 1.43155 7.8187 1.42532 7.78072 1.42703C7.50296 1.45896 7.24246 1.57965 7.03699 1.77159L1.50566 6.30575C1.41727 6.37293 1.33827 6.45191 1.27079 6.54054C1.2284 6.59333 1.1976 6.65466 1.18046 6.72044C1.1697 6.76656 1.1697 6.81459 1.18046 6.86071V6.88815C1.22176 6.98221 1.28352 7.0656 1.36112 7.13209C2.33671 7.90658 3.35144 8.73902 4.37219 9.57145C5.39294 10.4039 6.30831 11.1662 7.38326 12.0108C7.47513 12.0404 7.57014 12.0588 7.6663 12.0657C7.74474 12.0734 7.82362 12.0563 7.89213 12.0169C7.94814 11.976 7.98854 11.9167 8.00655 11.8492C8.02972 11.7729 8.04387 11.6941 8.04871 11.6144V9.47997C8.05099 9.3289 8.11086 9.18456 8.2158 9.07716C8.32074 8.96975 8.46262 8.90759 8.61178 8.90367H11.5777L10.5148 10.0319L10.4726 10.0807H9.19291ZM28.271 5.25987L18.184 15.9473L12.5924 10.6875L22.6825 0L28.271 5.25987ZM21.9026 7.51628C22.0188 7.84314 22.0366 8.19753 21.9538 8.53464C21.871 8.87174 21.6914 9.17642 21.4376 9.41015C21.1839 9.64387 20.8674 9.79615 20.5281 9.84772C20.1889 9.89928 19.8422 9.84783 19.5319 9.69986C19.2215 9.55189 18.9615 9.31405 18.7846 9.01641C18.6077 8.71878 18.522 8.37472 18.5382 8.02774C18.5544 7.68076 18.6719 7.34645 18.8758 7.06707C19.0796 6.7877 19.3607 6.57581 19.6835 6.45821C19.8978 6.38012 20.1252 6.34555 20.3527 6.35646C20.5802 6.36737 20.8034 6.42356 21.0095 6.52181C21.2155 6.62006 21.4005 6.75846 21.5537 6.92909C21.707 7.09972 21.8255 7.29925 21.9026 7.51628V7.51628ZM25.7508 6.2966L19.009 13.3159C18.7895 13.1106 18.4987 13.0017 18.2001 13.0131C17.9016 13.0246 17.6197 13.1554 17.4161 13.3769L15.206 11.3003C15.4087 11.0781 15.5162 10.7836 15.505 10.4812C15.4937 10.1789 15.3645 9.89342 15.1458 9.68732L21.8876 2.64671C21.9962 2.74967 22.1239 2.82981 22.2632 2.88251C22.4026 2.93522 22.5509 2.95943 22.6996 2.95376C22.8482 2.94809 22.9943 2.91265 23.1294 2.84948C23.2644 2.78631 23.3858 2.69666 23.4865 2.58572L25.6996 4.66528C25.4963 4.88763 25.3882 5.18244 25.3989 5.48527C25.4096 5.7881 25.5383 6.07432 25.7568 6.28136L25.7508 6.2966Z" fill="#0C0D36"/>
</g>
<defs>
<clipPath id="clip0_305_2">
<rect width="37" height="22" fill="white"/>
</clipPath>
</defs>
</svg>
