<svg width="80" height="80" viewBox="0 0 80 80" fill="none" xmlns="http://www.w3.org/2000/svg">
<circle cx="40" cy="40" r="40" fill="#EDEDED"/>
<path d="M52.0033 42.6719H49.6729L47.2944 60.0215H49.6248L52.0033 42.6719ZM48.8771 14.8721L59.3704 16.6562C59.5759 16.6914 59.742 16.8057 59.8513 16.9595C59.9607 17.1133 60.0131 17.311 59.9781 17.5132L56.9089 35.7549H57.6434C57.7833 35.7637 57.9013 35.7725 58.0456 35.7944C58.5353 35.8779 58.9856 36.1152 59.3311 36.4492C59.7289 36.8447 59.9869 37.3721 60 37.9609C60 38.084 59.9869 38.2114 59.9781 38.3345L57.1012 64.5874C57.0619 64.9917 56.9963 65.3564 56.7908 65.7388C56.3929 66.4814 55.6584 66.9956 54.749 66.9956H26.4696C26.2554 66.9956 26.0586 66.9956 25.8444 66.9648C25.757 66.9517 25.6739 66.9341 25.5952 66.9077C25.4728 66.8726 25.3503 66.8242 25.2367 66.7715C25.1317 66.7188 25.0312 66.666 24.9306 66.5957C24.336 66.187 23.9469 65.4971 23.8725 64.7324L21.0175 38.2466C21.0087 38.1499 21 38.04 21 37.9434C21.0175 37.3589 21.2754 36.8403 21.6689 36.4492C22.0143 36.1108 22.4778 35.8691 22.9762 35.79C23.0331 35.7812 23.0899 35.7769 23.1511 35.7725L21.9094 27.291L21.7957 27.3086L21.9881 26.7021L24.7601 17.9131L24.9962 17.1616L25.4553 17.8032L30.8899 25.3794L31.2703 25.9067L31.1391 25.9243L32.6126 35.7593H36.3683L36.1453 34.3662C38.1652 34.5903 40.0672 34.4321 41.8423 33.8389L41.8947 35.7593H44.6099L48.0246 15.4873C48.0595 15.2808 48.1732 15.1138 48.3262 15.0039C48.4793 14.8896 48.676 14.8369 48.8771 14.8721ZM53.398 35.7593L53.2144 35.7285C52.8427 35.667 52.5848 35.355 52.6372 35.0342C52.6897 34.7134 53.0395 34.5024 53.4111 34.5684L55.6672 34.9507L56.2618 31.4087L51.5005 30.6001C51.1288 30.5386 50.8709 30.2266 50.9233 29.9058C50.9758 29.585 51.3256 29.374 51.6972 29.4399L56.4585 30.2485L57.0881 26.522L54.8321 26.1353C54.4604 26.0737 54.2025 25.7617 54.2549 25.4409C54.3074 25.1201 54.6572 24.9092 55.0288 24.9751L57.2849 25.3574L57.9013 21.6748L53.1357 20.8574C52.764 20.7959 52.5104 20.4839 52.5629 20.1631C52.6154 19.8423 52.9608 19.6357 53.3324 19.6973L58.0937 20.5059L58.5309 17.9043L49.2619 16.3267L45.9915 35.7549H53.398V35.7593ZM26.404 20.4751L24.6989 20.7256L22.9281 26.333L29.8668 25.3047L26.404 20.4751ZM36.9498 13C37.5225 16.4761 42.3013 18.168 41.0596 21.9692C40.7317 22.98 39.8923 23.9688 38.8648 24.3906C38.4494 24.562 38.0122 24.6411 37.5663 24.5928C37.3695 24.5708 37.1728 24.5269 36.9716 24.4609C34.4882 23.6216 33.9111 20.7256 34.3877 18.4097C34.8205 16.2739 36.0535 14.3008 36.9498 13ZM36.753 26.0913C37.5007 26.3154 38.8123 26.3418 39.6693 25.7925L41.7111 32.8325C39.7611 33.4829 37.8155 33.7642 35.8873 33.4126C36.2939 30.6177 36.5913 28.9785 36.753 26.0913ZM42.039 42.6719H39.7043V60.0215H42.039V42.6719ZM32.0791 42.6719H29.7444L32.1229 60.0215H34.4576L32.0791 42.6719ZM57.6128 37.8599H23.4091C23.1861 37.8599 23.0812 37.8994 23.0987 38.1367L25.9537 64.5435V64.5479C25.9668 64.6973 26.0324 64.8203 26.1286 64.8774L26.1592 64.8906L26.1811 64.895H26.2117H54.7402C54.9763 64.895 55.0026 64.5654 55.0201 64.3896L57.9013 38.1191C57.9188 37.917 57.8008 37.8599 57.6128 37.8599Z" fill="black"/>
</svg>
