<svg width="44" height="48" viewBox="0 0 44 48" fill="none" xmlns="http://www.w3.org/2000/svg">
<path d="M6.65453 11H9.30367C9.10688 11.6762 9.07228 12.3882 9.20256 13.0799C9.33275 13.7716 9.62427 14.424 10.0542 14.9858C10.484 15.5476 11.0405 16.0033 11.6796 16.3172C12.3188 16.6311 13.0231 16.7945 13.7373 16.7945C14.4516 16.7945 15.1559 16.6311 15.7951 16.3172C16.4343 16.0033 16.9907 15.5476 17.4205 14.9858C17.8505 14.424 18.142 13.7716 18.2722 13.0799C18.4024 12.3882 18.3678 11.6762 18.1711 11H25.2222C25.0241 11.6771 24.9885 12.3902 25.1182 13.0831C25.2479 13.7761 25.5393 14.4299 25.9695 14.9929C26.3997 15.5559 26.9567 16.0127 27.5969 16.3273C28.237 16.6419 28.9425 16.8057 29.6579 16.8057C30.3732 16.8057 31.0788 16.6419 31.7189 16.3273C32.359 16.0127 32.9161 15.5559 33.3462 14.9929C33.7764 14.4299 34.0678 13.7761 34.1975 13.0831C34.3272 12.3902 34.2916 11.6771 34.0935 11H37.3455C38.4302 11.0022 39.4708 11.4229 40.2445 12.1719C40.949 12.8753 41.3799 13.8003 41.4619 14.7851L43.9762 43.3828C43.9802 43.4309 43.9802 43.4792 43.9762 43.5273C43.9762 43.6055 43.9762 43.664 43.9762 43.6953C43.9676 44.7155 43.5633 45.6937 42.846 46.4297C42.1322 47.1707 41.1636 47.6233 40.1295 47.6992H40.058H39.8399H4.13628H3.91023H3.84281C2.80897 47.6219 1.84102 47.1695 1.12627 46.4297C0.41112 45.6927 0.00831276 44.7148 0 43.6953C0 43.6601 0 43.5859 0 43.4843V43.3828L2.53412 14.7969V14.6758C2.59124 14.2399 2.71701 13.8155 2.9069 13.4179C3.11303 12.9668 3.39907 12.5555 3.7516 12.2031C3.80315 12.1523 3.85868 12.1055 3.91023 12.0624C4.26143 11.7537 4.66386 11.5067 5.09995 11.332C5.59541 11.1299 6.12619 11.025 6.66246 11.0234L6.65453 11Z" fill="#1E124C"/>
<path d="M6.65455 13.1797H9.17677C9.34138 14.2551 9.89216 15.2365 10.729 15.9459C11.5659 16.6552 12.6334 17.0453 13.7374 17.0453C14.8415 17.0453 15.9089 16.6552 16.7457 15.9459C17.5826 15.2365 18.1334 14.2551 18.298 13.1797H25.0953C25.2599 14.2551 25.8107 15.2365 26.6475 15.9459C27.4844 16.6552 28.5519 17.0453 29.6559 17.0453C30.76 17.0453 31.8274 16.6552 32.6642 15.9459C33.5011 15.2365 34.0519 14.2551 34.2165 13.1797H37.3415C37.6248 13.1784 37.9056 13.2331 38.1672 13.3404C38.4287 13.4478 38.6657 13.6056 38.8643 13.8047C39.2514 14.1869 39.4828 14.6955 39.5148 15.2343L42.037 43.8164C42.037 43.8828 42.037 43.9336 42.037 43.9648C42.0265 44.501 41.8127 45.014 41.4377 45.4029C41.0627 45.7918 40.5536 46.0285 40.0105 46.0664H39.8598H4.13631H3.98164C3.43751 46.0292 2.92733 45.7923 2.55206 45.4024C2.1768 45.0126 1.96378 44.4981 1.95514 43.961C1.95514 43.9297 1.95514 43.8828 1.95514 43.8125L4.48133 15.2343C4.52059 14.6914 4.76042 14.1814 5.1555 13.8008C5.55869 13.4043 6.10469 13.1811 6.67439 13.1797H6.65455Z" fill="#F8F8F8"/>
<path d="M14.3402 10.3437V9.08597C14.3464 7.16948 15.1216 5.33315 16.4966 3.97727C17.8717 2.62139 19.7351 1.85589 21.6808 1.84766C23.6278 1.85176 25.4941 2.61437 26.8723 3.96901C28.2506 5.32365 29.0289 7.16032 29.0372 9.07809V10.3867C28.645 10.5126 28.2957 10.7427 28.0277 11.0516C27.7598 11.3605 27.5836 11.7363 27.5186 12.1376C27.4537 12.5388 27.5024 12.95 27.6595 13.3257C27.8165 13.7013 28.0759 14.0271 28.4089 14.2669C28.7419 14.5067 29.1357 14.6513 29.5468 14.6847C29.9579 14.7182 30.3704 14.6392 30.7388 14.4565C31.1073 14.2738 31.4174 13.9944 31.6349 13.6492C31.8525 13.304 31.9691 12.9063 31.9718 12.5C31.9783 12.124 31.886 11.7528 31.704 11.4222C31.5219 11.0917 31.2563 10.813 30.9328 10.6133V9.07809C30.9265 6.66898 29.9508 4.36057 28.2195 2.65887C26.4882 0.95718 24.1424 0.00102598 21.6966 0C19.2508 0.00309837 16.906 0.961234 15.1761 2.66439C13.4463 4.36755 12.4725 6.67679 12.4683 9.08597V10.7265C12.0633 11.0301 11.7753 11.4603 11.6516 11.9466C11.528 12.4329 11.576 12.946 11.7879 13.4018C11.9997 13.8575 12.3628 14.2287 12.8174 14.4541C13.2718 14.6796 13.7907 14.7459 14.2886 14.6422C14.7865 14.5386 15.2337 14.271 15.5567 13.8837C15.8797 13.4963 16.0591 13.0122 16.0656 12.5109C16.0721 12.0098 15.9051 11.5213 15.5922 11.126C15.2794 10.7307 14.8392 10.452 14.3442 10.3359L14.3402 10.3437Z" fill="#1E124C"/>
<path d="M12.3378 24.4312L11.0169 24.2097V23.1533H13.5402C13.9239 23.1533 14.4207 23.1305 15.0304 23.0852C15.177 23.0738 15.3521 23.0624 15.5554 23.0511C15.7586 23.0397 15.9956 23.0341 16.2666 23.0341C17.9712 23.0341 19.1624 23.2782 19.8398 23.7667C20.5283 24.2438 20.8728 24.9594 20.8728 25.9135C20.8728 26.754 20.6187 27.4582 20.1107 28.0262C19.6138 28.5827 18.9592 28.9234 18.1463 29.0485C19.264 29.0371 20.1388 29.2926 20.7711 29.8152C21.4146 30.3376 21.7364 31.0646 21.7364 31.9961C21.7364 33.1773 21.3242 34.1258 20.5002 34.8414C19.676 35.557 18.2987 35.9148 16.3682 35.9148C15.8602 35.9148 15.3916 35.8978 14.9626 35.8637C14.8497 35.8637 14.6578 35.8523 14.3869 35.8296C14.1159 35.8182 13.8392 35.8126 13.5571 35.8126H11V34.7903L12.3378 34.6199V24.4312ZM14.7933 28.6737C14.9174 28.6849 15.1714 28.6907 15.5554 28.6907H16.3513C17.0398 28.6907 17.5536 28.4748 17.8923 28.0432C18.231 27.6115 18.4003 27.0039 18.4003 26.2202C18.4003 25.4705 18.2252 24.9253 17.8754 24.5845C17.5253 24.2438 16.944 24.0734 16.1311 24.0734C15.9166 24.0734 15.4707 24.0961 14.7933 24.1415V28.6737ZM14.7933 34.6881C15.0529 34.7903 15.5496 34.8414 16.2835 34.8414C17.243 34.8414 17.9373 34.6141 18.3665 34.1599C18.7954 33.7055 19.01 33.0466 19.01 32.1835C19.01 31.3542 18.8123 30.7635 18.4173 30.4115C18.0334 30.0479 17.4181 29.8663 16.5714 29.8663C15.6231 29.8663 15.0304 29.8776 14.7933 29.9004V34.6881ZM27.3092 36C26.6995 36 26.1519 35.9489 25.6665 35.8467C25.181 35.7444 24.6391 35.6081 24.0408 35.4377C23.6456 35.3241 23.3804 35.2616 23.2449 35.2503L23.3973 32.0983H24.769L25.1416 34.2962C25.2882 34.4552 25.548 34.5971 25.9206 34.7221C26.3043 34.847 26.739 34.9096 27.2245 34.9096C27.9808 34.9096 28.5454 34.7448 28.9179 34.4155C29.3017 34.0747 29.4937 33.6033 29.4937 33.0013C29.4937 32.6036 29.3808 32.2629 29.155 31.979C28.9291 31.6836 28.6187 31.4224 28.2236 31.1953C27.8284 30.9567 27.2865 30.6841 26.5979 30.3775C25.6608 29.9457 24.8818 29.4346 24.261 28.844C23.6513 28.2419 23.3465 27.4299 23.3465 26.4076C23.3465 25.7714 23.5101 25.1979 23.8376 24.6868C24.165 24.1642 24.6505 23.7553 25.294 23.46C25.9487 23.1533 26.7446 23 27.6817 23C28.2348 23 28.7203 23.0397 29.1381 23.1193C29.567 23.1987 30.0299 23.3067 30.5267 23.443C30.8202 23.5224 31.0403 23.5735 31.1871 23.5963L31.0855 26.578H29.7308L29.3752 24.4823C29.2736 24.3801 29.0704 24.2835 28.7655 24.1927C28.4607 24.0904 28.122 24.0393 27.7495 24.0393C27.0721 24.0393 26.5583 24.1983 26.2084 24.5164C25.8698 24.8231 25.7004 25.2376 25.7004 25.7602C25.7004 26.1803 25.8245 26.5439 26.073 26.8506C26.3326 27.1573 26.643 27.4185 27.0044 27.6343C27.3656 27.8388 27.9357 28.1341 28.7147 28.5203C29.3469 28.827 29.8888 29.1279 30.3404 29.4233C30.7919 29.7186 31.1814 30.1048 31.5089 30.5819C31.8362 31.0476 32 31.5984 32 32.2346C32 32.8592 31.8418 33.4555 31.5258 34.0236C31.221 34.5915 30.713 35.0629 30.0017 35.4377C29.3017 35.8126 28.4042 36 27.3092 36Z" fill="#A43CE3"/>
</svg>
