<svg width="313" height="236" viewBox="0 0 313 236" fill="none" xmlns="http://www.w3.org/2000/svg">
<path d="M152.376 229.159L22.6925 152.444C18.5609 150.095 15.024 146.314 19.0461 143.833L149.199 68.7612C151.156 67.5479 154.121 66.7572 156.101 67.908L292.256 146.972C296.388 149.367 297.123 156.076 292.992 158.471L169.474 229.01C166.884 230.523 163.944 231.332 160.945 231.358C157.946 231.384 154.992 230.626 152.376 229.159Z" fill="#A6BFDB"/>
<path opacity="0.48" d="M55.213 141.093L27.6221 154.495C31.6805 157.209 35.9664 159.566 40.4316 161.54L68.539 142.792" fill="url(#paint0_linear_135_436)"/>
<path opacity="0.48" d="M180.57 139.762C173.324 135.175 166.086 130.541 159.341 125.257L121.562 146.909L160.687 177.439C165.178 174.597 188.669 162.824 202.222 155.614V154.048C195.007 149.312 187.886 144.389 180.57 139.762Z" fill="url(#paint1_linear_135_436)"/>
<path d="M167.142 74.601C167.08 74.2979 166.952 74.0123 166.766 73.7646C166.581 73.517 166.343 73.3134 166.07 73.1685C165.822 73.0315 165.532 72.9949 165.258 73.0663C164.984 73.1377 164.748 73.3116 164.599 73.552C164.477 73.7936 164.438 74.069 164.489 74.3348C164.401 74.7203 164.411 75.1219 164.519 75.5023C164.627 75.8828 164.83 76.2297 165.107 76.511C165.209 76.6162 165.33 76.6998 165.465 76.7569C165.599 76.814 165.744 76.8434 165.89 76.8434C166.036 76.8434 166.181 76.814 166.315 76.7569C166.449 76.6998 166.571 76.6162 166.672 76.511C166.893 76.251 167.051 75.943 167.132 75.6114C167.214 75.2799 167.217 74.934 167.142 74.601Z" fill="#5A2500"/>
<path d="M200.711 39.3902L159.747 15.1857C159.147 14.8785 158.491 14.6966 157.818 14.6508C157.146 14.6051 156.471 14.6965 155.835 14.9195H155.772C155.472 15.0204 155.181 15.1488 154.904 15.3031L151.022 17.0174L153.096 17.9333L154.372 122.83C154.371 124.677 154.855 126.492 155.775 128.094C156.695 129.696 158.019 131.028 159.614 131.958L197.808 154.221L197.213 157.806L202.394 155.066C202.896 154.791 203.314 154.385 203.605 153.892C203.895 153.399 204.047 152.836 204.045 152.264V45.2378C204.045 44.0572 203.738 42.8969 203.154 41.8714C202.569 40.8459 201.727 39.9907 200.711 39.3902Z" fill="#A43CE3"/>
<path opacity="0.33" d="M200.711 39.3902L159.747 15.1857C159.147 14.8785 158.491 14.6966 157.818 14.6508C157.146 14.6051 156.471 14.6965 155.835 14.9195H155.772C155.472 15.0204 155.181 15.1488 154.904 15.3031L151.022 17.0174L153.096 17.9333L154.372 122.83C154.371 124.677 154.855 126.492 155.775 128.094C156.695 129.696 158.019 131.028 159.614 131.958L197.808 154.221L197.213 157.806L202.394 155.066C202.896 154.791 203.314 154.385 203.605 153.892C203.895 153.399 204.047 152.836 204.045 152.264V45.2378C204.045 44.0572 203.738 42.8969 203.154 41.8714C202.569 40.8459 201.727 39.9907 200.711 39.3902Z" fill="#3F3D56"/>
<path d="M194.264 157.634L154.661 134.549C153.066 133.619 151.742 132.287 150.822 130.685C149.902 129.083 149.418 127.268 149.418 125.421V19.5616C149.417 19.0657 149.546 18.5782 149.794 18.1489C150.043 17.7196 150.4 17.3638 150.83 17.1178C151.261 16.8719 151.749 16.7446 152.244 16.749C152.74 16.7533 153.226 16.8892 153.652 17.1427L195.75 42.0204C196.766 42.6209 197.608 43.4761 198.193 44.5016C198.777 45.5271 199.084 46.6875 199.084 47.868V154.863C199.083 155.426 198.934 155.98 198.651 156.468C198.369 156.956 197.963 157.36 197.474 157.641C196.985 157.922 196.431 158.07 195.868 158.068C195.304 158.067 194.751 157.917 194.264 157.634Z" fill="#F4F4F4"/>
<path d="M196.572 54.334L151.453 28.4465V121.061L196.572 147.152V54.334Z" fill="#054F70"/>
<path d="M170.466 140.679C171.584 140.412 172.199 138.971 171.838 137.462C171.478 135.952 170.279 134.945 169.161 135.212C168.043 135.479 167.429 136.919 167.789 138.429C168.15 139.938 169.348 140.946 170.466 140.679Z" fill="#BABABC"/>
<path d="M168.128 32.9007C168.128 33.0787 168.175 33.2535 168.264 33.4075C168.354 33.5615 168.482 33.6891 168.637 33.7774L177.354 38.7874C177.507 38.8752 177.681 38.921 177.858 38.9204C178.035 38.9198 178.208 38.8728 178.361 38.784C178.514 38.6953 178.641 38.5679 178.729 38.4146C178.817 38.2613 178.864 38.0875 178.864 37.9107V37.6993C178.864 37.5184 178.815 37.3409 178.723 37.1852C178.63 37.0296 178.498 36.9017 178.34 36.8147L169.623 32.0161C169.469 31.9319 169.296 31.8891 169.121 31.892C168.946 31.8948 168.774 31.9433 168.623 32.0325C168.473 32.1218 168.348 32.2488 168.261 32.401C168.174 32.5532 168.128 32.7254 168.128 32.9007Z" fill="#CCCCCC"/>
<path d="M165.036 31.0802C165.548 30.8895 165.752 30.1683 165.492 29.4693C165.232 28.7703 164.606 28.3582 164.094 28.5489C163.582 28.7395 163.378 29.4608 163.639 30.1598C163.899 30.8588 164.525 31.2708 165.036 31.0802Z" fill="#CCCCCC"/>
<path d="M282.287 175.591L281.505 175.2C281.059 174.973 280.659 175.654 281.113 175.873L281.896 176.265C282.342 176.492 282.741 175.818 282.287 175.591Z" fill="#FA4E76"/>
<path d="M309.087 141.046C307.65 141.07 306.224 141.305 304.854 141.743C304.754 141.772 304.67 141.839 304.618 141.93C304.567 142.02 304.554 142.127 304.58 142.228C304.784 142.934 305.133 143.59 305.605 144.153C306.076 144.716 306.66 145.175 307.319 145.5C307.765 145.719 308.164 145.046 307.71 144.827C306.683 144.326 305.886 143.453 305.48 142.385C306.653 142.045 307.866 141.861 309.087 141.837C309.192 141.837 309.293 141.795 309.367 141.721C309.441 141.647 309.483 141.546 309.483 141.441C309.483 141.336 309.441 141.236 309.367 141.162C309.293 141.088 309.192 141.046 309.087 141.046Z" fill="#F2F2F2"/>
<path d="M156.5 45.9814V45.7936C156.5 43.7348 159.067 42.451 161.117 43.4843L189.991 59.571C190.475 59.8048 190.939 60.0798 191.376 60.393C193.411 62.0838 191.243 66.2171 187.37 64.4088L158.065 48.3299C157.608 48.1276 157.218 47.7994 156.941 47.3834C156.664 46.9675 156.511 46.4812 156.5 45.9814Z" fill="#031E28"/>
<path d="M186.72 92.2534C188.152 103.667 182.886 113.608 174.983 114.462C167.079 115.315 159.481 106.759 158.049 95.3533C156.617 83.9477 161.884 73.9982 169.787 73.145C177.69 72.2917 185.288 80.8478 186.72 92.2534Z" fill="#79C83B"/>
<path d="M162.431 95.0715L164.755 91.4079L168.926 97.7722L178.206 83.4389L181.876 86.4449L169.294 105.545L162.431 95.0715Z" fill="white"/>
<path opacity="0.48" d="M247.865 160.687L220.274 174.088C224.332 176.803 228.618 179.16 233.083 181.134L261.191 162.385" fill="url(#paint2_linear_135_436)"/>
<path d="M245.236 135.175C245.165 135.106 245.109 135.023 245.071 134.932C243.89 134.337 242.724 133.774 241.48 133.249C241.104 132.967 240.697 132.709 240.337 132.466C240.272 132.537 240.192 132.593 240.102 132.63C240.013 132.666 239.917 132.683 239.821 132.678C238.052 132.63 236.29 132.431 234.554 132.083C234.476 132.232 234.416 132.389 234.375 132.552C235.945 134.379 237.006 136.588 237.45 138.956C237.786 139.339 238.146 139.739 238.537 140.161C240.282 140.85 242.653 140.702 244.641 140.944C244.734 140.743 244.808 140.533 244.86 140.318H244.946C245.615 140.563 246.266 140.853 246.895 141.187C248.2 141.371 249.439 141.883 250.494 142.674C250.783 142.563 251.049 142.399 251.277 142.189C249.234 139.919 247.45 137.359 245.236 135.175Z" fill="#1B896C"/>
<path d="M255.337 137.069L260.236 133.21C260.236 133.21 266.848 131.112 266.754 124.012C266.66 116.912 264.54 115.01 264.54 115.01C264.54 115.01 256.3 127.394 255.337 137.069Z" fill="#1B896C"/>
<path d="M244.993 150.549L247.497 162.237C247.58 162.625 247.75 162.989 247.994 163.302C248.238 163.616 248.55 163.869 248.906 164.045C250.361 164.757 253.366 165.501 259.078 164.468C259.592 164.375 260.066 164.132 260.442 163.77C260.818 163.408 261.079 162.942 261.191 162.432L263.758 150.549" fill="#A43CE3"/>
<path d="M254.375 154.393C259.557 154.393 263.758 152.672 263.758 150.549C263.758 148.426 259.557 146.706 254.375 146.706C249.194 146.706 244.993 148.426 244.993 150.549C244.993 152.672 249.194 154.393 254.375 154.393Z" fill="#56403D"/>
<path d="M267.279 121.617C267.059 118.791 265.197 116.262 265.479 113.413C265.534 112.88 264.806 112.794 264.555 113.162C259.689 120.318 256.535 128.498 255.338 137.069C255.279 137.174 255.259 137.296 255.283 137.414C254.771 141.238 254.653 145.104 254.931 148.952C255.26 148.923 255.587 148.87 255.909 148.796C255.646 145.02 255.77 141.227 256.277 137.476C257.943 135.496 260.306 134.556 262.317 132.983C264.026 131.654 265.372 129.914 266.23 127.926C267.084 125.939 267.444 123.774 267.279 121.617ZM265.267 127.527C264.213 129.896 262.449 131.879 260.22 133.202C259.289 133.789 258.366 134.345 257.505 134.979C259.297 131.474 260.845 127.848 262.137 124.129C262.349 123.527 261.355 123.268 261.183 123.863C259.97 127.376 258.524 130.805 256.856 134.126C258.204 127.327 260.813 120.84 264.548 115.002C264.79 116.607 265.549 118.055 265.972 119.699C266.609 122.314 266.361 125.067 265.267 127.527Z" fill="#37B596"/>
<path d="M254.453 148.976C253.671 146.956 252.888 144.913 251.981 142.964C251.993 142.873 251.98 142.781 251.944 142.697C251.909 142.613 251.851 142.54 251.777 142.486C250.625 140.079 249.063 137.891 247.16 136.02C243.42 132.474 238.553 131.613 233.592 131.042C233.091 130.987 232.997 131.59 233.287 131.879C233.301 131.939 233.327 131.996 233.363 132.045C233.399 132.095 233.445 132.137 233.498 132.169C236.44 133.993 235.579 138.635 238.694 140.349C240.157 141.132 241.933 140.913 243.53 140.976C245.648 141.002 247.737 141.48 249.657 142.377C251.333 144.224 252.498 146.477 253.037 148.913C253.507 148.974 253.98 148.995 254.453 148.976ZM240.885 135.488C240.282 135.269 240.024 136.224 240.619 136.443C243.244 137.379 245.68 138.779 247.81 140.576C247.295 140.43 246.773 140.312 246.245 140.224C244.171 139.887 240.987 140.537 239.156 139.441C236.597 137.954 236.808 134.322 234.985 132.153C239.437 132.748 243.671 133.813 246.949 137.187C248.13 138.424 249.155 139.802 250.001 141.289C247.457 138.67 244.335 136.683 240.885 135.488Z" fill="#37B596"/>
<path d="M41.9106 111.918V150.401C41.911 150.98 42.0645 151.548 42.3557 152.049C42.6469 152.549 43.0653 152.964 43.5685 153.25C44.0716 153.536 44.6416 153.684 45.2204 153.679C45.7992 153.673 46.3662 153.514 46.8639 153.219L103.947 119.221C104.429 118.926 104.826 118.511 105.1 118.018C105.374 117.524 105.516 116.968 105.512 116.403V77.2077C105.511 76.6315 105.358 76.0658 105.068 75.5675C104.779 75.0693 104.363 74.6562 103.864 74.3697C103.364 74.0832 102.797 73.9334 102.221 73.9356C101.645 73.9377 101.08 74.0916 100.582 74.3818L44.6729 107.095C43.8315 107.588 43.1338 108.292 42.6491 109.138C42.1645 109.984 41.9099 110.942 41.9106 111.918Z" fill="#054F70"/>
<path d="M44.3599 112.873V151.356C44.3632 151.932 44.5181 152.497 44.809 152.994C45.0999 153.491 45.5166 153.903 46.0172 154.188C46.5177 154.472 47.0844 154.62 47.6602 154.617C48.2361 154.613 48.8007 154.457 49.2974 154.166L106.42 120.168C106.901 119.873 107.298 119.459 107.572 118.965C107.847 118.471 107.989 117.915 107.985 117.35V78.1628C107.984 77.5865 107.83 77.0208 107.541 76.5226C107.252 76.0244 106.836 75.6112 106.336 75.3247C105.837 75.0382 105.27 74.8885 104.694 74.8906C104.118 74.8927 103.553 75.0467 103.055 75.3368L47.1299 108.05C46.2871 108.542 45.5878 109.246 45.1017 110.092C44.6157 110.938 44.3599 111.897 44.3599 112.873Z" fill="#A43CE3"/>
<path d="M103.506 115.294C104.718 112.217 104.009 109.056 101.923 108.233C99.8358 107.41 97.1615 109.238 95.9493 112.315C94.7371 115.392 95.446 118.553 97.5327 119.376C99.6194 120.199 102.294 118.371 103.506 115.294Z" fill="#FBF472"/>
<path d="M97.712 118.534C98.9242 115.457 98.2153 112.295 96.1286 111.473C94.0419 110.65 91.3675 112.477 90.1553 115.554C88.9431 118.631 89.6521 121.793 91.7388 122.616C93.8255 123.438 96.4998 121.611 97.712 118.534Z" fill="#E2347C"/>
<path d="M51.4807 110.485C52.2006 110.078 52.6857 110.289 52.8422 111.064L52.2945 111.573C52.1536 111.135 51.8797 111.033 51.512 111.26C51.2142 111.447 50.9797 111.72 50.839 112.043C50.6543 112.445 50.5608 112.884 50.5651 113.327C50.5207 113.679 50.6131 114.035 50.8234 114.321C50.919 114.397 51.0376 114.438 51.1598 114.438C51.2821 114.438 51.4007 114.397 51.4963 114.321C51.705 114.178 51.8821 113.994 52.0167 113.78C52.1513 113.566 52.2405 113.326 52.2788 113.076L52.8266 112.951C52.7717 113.388 52.6203 113.807 52.3835 114.178C52.1466 114.549 51.8302 114.862 51.4572 115.096C51.2973 115.213 51.104 115.277 50.9055 115.277C50.7071 115.277 50.5138 115.213 50.3539 115.096C50.1776 114.904 50.0461 114.675 49.969 114.426C49.8919 114.177 49.871 113.914 49.9078 113.655C49.9012 112.978 50.0597 112.309 50.3695 111.706C50.6166 111.202 51.0019 110.778 51.4807 110.485Z" fill="white"/>
<path d="M54.963 111.033L55.8629 112.52L55.1821 112.912L54.3057 111.471L53.9849 111.651V113.593L53.3745 113.945V109.444L54.5717 108.763C55.2134 108.395 55.5733 108.7 55.5655 109.475C55.5772 110.054 55.3608 110.613 54.963 111.033ZM54.5796 110.548C54.7062 110.475 54.8099 110.368 54.8791 110.24C54.9482 110.111 54.98 109.965 54.9708 109.82C54.9708 109.48 54.843 109.384 54.5874 109.53L53.9927 109.867V110.884L54.5874 110.548" fill="white"/>
<path d="M58.3509 106.61V107.385L56.9268 108.199L56.919 109.139L58.0614 108.489V109.264L56.919 109.914L56.9111 111.15L58.3822 110.313V111.088L56.293 112.278L56.3164 107.776L58.3509 106.61Z" fill="white"/>
<path d="M59.9944 105.679C60.7769 105.24 61.5594 105.483 61.5124 107.056C61.5409 107.669 61.4119 108.278 61.1379 108.826C60.864 109.374 60.4541 109.843 59.9474 110.188L58.9224 110.775V106.274L59.9944 105.679ZM60.5265 108.81C60.7814 108.388 60.9091 107.901 60.8943 107.409C60.8943 106.845 60.7612 106.508 60.5343 106.43C60.4084 106.395 60.2761 106.389 60.1474 106.412C60.0187 106.435 59.8968 106.486 59.7909 106.563L59.564 106.696V109.655L59.7909 109.522C60.1064 109.353 60.3752 109.108 60.5734 108.81" fill="white"/>
<path d="M62.6861 104.136L62.6626 108.638L62.0601 108.99L62.0835 104.481L62.6861 104.136Z" fill="white"/>
<path d="M65.6597 102.438L65.6518 103.213L64.7363 103.737L64.7207 107.463L64.1103 107.816L64.126 104.082L63.2104 104.606L63.2183 103.831L65.6597 102.438Z" fill="white"/>
<path d="M68.6408 100.684C69.3607 100.277 69.8459 100.489 70.0024 101.263L69.4546 101.772C69.3138 101.334 69.0399 101.232 68.6721 101.459C68.3737 101.646 68.1391 101.919 67.9992 102.242C67.8125 102.644 67.7188 103.083 67.7253 103.526C67.6776 103.878 67.7703 104.235 67.9835 104.52C68.0779 104.596 68.1952 104.637 68.3161 104.637C68.437 104.637 68.5543 104.596 68.6487 104.52C68.8573 104.377 69.0344 104.193 69.169 103.979C69.3036 103.765 69.3929 103.525 69.4312 103.275L69.9789 103.15C69.924 103.587 69.7727 104.006 69.5358 104.377C69.299 104.748 68.9826 105.061 68.6095 105.295C68.4496 105.413 68.2564 105.476 68.0579 105.476C67.8594 105.476 67.6661 105.413 67.5062 105.295C67.3299 105.103 67.1985 104.874 67.1213 104.625C67.0442 104.376 67.0233 104.113 67.0602 103.855C67.0536 103.177 67.212 102.508 67.5219 101.905C67.771 101.4 68.1592 100.976 68.6408 100.684Z" fill="white"/>
<path d="M71.8959 98.8759L72.9835 102.743L72.3262 103.119L72.0837 102.195L71.0429 102.79L70.8004 103.988L70.1431 104.363L71.2855 99.2126L71.8959 98.8759ZM71.2073 101.921L71.9037 101.522L71.5594 100.16L71.2073 101.921Z" fill="white"/>
<path d="M74.9947 99.5883L75.9024 101.083L75.2138 101.475L74.3374 100.034L74.0166 100.215V102.156L73.4062 102.5V97.9992L74.6035 97.3181C75.2451 96.9502 75.6051 97.2555 75.5973 98.0305C75.6081 98.6087 75.3918 99.168 74.9947 99.5883ZM74.6113 99.1029C74.7379 99.0302 74.8417 98.9235 74.9108 98.7948C74.9799 98.6662 75.0117 98.5207 75.0026 98.3749C75.0026 98.0357 74.8747 97.9392 74.6191 98.0853L74.0244 98.4219V99.4396L74.6191 99.1029" fill="white"/>
<path d="M77.3894 95.7447C78.1719 95.3063 78.9544 95.549 78.9075 97.1224C78.9359 97.7347 78.8069 98.344 78.533 98.8921C78.259 99.4403 77.8491 99.9091 77.3425 100.254L76.3096 100.841V96.3396L77.3894 95.7447ZM77.9215 98.8759C78.1764 98.454 78.3041 97.9675 78.2893 97.4747C78.2893 96.9111 78.1563 96.5745 77.9293 96.4962C77.8034 96.461 77.6712 96.4546 77.5424 96.4777C77.4137 96.5007 77.2919 96.5525 77.186 96.6293L76.959 96.7623V99.7214L77.186 99.5883C77.5014 99.4189 77.7702 99.1742 77.9685 98.8759" fill="white"/>
<path d="M51.1597 122.376V129.57C51.16 129.872 51.2396 130.169 51.3904 130.431C51.5412 130.693 51.7581 130.911 52.0193 131.063C52.2806 131.215 52.5771 131.296 52.8793 131.298C53.1816 131.3 53.479 131.222 53.7419 131.073L63.7736 125.335C64.0379 125.183 64.2574 124.964 64.41 124.7C64.5625 124.436 64.6426 124.137 64.6421 123.832V116.489C64.6406 116.186 64.5594 115.888 64.4067 115.626C64.2539 115.364 64.035 115.147 63.7718 114.996C63.5086 114.846 63.2105 114.767 62.9073 114.768C62.6041 114.769 62.3064 114.849 62.0442 115.002L52.0126 120.889C51.7535 121.041 51.5385 121.258 51.389 121.519C51.2394 121.78 51.1604 122.075 51.1597 122.376Z" fill="#D1D1F5"/>
<path d="M68.6095 116.309L68.8442 116.176L68.5469 120.669L68.0148 120.99L68.2339 117.616L67.6392 118.47L67.6939 117.593L68.6095 116.309Z" fill="white"/>
<path d="M70.2763 115.268L70.3467 115.221C70.8944 114.892 71.184 115.221 71.1292 116.004C71.095 116.423 70.9891 116.834 70.8162 117.217L70.0337 119.08L71.0666 118.454L71.0196 119.237L69.126 120.348V120.027L70.3076 117.327C70.4535 117.03 70.5462 116.709 70.5814 116.38C70.5814 116.012 70.4954 115.863 70.2606 116.004C70.1468 116.102 70.0537 116.222 69.9865 116.356C69.9194 116.49 69.8795 116.637 69.8694 116.787L69.392 116.943C69.4314 116.585 69.5432 116.239 69.7207 115.926C69.8537 115.667 70.0436 115.442 70.2763 115.268Z" fill="white"/>
<path d="M71.9117 114.336L73.5549 113.303V113.585L72.7724 115.44L72.8898 115.354C73.3436 115.08 73.5862 115.456 73.5314 116.254C73.5063 116.7 73.3862 117.135 73.1793 117.53C73.0292 117.84 72.8064 118.109 72.5298 118.313L72.4438 118.368C72.1777 118.532 71.9586 118.548 71.7943 118.415C71.6983 118.311 71.6268 118.186 71.5848 118.051C71.5428 117.915 71.5315 117.772 71.5517 117.632L72.0682 117.225C72.1073 117.624 72.2481 117.742 72.4985 117.593C72.6447 117.469 72.7629 117.316 72.8452 117.143C72.9275 116.971 72.9721 116.782 72.9759 116.591C72.9759 116.082 72.8428 115.91 72.5611 116.082C72.4737 116.145 72.3971 116.222 72.3342 116.309L72.1542 115.98L72.7881 114.485L71.8491 115.041L71.9117 114.336Z" fill="white"/>
<path d="M75.7773 114.822L76.106 114.626L76.059 115.409L75.7304 115.605L75.6756 116.434L75.1513 116.74L75.2061 115.91L73.9463 116.693V116.286L75.4017 112.293L75.9573 111.957L75.7773 114.822ZM75.2531 115.135L75.3626 113.421L74.6271 115.511L75.2531 115.135Z" fill="white"/>
<path d="M79.4082 112.646L79.7369 112.45L79.6899 113.233L79.3613 113.428L79.3065 114.266L78.7744 114.579L78.8292 113.742L77.5615 114.524V114.117L79.017 110.125L79.5726 109.788L79.4082 112.646ZM78.8761 112.967L78.9857 111.252L78.2501 113.303L78.8683 112.927" fill="white"/>
<path d="M80.6677 109.099L82.178 108.191L82.131 108.974L81.0512 109.616L80.9182 110.595C81.021 110.447 81.148 110.317 81.2938 110.211H81.3485C81.9432 109.859 82.2093 110.211 82.131 111.166C82.104 111.61 81.9869 112.045 81.7867 112.442C81.6391 112.753 81.4158 113.022 81.1373 113.225L81.059 113.28C80.9731 113.349 80.8684 113.392 80.7583 113.401C80.6482 113.411 80.5376 113.388 80.4408 113.334C80.3517 113.239 80.2846 113.125 80.244 113C80.2035 112.876 80.1905 112.744 80.2061 112.614L80.7147 112.176C80.7147 112.559 80.879 112.677 81.1138 112.536H81.1529C81.2995 112.408 81.4156 112.249 81.4928 112.07C81.5699 111.891 81.6062 111.697 81.5989 111.503C81.5989 110.994 81.4894 110.829 81.1842 111.01H81.1373C80.9156 111.191 80.7433 111.425 80.6365 111.691L80.3078 111.785L80.6677 109.099Z" fill="white"/>
<path d="M84.4006 108.81C84.4939 108.935 84.5602 109.078 84.5952 109.231C84.6303 109.383 84.6333 109.541 84.604 109.694C84.5728 110.119 84.4528 110.532 84.2519 110.908C84.1 111.216 83.8775 111.484 83.6024 111.691L83.5242 111.745C83.2503 111.91 83.0234 111.91 82.8512 111.745C82.7545 111.623 82.6855 111.482 82.649 111.33C82.6125 111.179 82.6094 111.021 82.64 110.869C82.6638 110.569 82.7296 110.273 82.8356 109.992L83.845 107.135L84.4319 106.782L83.6494 108.833H83.712C84.025 108.606 84.2363 108.606 84.4006 108.81ZM84.0719 110.015C84.0719 109.569 83.9311 109.405 83.665 109.569H83.6259C83.4848 109.687 83.3706 109.835 83.2909 110.001C83.2113 110.167 83.1681 110.348 83.1642 110.532C83.1642 110.963 83.3129 111.135 83.5711 110.978C83.7128 110.858 83.8277 110.71 83.9086 110.543C83.9894 110.375 84.0344 110.193 84.0406 110.007" fill="white"/>
<path d="M85.1438 106.414L86.9201 105.35L86.8966 105.686L85.5194 110.516L84.9951 110.822L86.2471 106.477L85.089 107.158L85.1438 106.414Z" fill="white"/>
<path d="M89.737 105.655C89.9874 105.726 90.0891 106.007 90.0578 106.501C90.0356 106.916 89.9177 107.32 89.7135 107.683C89.5667 107.972 89.3552 108.224 89.0954 108.418L89.0093 108.473C88.9145 108.544 88.7991 108.583 88.6806 108.583C88.5621 108.583 88.4468 108.544 88.352 108.473C88.2549 108.358 88.1854 108.221 88.1488 108.075C88.1122 107.928 88.1094 107.775 88.1407 107.628C88.1637 107.158 88.3212 106.704 88.5946 106.32C88.4224 106.211 88.352 105.968 88.3833 105.585C88.4083 105.231 88.5069 104.888 88.6728 104.575C88.805 104.305 89.001 104.071 89.244 103.894L89.3066 103.855C89.557 103.714 89.7527 103.706 89.8857 103.855C89.9662 103.956 90.024 104.073 90.0551 104.199C90.0861 104.325 90.0897 104.455 90.0657 104.583C90.0443 104.961 89.9315 105.329 89.737 105.655ZM89.5257 106.821C89.5391 106.752 89.5377 106.681 89.5215 106.612C89.5053 106.543 89.4748 106.478 89.4318 106.422C89.3614 106.36 89.2597 106.352 89.1423 106.422C89.0205 106.51 88.9213 106.625 88.8528 106.759C88.7644 106.929 88.7137 107.116 88.7041 107.307C88.689 107.377 88.6888 107.449 88.7037 107.52C88.7185 107.59 88.748 107.656 88.7902 107.714C88.8606 107.776 88.9623 107.776 89.0875 107.714H89.1267C89.2451 107.628 89.3416 107.515 89.4084 107.385C89.4948 107.217 89.5454 107.033 89.557 106.845L89.5257 106.821ZM89.6118 104.919C89.6118 104.583 89.5101 104.442 89.291 104.575C89.1774 104.671 89.0863 104.791 89.0241 104.926C88.9619 105.061 88.9301 105.209 88.931 105.358C88.931 105.702 89.0328 105.851 89.244 105.726C89.3574 105.629 89.4489 105.509 89.5123 105.374C89.5757 105.239 89.6097 105.092 89.6118 104.943" fill="white"/>
<path d="M92.3351 102.461C92.4305 102.584 92.4986 102.726 92.535 102.877C92.5715 103.028 92.5753 103.185 92.5464 103.338C92.5258 103.638 92.4598 103.934 92.3507 104.215L91.3491 107.041L90.7544 107.401L91.5369 105.35H91.4743C91.2005 105.514 90.9813 105.514 90.817 105.35C90.7249 105.221 90.6594 105.075 90.6245 104.92C90.5896 104.766 90.5858 104.606 90.6136 104.45C90.6428 104.022 90.7629 103.606 90.9657 103.228C91.1163 102.919 91.3391 102.651 91.6152 102.446L91.6934 102.391C91.7925 102.328 91.91 102.301 92.0266 102.313C92.1432 102.326 92.252 102.378 92.3351 102.461ZM92.0221 103.651C92.0221 103.221 91.8734 103.048 91.6152 103.205C91.4753 103.326 91.3621 103.475 91.2827 103.642C91.2032 103.809 91.1592 103.991 91.1535 104.176C91.1535 104.622 91.2944 104.786 91.5604 104.622H91.5995C91.7414 104.504 91.8562 104.357 91.9359 104.191C92.0156 104.025 92.0583 103.843 92.0612 103.659" fill="white"/>
<path d="M93.0471 101.686L94.8234 100.622L94.7999 100.95L93.4227 105.773L92.8984 106.086L94.1504 101.733L92.9923 102.43L93.0471 101.686Z" fill="white"/>
<path d="M96.8267 99.7684C96.9244 99.89 96.9945 100.031 97.0323 100.183C97.0701 100.334 97.0747 100.492 97.0458 100.645C97.0231 100.945 96.9572 101.241 96.8502 101.522L95.8408 104.379L95.2539 104.731L96.0364 102.68H95.9738C95.6999 102.853 95.4808 102.853 95.3165 102.68C95.2236 102.552 95.1576 102.406 95.1226 102.251C95.0877 102.096 95.0844 101.936 95.113 101.78C95.1435 101.353 95.2635 100.937 95.4652 100.559C95.616 100.25 95.8387 99.9815 96.1146 99.7762L96.2007 99.7214C96.4355 99.5961 96.6624 99.604 96.8267 99.7684ZM96.5137 100.966C96.5137 100.536 96.365 100.363 96.1068 100.52C95.9676 100.64 95.8547 100.787 95.7752 100.953C95.6957 101.119 95.6515 101.299 95.6451 101.483C95.6451 101.921 95.786 102.085 96.052 101.929H96.0912C96.2323 101.811 96.3465 101.664 96.4261 101.497C96.5058 101.331 96.549 101.15 96.5528 100.966" fill="white"/>
<path d="M61.5122 134.243L60.6827 136.787L61.5435 138.517L60.9331 138.94L60.3619 137.774L59.7124 139.786L59.1021 140.201L60.088 137.202L59.3525 135.731L59.9472 135.324L60.401 136.224L60.9175 134.65L61.5122 134.243Z" fill="white"/>
<path d="M59.0161 135.966L58.1866 138.517L59.0474 140.247L58.437 140.662L57.8658 139.504L57.2163 141.508L56.606 141.931L57.5919 138.925L56.8564 137.461L57.4511 137.046L57.9049 137.946L58.4135 136.38L59.0161 135.966Z" fill="white"/>
<path d="M64.0087 132.513L63.1793 135.065L64.04 136.787L63.4375 137.21L62.8663 136.052L62.2168 138.056L61.5986 138.478L62.5846 135.472L61.849 134.008L62.4516 133.594L62.9054 134.494L63.414 132.928L64.0087 132.513Z" fill="white"/>
<path d="M67.5532 130.063L66.7237 132.615L67.5845 134.345L66.9741 134.76L66.4029 133.601L65.7534 135.605L65.1431 136.028L66.1212 133.03L65.3935 131.558L65.9882 131.143L66.442 132.044L66.9506 130.478L67.5532 130.063Z" fill="white"/>
<path d="M70.0493 128.341L69.2198 130.885L70.0806 132.615L69.4702 133.038L68.899 131.871L68.2495 133.883L67.647 134.298L68.6251 131.3L67.8896 129.828L68.4921 129.421L68.9381 130.321L69.4467 128.756L70.0493 128.341Z" fill="white"/>
<path d="M72.5453 126.611L71.7159 129.163L72.5766 130.893L71.9663 131.308L71.3951 130.149L70.7456 132.153L70.1431 132.576L71.1212 129.57L70.3856 128.106L70.9882 127.691L71.4342 128.591L71.9506 127.026L72.5453 126.611Z" fill="white"/>
<path d="M200.649 16.2347C202.372 17.4228 203.765 19.0296 204.697 20.9042C205.629 22.7788 206.07 24.8596 205.977 26.9513C205.641 36.8774 203.45 38.7796 203.45 38.7796L188.402 29.4876L164.794 14.3403C164.794 14.3403 184.067 9.61991 200.649 16.2347Z" fill="#666666"/>
<path d="M184.412 62.7806L158.269 48.4708C158.269 48.4708 158.636 23.0842 168.691 7.58459C169.603 6.22218 170.976 5.23459 172.557 4.80318C174.138 4.37178 175.822 4.52551 177.299 5.23616L200.649 16.2346C200.649 16.2346 191.65 10.9976 184.412 62.7806Z" fill="#E6E6E6"/>
<path d="M187.291 22.3406L170.514 13.1034C169.192 12.3754 168.003 14.4029 169.333 15.1309L186.11 24.3367C187.432 25.0647 188.621 23.0373 187.291 22.3093V22.3406Z" fill="#999999"/>
<path d="M184.944 26.9435L168.167 17.7377C166.845 17.0096 165.655 19.0371 166.986 19.7651L183.762 28.971C185.085 29.699 186.274 27.6715 184.944 26.9435Z" fill="#999999"/>
<path d="M181.493 38.4038L164.716 29.198C163.394 28.47 162.204 30.4974 163.534 31.2255L180.311 40.4313C181.634 41.1593 182.823 39.1318 181.493 38.4038Z" fill="#999999"/>
<path d="M180.053 44.0087L163.277 34.8029C161.954 34.0749 160.765 36.1024 162.095 36.8304L178.872 46.0362C180.194 46.7642 181.384 44.7368 180.053 44.0087Z" fill="#999999"/>
<path d="M180.053 50.099L163.277 40.8932C161.954 40.1652 160.765 42.1926 162.095 42.9206L178.872 52.1265C180.194 52.8545 181.384 50.827 180.053 50.099Z" fill="#999999"/>
<path d="M193.207 32.2979L194.968 31.4446V33.2608L196.752 32.658V34.3645L198.841 33.6678V35.6562L200.68 34.9047L200.86 36.9008L202.347 36.0476L202.581 37.9655L204.076 36.9008V38.8892L205.743 37.8324L205.899 40.0164H203.716" fill="white"/>
<path d="M133.808 74.0765C134.291 72.7808 134.709 71.4614 135.06 70.1233C135.216 69.1761 134.277 65.5752 134.934 65.3717C135.592 65.1681 136.413 67.6105 136.413 67.6105C136.413 67.6105 138.37 63.1955 138.902 62.9841C139.434 62.7727 141.022 62.6318 141.406 63.0311C141.789 63.4303 142.845 66.0057 142.376 66.8825C141.36 68.4456 140.257 69.951 139.074 71.3915C138.902 71.5246 136.844 75.9553 136.57 76.0884C136.296 76.2214 134.027 75.0707 133.808 74.0765Z" fill="#FFC9B5"/>
<path d="M112.359 88.3628C112.359 88.3628 123.111 84.1121 124.981 82.57C126.851 81.0279 133.589 73.0823 133.589 73.0823C133.589 73.0823 137.501 74.5149 137.454 76.4797C137.454 76.4797 131.977 85.6308 129.434 88.081C126.89 90.5312 117.61 96.6919 115.575 96.551C113.541 96.4101 112.359 88.3628 112.359 88.3628Z" fill="#C93535"/>
<path d="M119.222 175.419C119.222 175.419 121.788 173.227 124.699 174.073C127.61 174.918 126.984 177.079 125.169 178.433C123.353 179.787 116.366 184.492 114.214 184.445C112.062 184.398 111.592 182.668 111.545 181.478C111.665 179.642 111.876 177.813 112.179 175.998" fill="#2C1D1A"/>
<path d="M117.617 175.263C117.628 175.343 117.656 175.42 117.7 175.488C117.744 175.556 117.803 175.613 117.872 175.656C117.941 175.699 118.018 175.726 118.099 175.735C118.179 175.744 118.261 175.735 118.337 175.709C119.118 175.462 119.883 175.169 120.63 174.832C120.63 174.832 123.11 174.832 121.6 177.314C120.09 179.795 114.886 180.523 113.282 179.599C111.678 178.676 112.75 176.045 112.75 176.045" fill="#2C1D1A"/>
<path d="M125.263 180.257C125.263 180.257 127.829 178.065 130.74 178.91C133.651 179.756 133.025 181.916 131.21 183.271C129.394 184.625 122.407 189.33 120.255 189.283C118.103 189.236 117.633 187.506 117.586 186.316C117.706 184.48 117.917 182.651 118.22 180.836" fill="#2C1D1A"/>
<path d="M123.635 180.108C123.646 180.189 123.674 180.265 123.718 180.333C123.762 180.402 123.821 180.459 123.889 180.502C123.958 180.544 124.036 180.571 124.116 180.58C124.197 180.589 124.278 180.581 124.355 180.554C125.135 180.307 125.901 180.014 126.648 179.678C126.648 179.678 129.128 179.678 127.618 182.159C126.108 184.641 120.904 185.369 119.3 184.445C117.696 183.521 118.768 180.891 118.768 180.891" fill="#FFC9B5"/>
<path d="M126.358 112.575C127.196 114.47 127.649 141.594 127.329 148.584C127.008 155.575 123.635 180.108 123.635 180.108C123.635 180.108 121.734 182.997 118.525 182.793C115.317 182.59 115.943 180.006 115.943 180.006C115.943 180.006 111.843 181.909 110.051 177.728C109.386 176.163 106.264 132.944 106.264 128.02C106.371 122.136 107.987 116.378 110.959 111.299" fill="#2C1D1A"/>
<path d="M115.967 179.999C115.967 179.999 114.018 125.202 114.269 123.581C114.519 121.961 113.737 135.598 113.791 139.324C113.823 141.985 115.442 176.272 115.967 179.999Z" fill="#6D5854"/>
<path d="M126.358 112.575C126.358 112.575 129.191 93.1693 125.161 89.5057C121.131 85.8422 109.934 83.2432 107.844 85.0672C105.755 86.8911 108.893 107.471 110.974 111.291C113.056 115.111 124.872 114.086 126.358 112.575Z" fill="#EA5353"/>
<path d="M121.288 75.2351C121.381 75.5091 123.369 83.0632 119.903 84.1591C116.436 85.2551 115.74 81.114 115.395 80.8791C115.051 80.6443 113.963 80.2764 114.018 79.4388C114.073 78.6012 115.387 78.5855 115.387 78.5855C115.387 78.5855 115.896 76.3936 117.453 75.4543C119.01 74.5149 121.288 75.2351 121.288 75.2351Z" fill="#FFC9B5"/>
<path d="M118.024 77.3643C118.024 77.3643 120.92 77.4113 122.172 76.1744C122.406 75.9327 122.588 75.645 122.705 75.3294C122.823 75.0138 122.874 74.6773 122.855 74.341C122.835 74.0048 122.747 73.6762 122.594 73.376C122.442 73.0758 122.228 72.8106 121.968 72.597C121.968 72.597 123.118 70.3034 120.959 69.7476C120.959 69.7476 120.763 67.6418 116.459 68.6047C112.156 69.5675 108.22 72.597 108.165 76.511C108.11 80.4251 107.821 80.9026 106.428 81.8028C105.035 82.7031 105.418 86.1553 109.143 86.2962C112.868 86.4371 117.946 86.1083 118.423 84.2687C118.901 82.4291 116.076 82.2334 115.724 80.3546C115.637 79.6537 115.83 78.9468 116.261 78.387C116.691 77.8273 117.325 77.4598 118.024 77.3643Z" fill="#2C1D1A"/>
<path d="M131.953 109.78C131.953 109.78 134.934 112.959 135.795 113.303C137.113 113.906 138.38 114.616 139.582 115.425C139.183 115.782 138.828 116.187 138.526 116.63C138.525 116.646 138.525 116.661 138.526 116.677C138.143 116.403 137.877 116.2 137.884 116.34C137.884 116.787 140.819 120.607 141.265 121.186C141.711 121.765 140.482 123.66 140.482 123.66C138.589 124.294 136.405 122.376 135.005 121.076C133.604 119.777 132.955 116.771 132.469 116.38C131.984 115.988 127.986 113.35 127.704 112.528C127.422 111.706 131.953 109.78 131.953 109.78Z" fill="#FFC9B5"/>
<path d="M126.084 90.8913C126.867 92.6213 126.867 94.5157 127.195 96.371C127.454 97.6939 127.72 99.0795 128.025 100.418C128.233 101.783 128.661 103.105 129.292 104.332C130.388 106.156 131.812 107.737 133.056 109.452C133.402 109.824 133.652 110.276 133.784 110.767C133.901 111.965 132.391 115.378 128.205 114.955C126.089 113.245 124.111 111.371 122.289 109.35C119.942 106.587 117.719 97.2399 117.946 94.1321C118.103 92.0185 119.253 89.6544 121.256 88.7307C121.92 88.46 122.652 88.3997 123.351 88.5579C124.051 88.7161 124.685 89.0851 125.169 89.6153C125.543 89.9862 125.853 90.4176 126.084 90.8913Z" fill="#EA5353"/>
<path d="M125.849 112.904C125.849 112.904 122.352 109.929 121.491 108.137C120.63 106.344 119.511 103.119 119.511 103.119C119.511 103.119 121.131 112.442 122.68 113.687C123.758 113.523 124.819 113.261 125.849 112.904Z" fill="#2C1D1A"/>
<path opacity="0.48" d="M161.758 162.017L158.12 156.467L153.37 154.636L146.085 158.166L88.1797 191.381L107.985 202.896C113.908 199.162 155.952 165.947 161.758 162.017Z" fill="url(#paint3_linear_135_436)"/>
<path d="M141.187 114.156C134.019 114.697 134.395 127.464 133.909 132.717C133.784 134.048 135.646 134.486 135.772 133.155C136.179 128.756 135.905 122.791 138.119 118.916C138.808 117.718 139.629 116.567 141.038 116.434C141.479 116.419 141.919 116.502 142.325 116.676C142.73 116.851 143.093 117.113 143.385 117.444C144.011 118.07 144.348 120.528 144.457 121.264C144.83 123.997 144.872 126.765 144.583 129.507C144.457 130.838 146.32 131.276 146.445 129.946C146.844 125.773 147.572 113.671 141.187 114.156Z" fill="#8CCC00"/>
<path d="M151.907 122.705L154.059 126.65L158.37 127.636L155.139 139.872L145.976 133.359" fill="#DD842A"/>
<path d="M129.809 136.122L151.907 122.705L151.187 142.635L134.301 144.412L129.809 136.122Z" fill="#C13D3D"/>
<path d="M137.712 139.081L141.124 176.773L161.782 163.16L158.37 127.636L137.712 139.081Z" fill="#A43CE3"/>
<path d="M137.712 139.081L135.38 136.122H129.809L127.477 169.078L133.471 172.116L141.124 176.773L137.712 139.081Z" fill="#A43CE3"/>
<path opacity="0.14" d="M137.712 139.081L135.38 136.122H129.809L127.477 169.078L133.471 172.116L141.124 176.773L137.712 139.081Z" fill="#42210B"/>
<path d="M150.412 120.458C143.229 120.528 142.908 133.265 142.141 138.51C141.945 139.825 143.784 140.396 143.98 139.065C144.622 134.697 144.676 128.724 147.11 124.975C148.104 123.448 149.856 122.165 151.578 123.167C153.143 124.059 153.143 126.063 153.292 127.738C153.516 130.486 153.408 133.251 152.971 135.973C152.775 137.288 154.606 137.86 154.81 136.529C155.428 132.427 156.813 120.395 150.412 120.458Z" fill="#8CCC00"/>
<defs>
<linearGradient id="paint0_linear_135_436" x1="36.4878" y1="157.234" x2="62.0123" y2="138.386" gradientUnits="userSpaceOnUse">
<stop offset="0.01" stop-color="#2E3192" stop-opacity="0"/>
<stop offset="1" stop-color="#666666"/>
</linearGradient>
<linearGradient id="paint1_linear_135_436" x1="15950.3" y1="10955.7" x2="17269.6" y2="8076.33" gradientUnits="userSpaceOnUse">
<stop offset="0.01" stop-color="#2E3192" stop-opacity="0"/>
<stop offset="1" stop-color="#666666"/>
</linearGradient>
<linearGradient id="paint2_linear_135_436" x1="12202" y1="4764.33" x2="12849.5" y2="3807.16" gradientUnits="userSpaceOnUse">
<stop offset="0.01" stop-color="#2E3192" stop-opacity="0"/>
<stop offset="1" stop-color="#666666"/>
</linearGradient>
<linearGradient id="paint3_linear_135_436" x1="9080.2" y1="12526.6" x2="12215.9" y2="8523.77" gradientUnits="userSpaceOnUse">
<stop offset="0.01" stop-color="#2E3192" stop-opacity="0"/>
<stop offset="1" stop-color="#666666"/>
</linearGradient>
</defs>
</svg>
